<ttFont>
<head>
    <!-- Most of this table will be recalculated by the compiler -->
    <tableVersion value="1.0"/>
    <fontRevision value="1.002"/>
    <checkSumAdjustment value="0xd9fc24a4"/>
    <magicNumber value="0x5f0f3cf5"/>
    <flags value="00000000 00001111"/>
    <unitsPerEm value="1000"/>
    <created value="Sun Jun 13 08:13:04 2021"/>
    <modified value="Mon Jun 14 15:26:00 2021"/>
    <xMin value="-122"/>
    <yMin value="-265"/>
    <xMax value="1052"/>
    <yMax value="1175"/>
    <macStyle value="00000000 00000010"/>
    <lowestRecPPEM value="6"/>
    <fontDirectionHint value="2"/>
    <indexToLocFormat value="0"/>
    <glyphDataFormat value="0"/>
  </head>
    <TTGlyph name=".notdef" xMin="50" yMin="-265" xMax="450" yMax="1000">
      <contour>
        <pt x="50" y="-265" on="1"/>
        <pt x="50" y="1000" on="1"/>
        <pt x="450" y="1000" on="1"/>
        <pt x="450" y="-265" on="1"/>
      </contour>
      <contour>
        <pt x="100" y="-215" on="1"/>
        <pt x="400" y="-215" on="1"/>
        <pt x="400" y="950" on="1"/>
        <pt x="100" y="950" on="1"/>
      </contour>
    </TTGlyph>
    <TTGlyph name="A" xMin="-16" yMin="0" xMax="602" yMax="740">
      <contour>
        <pt x="-16" y="0" on="1"/>
        <pt x="405" y="740" on="1"/>
        <pt x="496" y="740" on="1"/>
        <pt x="602" y="0" on="1"/>
        <pt x="526" y="0" on="1"/>
        <pt x="500" y="191" on="1"/>
        <pt x="178" y="191" on="1"/>
        <pt x="70" y="0" on="1"/>
      </contour>
      <contour>
        <pt x="218" y="261" on="1"/>
        <pt x="490" y="261" on="1"/>
        <pt x="436" y="648" on="1"/>
      </contour>
    </TTGlyph>
    <TTGlyph name="AE" xMin="-16" yMin="0" xMax="1013" yMax="740">
      <contour>
        <pt x="-16" y="0" on="1"/>
        <pt x="524" y="740" on="1"/>
        <pt x="1013" y="740" on="1"/>
        <pt x="999" y="671" on="1"/>
        <pt x="637" y="671" on="1"/>
        <pt x="582" y="412" on="1"/>
        <pt x="897" y="412" on="1"/>
        <pt x="882" y="343" on="1"/>
        <pt x="568" y="343" on="1"/>
        <pt x="510" y="69" on="1"/>
        <pt x="876" y="69" on="1"/>
        <pt x="862" y="0" on="1"/>
        <pt x="418" y="0" on="1"/>
        <pt x="459" y="191" on="1"/>
        <pt x="215" y="191" on="1"/>
        <pt x="75" y="0" on="1"/>
      </contour>
      <contour>
        <pt x="265" y="261" on="1"/>
        <pt x="473" y="261" on="1"/>
        <pt x="558" y="662" on="1"/>
      </contour>
    </TTGlyph>
    <TTGlyph name="Aacute" xMin="-16" yMin="0" xMax="603" yMax="994">
      <contour>
        <pt x="503" y="823" on="1"/>
        <pt x="441" y="823" on="1"/>
        <pt x="528" y="994" on="1"/>
        <pt x="603" y="994" on="1"/>
      </contour>
      <contour>
        <pt x="-16" y="0" on="1"/>
        <pt x="405" y="740" on="1"/>
        <pt x="496" y="740" on="1"/>
        <pt x="602" y="0" on="1"/>
        <pt x="526" y="0" on="1"/>
        <pt x="500" y="191" on="1"/>
        <pt x="178" y="191" on="1"/>
        <pt x="70" y="0" on="1"/>
      </contour>
      <contour>
        <pt x="218" y="261" on="1"/>
        <pt x="490" y="261" on="1"/>
        <pt x="436" y="648" on="1"/>
      </contour>
    </TTGlyph>
    <TTGlyph name="Abreve" xMin="-16" yMin="0" xMax="647" yMax="949">
      <contour>
        <pt x="478" y="818" on="1"/>
        <pt x="435" y="818" on="0"/>
        <pt x="382" y="844" on="0"/>
        <pt x="355" y="883" on="0"/>
        <pt x="345" y="922" on="0"/>
        <pt x="344" y="949" on="0"/>
        <pt x="344" y="949" on="1"/>
        <pt x="402" y="949" on="1"/>
        <pt x="402" y="949" on="0"/>
        <pt x="402" y="925" on="0"/>
        <pt x="413" y="893" on="0"/>
        <pt x="446" y="869" on="0"/>
        <pt x="479" y="869" on="1"/>
        <pt x="512" y="869" on="0"/>
        <pt x="555" y="893" on="0"/>
        <pt x="579" y="925" on="0"/>
        <pt x="589" y="949" on="0"/>
        <pt x="589" y="949" on="1"/>
        <pt x="647" y="949" on="1"/>
        <pt x="647" y="949" on="0"/>
        <pt x="639" y="922" on="0"/>
        <pt x="618" y="883" on="0"/>
        <pt x="580" y="844" on="0"/>
        <pt x="521" y="818" on="0"/>
      </contour>
      <contour>
        <pt x="-16" y="0" on="1"/>
        <pt x="405" y="740" on="1"/>
        <pt x="496" y="740" on="1"/>
        <pt x="602" y="0" on="1"/>
        <pt x="526" y="0" on="1"/>
        <pt x="500" y="191" on="1"/>
        <pt x="178" y="191" on="1"/>
        <pt x="70" y="0" on="1"/>
      </contour>
      <contour>
        <pt x="218" y="261" on="1"/>
        <pt x="490" y="261" on="1"/>
        <pt x="436" y="648" on="1"/>
      </contour>
    </TTGlyph>
    <TTGlyph name="Acircumflex" xMin="-16" yMin="0" xMax="612" yMax="961">
      <contour>
        <pt x="311" y="817" on="1"/>
        <pt x="459" y="961" on="1"/>
        <pt x="525" y="961" on="1"/>
        <pt x="612" y="817" on="1"/>
        <pt x="547" y="817" on="1"/>
        <pt x="487" y="917" on="1"/>
        <pt x="387" y="817" on="1"/>
      </contour>
      <contour>
        <pt x="-16" y="0" on="1"/>
        <pt x="405" y="740" on="1"/>
        <pt x="496" y="740" on="1"/>
        <pt x="602" y="0" on="1"/>
        <pt x="526" y="0" on="1"/>
        <pt x="500" y="191" on="1"/>
        <pt x="178" y="191" on="1"/>
        <pt x="70" y="0" on="1"/>
      </contour>
      <contour>
        <pt x="218" y="261" on="1"/>
        <pt x="490" y="261" on="1"/>
        <pt x="436" y="648" on="1"/>
      </contour>
    </TTGlyph>
    <TTGlyph name="Adieresis" xMin="-16" yMin="0" xMax="620" yMax="933">
      <contour>
        <pt x="567" y="827" on="1"/>
        <pt x="544" y="827" on="0"/>
        <pt x="514" y="859" on="0"/>
        <pt x="514" y="880" on="1"/>
        <pt x="514" y="902" on="0"/>
        <pt x="544" y="933" on="0"/>
        <pt x="567" y="933" on="1"/>
        <pt x="590" y="933" on="0"/>
        <pt x="620" y="902" on="0"/>
        <pt x="620" y="880" on="1"/>
        <pt x="620" y="858" on="0"/>
        <pt x="590" y="827" on="0"/>
      </contour>
      <contour>
        <pt x="394" y="827" on="1"/>
        <pt x="371" y="827" on="0"/>
        <pt x="341" y="859" on="0"/>
        <pt x="341" y="880" on="1"/>
        <pt x="341" y="902" on="0"/>
        <pt x="371" y="933" on="0"/>
        <pt x="394" y="933" on="1"/>
        <pt x="417" y="933" on="0"/>
        <pt x="447" y="902" on="0"/>
        <pt x="447" y="880" on="1"/>
        <pt x="447" y="858" on="0"/>
        <pt x="417" y="827" on="0"/>
      </contour>
      <contour>
        <pt x="-16" y="0" on="1"/>
        <pt x="405" y="740" on="1"/>
        <pt x="496" y="740" on="1"/>
        <pt x="602" y="0" on="1"/>
        <pt x="526" y="0" on="1"/>
        <pt x="500" y="191" on="1"/>
        <pt x="178" y="191" on="1"/>
        <pt x="70" y="0" on="1"/>
      </contour>
      <contour>
        <pt x="218" y="261" on="1"/>
        <pt x="490" y="261" on="1"/>
        <pt x="436" y="648" on="1"/>
      </contour>
    </TTGlyph>
    <TTGlyph name="Agrave" xMin="-16" yMin="0" xMax="602" yMax="994">
      <contour>
        <pt x="430" y="823" on="1"/>
        <pt x="355" y="994" on="1"/>
        <pt x="429" y="994" on="1"/>
        <pt x="491" y="823" on="1"/>
      </contour>
      <contour>
        <pt x="-16" y="0" on="1"/>
        <pt x="405" y="740" on="1"/>
        <pt x="496" y="740" on="1"/>
        <pt x="602" y="0" on="1"/>
        <pt x="526" y="0" on="1"/>
        <pt x="500" y="191" on="1"/>
        <pt x="178" y="191" on="1"/>
        <pt x="70" y="0" on="1"/>
      </contour>
      <contour>
        <pt x="218" y="261" on="1"/>
        <pt x="490" y="261" on="1"/>
        <pt x="436" y="648" on="1"/>
      </contour>
    </TTGlyph>
    <TTGlyph name="Amacron" xMin="-16" yMin="0" xMax="635" yMax="906">
      <contour>
        <pt x="326" y="848" on="1"/>
        <pt x="339" y="906" on="1"/>
        <pt x="635" y="906" on="1"/>
        <pt x="622" y="848" on="1"/>
      </contour>
      <contour>
        <pt x="-16" y="0" on="1"/>
        <pt x="405" y="740" on="1"/>
        <pt x="496" y="740" on="1"/>
        <pt x="602" y="0" on="1"/>
        <pt x="526" y="0" on="1"/>
        <pt x="500" y="191" on="1"/>
        <pt x="178" y="191" on="1"/>
        <pt x="70" y="0" on="1"/>
      </contour>
      <contour>
        <pt x="218" y="261" on="1"/>
        <pt x="490" y="261" on="1"/>
        <pt x="436" y="648" on="1"/>
      </contour>
    </TTGlyph>
    <TTGlyph name="Aogonek" xMin="-16" yMin="-161" xMax="602" yMax="740">
      <contour>
        <pt x="-16" y="0" on="1"/>
        <pt x="405" y="740" on="1"/>
        <pt x="496" y="740" on="1"/>
        <pt x="602" y="0" on="1"/>
        <pt x="564" y="0" on="1"/>
        <pt x="564" y="0" on="0"/>
        <pt x="543" y="-9" on="0"/>
        <pt x="514" y="-28" on="0"/>
        <pt x="493" y="-56" on="0"/>
        <pt x="493" y="-75" on="1"/>
        <pt x="493" y="-112" on="0"/>
        <pt x="544" y="-112" on="1"/>
        <pt x="558" y="-112" on="0"/>
        <pt x="582" y="-107" on="0"/>
        <pt x="582" y="-107" on="1"/>
        <pt x="572" y="-155" on="1"/>
        <pt x="572" y="-155" on="0"/>
        <pt x="547" y="-161" on="0"/>
        <pt x="527" y="-161" on="1"/>
        <pt x="483" y="-161" on="0"/>
        <pt x="433" y="-121" on="0"/>
        <pt x="433" y="-88" on="1"/>
        <pt x="433" y="-58" on="0"/>
        <pt x="467" y="-16" on="0"/>
        <pt x="511" y="8" on="0"/>
        <pt x="525" y="13" on="1"/>
        <pt x="500" y="191" on="1"/>
        <pt x="178" y="191" on="1"/>
        <pt x="70" y="0" on="1"/>
      </contour>
      <contour>
        <pt x="218" y="261" on="1"/>
        <pt x="490" y="261" on="1"/>
        <pt x="436" y="648" on="1"/>
      </contour>
    </TTGlyph>
    <TTGlyph name="Aring" xMin="-16" yMin="0" xMax="602" yMax="1049">
      <contour>
        <pt x="464" y="816" on="1"/>
        <pt x="432" y="816" on="0"/>
        <pt x="379" y="847" on="0"/>
        <pt x="347" y="900" on="0"/>
        <pt x="347" y="932" on="1"/>
        <pt x="347" y="965" on="0"/>
        <pt x="379" y="1018" on="0"/>
        <pt x="432" y="1049" on="0"/>
        <pt x="464" y="1049" on="1"/>
        <pt x="496" y="1049" on="0"/>
        <pt x="549" y="1018" on="0"/>
        <pt x="580" y="965" on="0"/>
        <pt x="580" y="932" on="1"/>
        <pt x="580" y="900" on="0"/>
        <pt x="549" y="847" on="0"/>
        <pt x="496" y="816" on="0"/>
      </contour>
      <contour>
        <pt x="464" y="871" on="1"/>
        <pt x="489" y="871" on="0"/>
        <pt x="525" y="907" on="0"/>
        <pt x="525" y="932" on="1"/>
        <pt x="525" y="958" on="0"/>
        <pt x="489" y="994" on="0"/>
        <pt x="464" y="994" on="1"/>
        <pt x="438" y="994" on="0"/>
        <pt x="402" y="958" on="0"/>
        <pt x="402" y="932" on="1"/>
        <pt x="402" y="907" on="0"/>
        <pt x="438" y="871" on="0"/>
      </contour>
      <contour>
        <pt x="-16" y="0" on="1"/>
        <pt x="405" y="740" on="1"/>
        <pt x="496" y="740" on="1"/>
        <pt x="602" y="0" on="1"/>
        <pt x="526" y="0" on="1"/>
        <pt x="500" y="191" on="1"/>
        <pt x="178" y="191" on="1"/>
        <pt x="70" y="0" on="1"/>
      </contour>
      <contour>
        <pt x="218" y="261" on="1"/>
        <pt x="490" y="261" on="1"/>
        <pt x="436" y="648" on="1"/>
      </contour>
    </TTGlyph>
    <TTGlyph name="Atilde" xMin="-16" yMin="0" xMax="641" yMax="956">
      <contour>
        <pt x="544" y="828" on="1"/>
        <pt x="520" y="828" on="0"/>
        <pt x="487" y="850" on="0"/>
        <pt x="462" y="880" on="0"/>
        <pt x="439" y="902" on="0"/>
        <pt x="425" y="902" on="1"/>
        <pt x="408" y="902" on="0"/>
        <pt x="386" y="865" on="0"/>
        <pt x="380" y="833" on="1"/>
        <pt x="329" y="833" on="1"/>
        <pt x="339" y="888" on="0"/>
        <pt x="384" y="956" on="0"/>
        <pt x="426" y="956" on="1"/>
        <pt x="452" y="956" on="0"/>
        <pt x="485" y="934" on="0"/>
        <pt x="509" y="905" on="0"/>
        <pt x="532" y="883" on="0"/>
        <pt x="546" y="883" on="1"/>
        <pt x="578" y="883" on="0"/>
        <pt x="589" y="951" on="1"/>
        <pt x="641" y="951" on="1"/>
        <pt x="630" y="897" on="0"/>
        <pt x="586" y="828" on="0"/>
      </contour>
      <contour>
        <pt x="-16" y="0" on="1"/>
        <pt x="405" y="740" on="1"/>
        <pt x="496" y="740" on="1"/>
        <pt x="602" y="0" on="1"/>
        <pt x="526" y="0" on="1"/>
        <pt x="500" y="191" on="1"/>
        <pt x="178" y="191" on="1"/>
        <pt x="70" y="0" on="1"/>
      </contour>
      <contour>
        <pt x="218" y="261" on="1"/>
        <pt x="490" y="261" on="1"/>
        <pt x="436" y="648" on="1"/>
      </contour>
    </TTGlyph>
    <TTGlyph name="B" xMin="31" yMin="0" xMax="633" yMax="740">
      <contour>
        <pt x="31" y="0" on="1"/>
        <pt x="188" y="740" on="1"/>
        <pt x="448" y="740" on="1"/>
        <pt x="511" y="740" on="0"/>
        <pt x="593" y="693" on="0"/>
        <pt x="633" y="618" on="0"/>
        <pt x="633" y="575" on="1"/>
        <pt x="633" y="536" on="0"/>
        <pt x="601" y="460" on="0"/>
        <pt x="539" y="400" on="0"/>
        <pt x="494" y="386" on="1"/>
        <pt x="493" y="380" on="1"/>
        <pt x="546" y="363" on="0"/>
        <pt x="598" y="283" on="0"/>
        <pt x="598" y="233" on="1"/>
        <pt x="598" y="193" on="0"/>
        <pt x="564" y="111" on="0"/>
        <pt x="497" y="42" on="0"/>
        <pt x="399" y="0" on="0"/>
        <pt x="336" y="0" on="1"/>
      </contour>
      <contour>
        <pt x="439" y="672" on="1"/>
        <pt x="250" y="672" on="1"/>
        <pt x="195" y="409" on="1"/>
        <pt x="390" y="409" on="1"/>
        <pt x="444" y="409" on="0"/>
        <pt x="519" y="457" on="0"/>
        <pt x="558" y="528" on="0"/>
        <pt x="558" y="564" on="1"/>
        <pt x="558" y="607" on="0"/>
        <pt x="500" y="672" on="0"/>
      </contour>
      <contour>
        <pt x="382" y="346" on="1"/>
        <pt x="181" y="346" on="1"/>
        <pt x="122" y="68" on="1"/>
        <pt x="340" y="68" on="1"/>
        <pt x="397" y="68" on="0"/>
        <pt x="478" y="117" on="0"/>
        <pt x="522" y="192" on="0"/>
        <pt x="522" y="231" on="1"/>
        <pt x="522" y="276" on="0"/>
        <pt x="454" y="346" on="0"/>
      </contour>
    </TTGlyph>
    <TTGlyph name="C" xMin="62" yMin="-10" xMax="723" yMax="750">
      <contour>
        <pt x="359" y="-10" on="1"/>
        <pt x="282" y="-10" on="0"/>
        <pt x="170" y="43" on="0"/>
        <pt x="97" y="134" on="0"/>
        <pt x="62" y="250" on="0"/>
        <pt x="62" y="314" on="1"/>
        <pt x="62" y="391" on="0"/>
        <pt x="112" y="545" on="0"/>
        <pt x="211" y="673" on="0"/>
        <pt x="359" y="750" on="0"/>
        <pt x="457" y="750" on="1"/>
        <pt x="525" y="750" on="0"/>
        <pt x="618" y="714" on="0"/>
        <pt x="677" y="656" on="0"/>
        <pt x="708" y="591" on="0"/>
        <pt x="721" y="534" on="0"/>
        <pt x="723" y="497" on="0"/>
        <pt x="723" y="497" on="1"/>
        <pt x="646" y="497" on="1"/>
        <pt x="646" y="497" on="0"/>
        <pt x="643" y="534" on="0"/>
        <pt x="627" y="589" on="0"/>
        <pt x="587" y="643" on="0"/>
        <pt x="513" y="680" on="0"/>
        <pt x="453" y="680" on="1"/>
        <pt x="376" y="680" on="0"/>
        <pt x="259" y="616" on="0"/>
        <pt x="180" y="510" on="0"/>
        <pt x="140" y="383" on="0"/>
        <pt x="140" y="319" on="1"/>
        <pt x="140" y="251" on="0"/>
        <pt x="187" y="133" on="0"/>
        <pt x="287" y="61" on="0"/>
        <pt x="365" y="61" on="1"/>
        <pt x="423" y="61" on="0"/>
        <pt x="506" y="97" on="0"/>
        <pt x="563" y="152" on="0"/>
        <pt x="596" y="206" on="0"/>
        <pt x="610" y="243" on="0"/>
        <pt x="610" y="243" on="1"/>
        <pt x="688" y="243" on="1"/>
        <pt x="688" y="243" on="0"/>
        <pt x="676" y="206" on="0"/>
        <pt x="648" y="149" on="0"/>
        <pt x="599" y="84" on="0"/>
        <pt x="527" y="26" on="0"/>
        <pt x="426" y="-10" on="0"/>
      </contour>
    </TTGlyph>
    <TTGlyph name="Cacute" xMin="62" yMin="-10" xMax="723" yMax="994">
      <contour>
        <pt x="532" y="823" on="1"/>
        <pt x="470" y="823" on="1"/>
        <pt x="556" y="994" on="1"/>
        <pt x="632" y="994" on="1"/>
      </contour>
      <contour>
        <pt x="359" y="-10" on="1"/>
        <pt x="282" y="-10" on="0"/>
        <pt x="170" y="43" on="0"/>
        <pt x="97" y="134" on="0"/>
        <pt x="62" y="250" on="0"/>
        <pt x="62" y="314" on="1"/>
        <pt x="62" y="391" on="0"/>
        <pt x="112" y="545" on="0"/>
        <pt x="211" y="673" on="0"/>
        <pt x="359" y="750" on="0"/>
        <pt x="457" y="750" on="1"/>
        <pt x="525" y="750" on="0"/>
        <pt x="618" y="714" on="0"/>
        <pt x="677" y="656" on="0"/>
        <pt x="708" y="591" on="0"/>
        <pt x="721" y="534" on="0"/>
        <pt x="723" y="497" on="0"/>
        <pt x="723" y="497" on="1"/>
        <pt x="646" y="497" on="1"/>
        <pt x="646" y="497" on="0"/>
        <pt x="643" y="534" on="0"/>
        <pt x="627" y="589" on="0"/>
        <pt x="587" y="643" on="0"/>
        <pt x="513" y="680" on="0"/>
        <pt x="453" y="680" on="1"/>
        <pt x="376" y="680" on="0"/>
        <pt x="259" y="616" on="0"/>
        <pt x="180" y="510" on="0"/>
        <pt x="140" y="383" on="0"/>
        <pt x="140" y="319" on="1"/>
        <pt x="140" y="251" on="0"/>
        <pt x="187" y="133" on="0"/>
        <pt x="287" y="61" on="0"/>
        <pt x="365" y="61" on="1"/>
        <pt x="423" y="61" on="0"/>
        <pt x="506" y="97" on="0"/>
        <pt x="563" y="152" on="0"/>
        <pt x="596" y="206" on="0"/>
        <pt x="610" y="243" on="0"/>
        <pt x="610" y="243" on="1"/>
        <pt x="688" y="243" on="1"/>
        <pt x="688" y="243" on="0"/>
        <pt x="676" y="206" on="0"/>
        <pt x="648" y="149" on="0"/>
        <pt x="599" y="84" on="0"/>
        <pt x="527" y="26" on="0"/>
        <pt x="426" y="-10" on="0"/>
      </contour>
    </TTGlyph>
    <TTGlyph name="Ccaron" xMin="62" yMin="-10" xMax="723" yMax="978">
      <contour>
        <pt x="458" y="816" on="1"/>
        <pt x="374" y="978" on="1"/>
        <pt x="439" y="978" on="1"/>
        <pt x="496" y="865" on="1"/>
        <pt x="600" y="978" on="1"/>
        <pt x="676" y="978" on="1"/>
        <pt x="524" y="816" on="1"/>
      </contour>
      <contour>
        <pt x="359" y="-10" on="1"/>
        <pt x="282" y="-10" on="0"/>
        <pt x="170" y="43" on="0"/>
        <pt x="97" y="134" on="0"/>
        <pt x="62" y="250" on="0"/>
        <pt x="62" y="314" on="1"/>
        <pt x="62" y="391" on="0"/>
        <pt x="112" y="545" on="0"/>
        <pt x="211" y="673" on="0"/>
        <pt x="359" y="750" on="0"/>
        <pt x="457" y="750" on="1"/>
        <pt x="525" y="750" on="0"/>
        <pt x="618" y="714" on="0"/>
        <pt x="677" y="656" on="0"/>
        <pt x="708" y="591" on="0"/>
        <pt x="721" y="534" on="0"/>
        <pt x="723" y="497" on="0"/>
        <pt x="723" y="497" on="1"/>
        <pt x="646" y="497" on="1"/>
        <pt x="646" y="497" on="0"/>
        <pt x="643" y="534" on="0"/>
        <pt x="627" y="589" on="0"/>
        <pt x="587" y="643" on="0"/>
        <pt x="513" y="680" on="0"/>
        <pt x="453" y="680" on="1"/>
        <pt x="376" y="680" on="0"/>
        <pt x="259" y="616" on="0"/>
        <pt x="180" y="510" on="0"/>
        <pt x="140" y="383" on="0"/>
        <pt x="140" y="319" on="1"/>
        <pt x="140" y="251" on="0"/>
        <pt x="187" y="133" on="0"/>
        <pt x="287" y="61" on="0"/>
        <pt x="365" y="61" on="1"/>
        <pt x="423" y="61" on="0"/>
        <pt x="506" y="97" on="0"/>
        <pt x="563" y="152" on="0"/>
        <pt x="596" y="206" on="0"/>
        <pt x="610" y="243" on="0"/>
        <pt x="610" y="243" on="1"/>
        <pt x="688" y="243" on="1"/>
        <pt x="688" y="243" on="0"/>
        <pt x="676" y="206" on="0"/>
        <pt x="648" y="149" on="0"/>
        <pt x="599" y="84" on="0"/>
        <pt x="527" y="26" on="0"/>
        <pt x="426" y="-10" on="0"/>
      </contour>
    </TTGlyph>
    <TTGlyph name="Ccedilla" xMin="62" yMin="-256" xMax="723" yMax="750">
      <contour>
        <pt x="296" y="-256" on="1"/>
        <pt x="264" y="-256" on="0"/>
        <pt x="218" y="-245" on="0"/>
        <pt x="218" y="-245" on="1"/>
        <pt x="227" y="-198" on="1"/>
        <pt x="227" y="-198" on="0"/>
        <pt x="274" y="-207" on="0"/>
        <pt x="296" y="-207" on="1"/>
        <pt x="337" y="-207" on="0"/>
        <pt x="370" y="-173" on="0"/>
        <pt x="370" y="-154" on="1"/>
        <pt x="370" y="-135" on="0"/>
        <pt x="341" y="-106" on="0"/>
        <pt x="312" y="-106" on="1"/>
        <pt x="290" y="-106" on="0"/>
        <pt x="261" y="-122" on="0"/>
        <pt x="261" y="-122" on="1"/>
        <pt x="238" y="-92" on="1"/>
        <pt x="308" y="-7" on="1"/>
        <pt x="223" y="5" on="0"/>
        <pt x="114" y="99" on="0"/>
        <pt x="62" y="236" on="0"/>
        <pt x="62" y="314" on="1"/>
        <pt x="62" y="391" on="0"/>
        <pt x="112" y="545" on="0"/>
        <pt x="211" y="673" on="0"/>
        <pt x="359" y="750" on="0"/>
        <pt x="457" y="750" on="1"/>
        <pt x="525" y="750" on="0"/>
        <pt x="618" y="714" on="0"/>
        <pt x="677" y="656" on="0"/>
        <pt x="708" y="591" on="0"/>
        <pt x="721" y="534" on="0"/>
        <pt x="723" y="497" on="0"/>
        <pt x="723" y="497" on="1"/>
        <pt x="646" y="497" on="1"/>
        <pt x="646" y="497" on="0"/>
        <pt x="643" y="534" on="0"/>
        <pt x="627" y="589" on="0"/>
        <pt x="587" y="643" on="0"/>
        <pt x="513" y="680" on="0"/>
        <pt x="453" y="680" on="1"/>
        <pt x="376" y="680" on="0"/>
        <pt x="259" y="616" on="0"/>
        <pt x="180" y="510" on="0"/>
        <pt x="140" y="383" on="0"/>
        <pt x="140" y="319" on="1"/>
        <pt x="140" y="251" on="0"/>
        <pt x="187" y="133" on="0"/>
        <pt x="287" y="61" on="0"/>
        <pt x="365" y="61" on="1"/>
        <pt x="423" y="61" on="0"/>
        <pt x="506" y="97" on="0"/>
        <pt x="563" y="152" on="0"/>
        <pt x="596" y="206" on="0"/>
        <pt x="610" y="243" on="0"/>
        <pt x="610" y="243" on="1"/>
        <pt x="688" y="243" on="1"/>
        <pt x="688" y="243" on="0"/>
        <pt x="676" y="206" on="0"/>
        <pt x="648" y="149" on="0"/>
        <pt x="600" y="84" on="0"/>
        <pt x="529" y="27" on="0"/>
        <pt x="430" y="-10" on="0"/>
        <pt x="365" y="-10" on="1"/>
        <pt x="321" y="-63" on="1"/>
        <pt x="326" y="-63" on="0"/>
        <pt x="332" y="-63" on="1"/>
        <pt x="380" y="-63" on="0"/>
        <pt x="430" y="-117" on="0"/>
        <pt x="430" y="-152" on="1"/>
        <pt x="430" y="-177" on="0"/>
        <pt x="402" y="-225" on="0"/>
        <pt x="343" y="-256" on="0"/>
      </contour>
    </TTGlyph>
    <TTGlyph name="Cdotaccent" xMin="62" yMin="-10" xMax="723" yMax="943">
      <contour>
        <pt x="512" y="837" on="1"/>
        <pt x="489" y="837" on="0"/>
        <pt x="459" y="869" on="0"/>
        <pt x="459" y="890" on="1"/>
        <pt x="459" y="912" on="0"/>
        <pt x="489" y="943" on="0"/>
        <pt x="512" y="943" on="1"/>
        <pt x="534" y="943" on="0"/>
        <pt x="565" y="912" on="0"/>
        <pt x="565" y="890" on="1"/>
        <pt x="565" y="868" on="0"/>
        <pt x="534" y="837" on="0"/>
      </contour>
      <contour>
        <pt x="359" y="-10" on="1"/>
        <pt x="282" y="-10" on="0"/>
        <pt x="170" y="43" on="0"/>
        <pt x="97" y="134" on="0"/>
        <pt x="62" y="250" on="0"/>
        <pt x="62" y="314" on="1"/>
        <pt x="62" y="391" on="0"/>
        <pt x="112" y="545" on="0"/>
        <pt x="211" y="673" on="0"/>
        <pt x="359" y="750" on="0"/>
        <pt x="457" y="750" on="1"/>
        <pt x="525" y="750" on="0"/>
        <pt x="618" y="714" on="0"/>
        <pt x="677" y="656" on="0"/>
        <pt x="708" y="591" on="0"/>
        <pt x="721" y="534" on="0"/>
        <pt x="723" y="497" on="0"/>
        <pt x="723" y="497" on="1"/>
        <pt x="646" y="497" on="1"/>
        <pt x="646" y="497" on="0"/>
        <pt x="643" y="534" on="0"/>
        <pt x="627" y="589" on="0"/>
        <pt x="587" y="643" on="0"/>
        <pt x="513" y="680" on="0"/>
        <pt x="453" y="680" on="1"/>
        <pt x="376" y="680" on="0"/>
        <pt x="259" y="616" on="0"/>
        <pt x="180" y="510" on="0"/>
        <pt x="140" y="383" on="0"/>
        <pt x="140" y="319" on="1"/>
        <pt x="140" y="251" on="0"/>
        <pt x="187" y="133" on="0"/>
        <pt x="287" y="61" on="0"/>
        <pt x="365" y="61" on="1"/>
        <pt x="423" y="61" on="0"/>
        <pt x="506" y="97" on="0"/>
        <pt x="563" y="152" on="0"/>
        <pt x="596" y="206" on="0"/>
        <pt x="610" y="243" on="0"/>
        <pt x="610" y="243" on="1"/>
        <pt x="688" y="243" on="1"/>
        <pt x="688" y="243" on="0"/>
        <pt x="676" y="206" on="0"/>
        <pt x="648" y="149" on="0"/>
        <pt x="599" y="84" on="0"/>
        <pt x="527" y="26" on="0"/>
        <pt x="426" y="-10" on="0"/>
      </contour>
    </TTGlyph>
    <TTGlyph name="D" xMin="31" yMin="0" xMax="675" yMax="740">
      <contour>
        <pt x="31" y="0" on="1"/>
        <pt x="188" y="740" on="1"/>
        <pt x="366" y="740" on="1"/>
        <pt x="446" y="740" on="0"/>
        <pt x="562" y="690" on="0"/>
        <pt x="638" y="603" on="0"/>
        <pt x="675" y="492" on="0"/>
        <pt x="675" y="431" on="1"/>
        <pt x="675" y="355" on="0"/>
        <pt x="620" y="202" on="0"/>
        <pt x="512" y="76" on="0"/>
        <pt x="355" y="0" on="0"/>
        <pt x="254" y="0" on="1"/>
      </contour>
      <contour>
        <pt x="358" y="671" on="1"/>
        <pt x="250" y="671" on="1"/>
        <pt x="122" y="69" on="1"/>
        <pt x="257" y="69" on="1"/>
        <pt x="338" y="69" on="0"/>
        <pt x="465" y="133" on="0"/>
        <pt x="552" y="238" on="0"/>
        <pt x="597" y="364" on="0"/>
        <pt x="597" y="427" on="1"/>
        <pt x="597" y="492" on="0"/>
        <pt x="546" y="603" on="0"/>
        <pt x="441" y="671" on="0"/>
      </contour>
    </TTGlyph>
    <TTGlyph name="Dcaron" xMin="31" yMin="0" xMax="675" yMax="978">
      <contour>
        <pt x="380" y="816" on="1"/>
        <pt x="296" y="978" on="1"/>
        <pt x="362" y="978" on="1"/>
        <pt x="418" y="865" on="1"/>
        <pt x="522" y="978" on="1"/>
        <pt x="598" y="978" on="1"/>
        <pt x="446" y="816" on="1"/>
      </contour>
      <contour>
        <pt x="31" y="0" on="1"/>
        <pt x="188" y="740" on="1"/>
        <pt x="366" y="740" on="1"/>
        <pt x="446" y="740" on="0"/>
        <pt x="562" y="690" on="0"/>
        <pt x="638" y="603" on="0"/>
        <pt x="675" y="492" on="0"/>
        <pt x="675" y="431" on="1"/>
        <pt x="675" y="355" on="0"/>
        <pt x="620" y="202" on="0"/>
        <pt x="512" y="76" on="0"/>
        <pt x="355" y="0" on="0"/>
        <pt x="254" y="0" on="1"/>
      </contour>
      <contour>
        <pt x="358" y="671" on="1"/>
        <pt x="250" y="671" on="1"/>
        <pt x="122" y="69" on="1"/>
        <pt x="257" y="69" on="1"/>
        <pt x="338" y="69" on="0"/>
        <pt x="465" y="133" on="0"/>
        <pt x="552" y="238" on="0"/>
        <pt x="597" y="364" on="0"/>
        <pt x="597" y="427" on="1"/>
        <pt x="597" y="492" on="0"/>
        <pt x="546" y="603" on="0"/>
        <pt x="441" y="671" on="0"/>
      </contour>
    </TTGlyph>
    <TTGlyph name="Dcroat" xMin="44" yMin="0" xMax="724" yMax="740">
      <contour>
        <pt x="79" y="0" on="1"/>
        <pt x="150" y="337" on="1"/>
        <pt x="44" y="337" on="1"/>
        <pt x="58" y="405" on="1"/>
        <pt x="165" y="405" on="1"/>
        <pt x="236" y="740" on="1"/>
        <pt x="415" y="740" on="1"/>
        <pt x="494" y="740" on="0"/>
        <pt x="611" y="690" on="0"/>
        <pt x="687" y="603" on="0"/>
        <pt x="724" y="492" on="0"/>
        <pt x="724" y="431" on="1"/>
        <pt x="724" y="355" on="0"/>
        <pt x="668" y="202" on="0"/>
        <pt x="560" y="76" on="0"/>
        <pt x="404" y="0" on="0"/>
        <pt x="302" y="0" on="1"/>
      </contour>
      <contour>
        <pt x="381" y="337" on="1"/>
        <pt x="227" y="337" on="1"/>
        <pt x="171" y="69" on="1"/>
        <pt x="305" y="69" on="1"/>
        <pt x="386" y="69" on="0"/>
        <pt x="513" y="133" on="0"/>
        <pt x="600" y="238" on="0"/>
        <pt x="646" y="364" on="0"/>
        <pt x="646" y="427" on="1"/>
        <pt x="646" y="492" on="0"/>
        <pt x="595" y="603" on="0"/>
        <pt x="489" y="671" on="0"/>
        <pt x="407" y="671" on="1"/>
        <pt x="298" y="671" on="1"/>
        <pt x="242" y="405" on="1"/>
        <pt x="395" y="405" on="1"/>
      </contour>
    </TTGlyph>
    <TTGlyph name="E" xMin="31" yMin="0" xMax="626" yMax="740">
      <contour>
        <pt x="31" y="0" on="1"/>
        <pt x="188" y="740" on="1"/>
        <pt x="626" y="740" on="1"/>
        <pt x="612" y="671" on="1"/>
        <pt x="250" y="671" on="1"/>
        <pt x="195" y="412" on="1"/>
        <pt x="509" y="412" on="1"/>
        <pt x="495" y="343" on="1"/>
        <pt x="181" y="343" on="1"/>
        <pt x="122" y="69" on="1"/>
        <pt x="489" y="69" on="1"/>
        <pt x="474" y="0" on="1"/>
      </contour>
    </TTGlyph>
    <TTGlyph name="Eacute" xMin="31" yMin="0" xMax="626" yMax="994">
      <contour>
        <pt x="449" y="823" on="1"/>
        <pt x="387" y="823" on="1"/>
        <pt x="474" y="994" on="1"/>
        <pt x="549" y="994" on="1"/>
      </contour>
      <contour>
        <pt x="31" y="0" on="1"/>
        <pt x="188" y="740" on="1"/>
        <pt x="626" y="740" on="1"/>
        <pt x="612" y="671" on="1"/>
        <pt x="250" y="671" on="1"/>
        <pt x="195" y="412" on="1"/>
        <pt x="509" y="412" on="1"/>
        <pt x="495" y="343" on="1"/>
        <pt x="181" y="343" on="1"/>
        <pt x="122" y="69" on="1"/>
        <pt x="489" y="69" on="1"/>
        <pt x="474" y="0" on="1"/>
      </contour>
    </TTGlyph>
    <TTGlyph name="Ecaron" xMin="31" yMin="0" xMax="626" yMax="978">
      <contour>
        <pt x="375" y="816" on="1"/>
        <pt x="292" y="978" on="1"/>
        <pt x="357" y="978" on="1"/>
        <pt x="414" y="865" on="1"/>
        <pt x="518" y="978" on="1"/>
        <pt x="593" y="978" on="1"/>
        <pt x="442" y="816" on="1"/>
      </contour>
      <contour>
        <pt x="31" y="0" on="1"/>
        <pt x="188" y="740" on="1"/>
        <pt x="626" y="740" on="1"/>
        <pt x="612" y="671" on="1"/>
        <pt x="250" y="671" on="1"/>
        <pt x="195" y="412" on="1"/>
        <pt x="509" y="412" on="1"/>
        <pt x="495" y="343" on="1"/>
        <pt x="181" y="343" on="1"/>
        <pt x="122" y="69" on="1"/>
        <pt x="489" y="69" on="1"/>
        <pt x="474" y="0" on="1"/>
      </contour>
    </TTGlyph>
    <TTGlyph name="Ecircumflex" xMin="31" yMin="0" xMax="626" yMax="961">
      <contour>
        <pt x="257" y="817" on="1"/>
        <pt x="405" y="961" on="1"/>
        <pt x="471" y="961" on="1"/>
        <pt x="558" y="817" on="1"/>
        <pt x="493" y="817" on="1"/>
        <pt x="433" y="917" on="1"/>
        <pt x="333" y="817" on="1"/>
      </contour>
      <contour>
        <pt x="31" y="0" on="1"/>
        <pt x="188" y="740" on="1"/>
        <pt x="626" y="740" on="1"/>
        <pt x="612" y="671" on="1"/>
        <pt x="250" y="671" on="1"/>
        <pt x="195" y="412" on="1"/>
        <pt x="509" y="412" on="1"/>
        <pt x="495" y="343" on="1"/>
        <pt x="181" y="343" on="1"/>
        <pt x="122" y="69" on="1"/>
        <pt x="489" y="69" on="1"/>
        <pt x="474" y="0" on="1"/>
      </contour>
    </TTGlyph>
    <TTGlyph name="Edieresis" xMin="31" yMin="0" xMax="626" yMax="933">
      <contour>
        <pt x="513" y="827" on="1"/>
        <pt x="490" y="827" on="0"/>
        <pt x="460" y="859" on="0"/>
        <pt x="460" y="880" on="1"/>
        <pt x="460" y="902" on="0"/>
        <pt x="490" y="933" on="0"/>
        <pt x="513" y="933" on="1"/>
        <pt x="536" y="933" on="0"/>
        <pt x="566" y="902" on="0"/>
        <pt x="566" y="880" on="1"/>
        <pt x="566" y="858" on="0"/>
        <pt x="536" y="827" on="0"/>
      </contour>
      <contour>
        <pt x="340" y="827" on="1"/>
        <pt x="317" y="827" on="0"/>
        <pt x="287" y="859" on="0"/>
        <pt x="287" y="880" on="1"/>
        <pt x="287" y="902" on="0"/>
        <pt x="317" y="933" on="0"/>
        <pt x="340" y="933" on="1"/>
        <pt x="363" y="933" on="0"/>
        <pt x="393" y="902" on="0"/>
        <pt x="393" y="880" on="1"/>
        <pt x="393" y="858" on="0"/>
        <pt x="363" y="827" on="0"/>
      </contour>
      <contour>
        <pt x="31" y="0" on="1"/>
        <pt x="188" y="740" on="1"/>
        <pt x="626" y="740" on="1"/>
        <pt x="612" y="671" on="1"/>
        <pt x="250" y="671" on="1"/>
        <pt x="195" y="412" on="1"/>
        <pt x="509" y="412" on="1"/>
        <pt x="495" y="343" on="1"/>
        <pt x="181" y="343" on="1"/>
        <pt x="122" y="69" on="1"/>
        <pt x="489" y="69" on="1"/>
        <pt x="474" y="0" on="1"/>
      </contour>
    </TTGlyph>
    <TTGlyph name="Edotaccent" xMin="31" yMin="0" xMax="626" yMax="943">
      <contour>
        <pt x="429" y="837" on="1"/>
        <pt x="406" y="837" on="0"/>
        <pt x="377" y="869" on="0"/>
        <pt x="377" y="890" on="1"/>
        <pt x="377" y="912" on="0"/>
        <pt x="406" y="943" on="0"/>
        <pt x="429" y="943" on="1"/>
        <pt x="452" y="943" on="0"/>
        <pt x="483" y="912" on="0"/>
        <pt x="483" y="890" on="1"/>
        <pt x="483" y="868" on="0"/>
        <pt x="452" y="837" on="0"/>
      </contour>
      <contour>
        <pt x="31" y="0" on="1"/>
        <pt x="188" y="740" on="1"/>
        <pt x="626" y="740" on="1"/>
        <pt x="612" y="671" on="1"/>
        <pt x="250" y="671" on="1"/>
        <pt x="195" y="412" on="1"/>
        <pt x="509" y="412" on="1"/>
        <pt x="495" y="343" on="1"/>
        <pt x="181" y="343" on="1"/>
        <pt x="122" y="69" on="1"/>
        <pt x="489" y="69" on="1"/>
        <pt x="474" y="0" on="1"/>
      </contour>
    </TTGlyph>
    <TTGlyph name="Egrave" xMin="31" yMin="0" xMax="626" yMax="994">
      <contour>
        <pt x="376" y="823" on="1"/>
        <pt x="301" y="994" on="1"/>
        <pt x="375" y="994" on="1"/>
        <pt x="437" y="823" on="1"/>
      </contour>
      <contour>
        <pt x="31" y="0" on="1"/>
        <pt x="188" y="740" on="1"/>
        <pt x="626" y="740" on="1"/>
        <pt x="612" y="671" on="1"/>
        <pt x="250" y="671" on="1"/>
        <pt x="195" y="412" on="1"/>
        <pt x="509" y="412" on="1"/>
        <pt x="495" y="343" on="1"/>
        <pt x="181" y="343" on="1"/>
        <pt x="122" y="69" on="1"/>
        <pt x="489" y="69" on="1"/>
        <pt x="474" y="0" on="1"/>
      </contour>
    </TTGlyph>
    <TTGlyph name="Emacron" xMin="31" yMin="0" xMax="626" yMax="906">
      <contour>
        <pt x="272" y="848" on="1"/>
        <pt x="285" y="906" on="1"/>
        <pt x="581" y="906" on="1"/>
        <pt x="568" y="848" on="1"/>
      </contour>
      <contour>
        <pt x="31" y="0" on="1"/>
        <pt x="188" y="740" on="1"/>
        <pt x="626" y="740" on="1"/>
        <pt x="612" y="671" on="1"/>
        <pt x="250" y="671" on="1"/>
        <pt x="195" y="412" on="1"/>
        <pt x="509" y="412" on="1"/>
        <pt x="495" y="343" on="1"/>
        <pt x="181" y="343" on="1"/>
        <pt x="122" y="69" on="1"/>
        <pt x="489" y="69" on="1"/>
        <pt x="474" y="0" on="1"/>
      </contour>
    </TTGlyph>
    <TTGlyph name="Eogonek" xMin="31" yMin="-161" xMax="626" yMax="740">
      <contour>
        <pt x="31" y="0" on="1"/>
        <pt x="188" y="740" on="1"/>
        <pt x="626" y="740" on="1"/>
        <pt x="612" y="671" on="1"/>
        <pt x="250" y="671" on="1"/>
        <pt x="195" y="412" on="1"/>
        <pt x="509" y="412" on="1"/>
        <pt x="495" y="343" on="1"/>
        <pt x="181" y="343" on="1"/>
        <pt x="122" y="69" on="1"/>
        <pt x="489" y="69" on="1"/>
        <pt x="474" y="0" on="1"/>
        <pt x="474" y="0" on="0"/>
        <pt x="453" y="-9" on="0"/>
        <pt x="424" y="-28" on="0"/>
        <pt x="403" y="-56" on="0"/>
        <pt x="403" y="-75" on="1"/>
        <pt x="403" y="-112" on="0"/>
        <pt x="454" y="-112" on="1"/>
        <pt x="468" y="-112" on="0"/>
        <pt x="492" y="-107" on="0"/>
        <pt x="492" y="-107" on="1"/>
        <pt x="482" y="-155" on="1"/>
        <pt x="482" y="-155" on="0"/>
        <pt x="457" y="-161" on="0"/>
        <pt x="437" y="-161" on="1"/>
        <pt x="393" y="-161" on="0"/>
        <pt x="343" y="-121" on="0"/>
        <pt x="343" y="-88" on="1"/>
        <pt x="343" y="-55" on="0"/>
        <pt x="385" y="-12" on="0"/>
        <pt x="406" y="0" on="1"/>
      </contour>
    </TTGlyph>
    <TTGlyph name="Eth" xMin="44" yMin="0" xMax="724" yMax="740">
      <contour>
        <pt x="79" y="0" on="1"/>
        <pt x="150" y="337" on="1"/>
        <pt x="44" y="337" on="1"/>
        <pt x="58" y="405" on="1"/>
        <pt x="165" y="405" on="1"/>
        <pt x="236" y="740" on="1"/>
        <pt x="415" y="740" on="1"/>
        <pt x="494" y="740" on="0"/>
        <pt x="611" y="690" on="0"/>
        <pt x="687" y="603" on="0"/>
        <pt x="724" y="492" on="0"/>
        <pt x="724" y="431" on="1"/>
        <pt x="724" y="355" on="0"/>
        <pt x="668" y="202" on="0"/>
        <pt x="560" y="76" on="0"/>
        <pt x="404" y="0" on="0"/>
        <pt x="302" y="0" on="1"/>
      </contour>
      <contour>
        <pt x="381" y="337" on="1"/>
        <pt x="227" y="337" on="1"/>
        <pt x="171" y="69" on="1"/>
        <pt x="305" y="69" on="1"/>
        <pt x="386" y="69" on="0"/>
        <pt x="513" y="133" on="0"/>
        <pt x="600" y="238" on="0"/>
        <pt x="646" y="364" on="0"/>
        <pt x="646" y="427" on="1"/>
        <pt x="646" y="492" on="0"/>
        <pt x="595" y="603" on="0"/>
        <pt x="489" y="671" on="0"/>
        <pt x="407" y="671" on="1"/>
        <pt x="298" y="671" on="1"/>
        <pt x="242" y="405" on="1"/>
        <pt x="395" y="405" on="1"/>
      </contour>
    </TTGlyph>
    <TTGlyph name="Euro" xMin="36" yMin="-10" xMax="751" yMax="750">
      <contour>
        <pt x="36" y="276" on="1"/>
        <pt x="48" y="334" on="1"/>
        <pt x="165" y="334" on="1"/>
        <pt x="166" y="374" on="0"/>
        <pt x="173" y="413" on="1"/>
        <pt x="65" y="413" on="1"/>
        <pt x="77" y="471" on="1"/>
        <pt x="188" y="471" on="1"/>
        <pt x="213" y="547" on="0"/>
        <pt x="317" y="674" on="0"/>
        <pt x="472" y="750" on="0"/>
        <pt x="575" y="750" on="1"/>
        <pt x="623" y="750" on="0"/>
        <pt x="703" y="737" on="0"/>
        <pt x="751" y="724" on="0"/>
        <pt x="751" y="724" on="1"/>
        <pt x="735" y="655" on="1"/>
        <pt x="735" y="655" on="0"/>
        <pt x="689" y="668" on="0"/>
        <pt x="615" y="680" on="0"/>
        <pt x="575" y="680" on="1"/>
        <pt x="495" y="680" on="0"/>
        <pt x="374" y="624" on="0"/>
        <pt x="290" y="529" on="0"/>
        <pt x="268" y="471" on="1"/>
        <pt x="545" y="471" on="1"/>
        <pt x="533" y="413" on="1"/>
        <pt x="251" y="413" on="1"/>
        <pt x="243" y="375" on="0"/>
        <pt x="243" y="336" on="1"/>
        <pt x="243" y="334" on="1"/>
        <pt x="515" y="334" on="1"/>
        <pt x="503" y="276" on="1"/>
        <pt x="248" y="276" on="1"/>
        <pt x="258" y="217" on="0"/>
        <pt x="321" y="118" on="0"/>
        <pt x="427" y="59" on="0"/>
        <pt x="501" y="59" on="1"/>
        <pt x="545" y="59" on="0"/>
        <pt x="625" y="76" on="0"/>
        <pt x="676" y="92" on="0"/>
        <pt x="676" y="92" on="1"/>
        <pt x="660" y="20" on="1"/>
        <pt x="660" y="20" on="0"/>
        <pt x="618" y="5" on="0"/>
        <pt x="543" y="-10" on="0"/>
        <pt x="494" y="-10" on="1"/>
        <pt x="395" y="-10" on="0"/>
        <pt x="257" y="69" on="0"/>
        <pt x="179" y="199" on="0"/>
        <pt x="169" y="276" on="1"/>
      </contour>
    </TTGlyph>
    <TTGlyph name="F" xMin="31" yMin="0" xMax="634" yMax="740">
      <contour>
        <pt x="31" y="0" on="1"/>
        <pt x="188" y="740" on="1"/>
        <pt x="634" y="740" on="1"/>
        <pt x="620" y="671" on="1"/>
        <pt x="250" y="671" on="1"/>
        <pt x="193" y="402" on="1"/>
        <pt x="516" y="402" on="1"/>
        <pt x="501" y="333" on="1"/>
        <pt x="178" y="333" on="1"/>
        <pt x="108" y="0" on="1"/>
      </contour>
    </TTGlyph>
    <TTGlyph name="G" xMin="62" yMin="-10" xMax="723" yMax="750">
      <contour>
        <pt x="363" y="-10" on="1"/>
        <pt x="286" y="-10" on="0"/>
        <pt x="172" y="42" on="0"/>
        <pt x="98" y="133" on="0"/>
        <pt x="62" y="250" on="0"/>
        <pt x="62" y="315" on="1"/>
        <pt x="62" y="392" on="0"/>
        <pt x="112" y="546" on="0"/>
        <pt x="212" y="673" on="0"/>
        <pt x="360" y="750" on="0"/>
        <pt x="457" y="750" on="1"/>
        <pt x="525" y="750" on="0"/>
        <pt x="618" y="714" on="0"/>
        <pt x="677" y="656" on="0"/>
        <pt x="708" y="591" on="0"/>
        <pt x="721" y="534" on="0"/>
        <pt x="723" y="497" on="0"/>
        <pt x="723" y="497" on="1"/>
        <pt x="646" y="497" on="1"/>
        <pt x="646" y="497" on="0"/>
        <pt x="643" y="534" on="0"/>
        <pt x="627" y="589" on="0"/>
        <pt x="587" y="643" on="0"/>
        <pt x="512" y="680" on="0"/>
        <pt x="452" y="680" on="1"/>
        <pt x="376" y="680" on="0"/>
        <pt x="259" y="616" on="0"/>
        <pt x="180" y="511" on="0"/>
        <pt x="140" y="383" on="0"/>
        <pt x="140" y="320" on="1"/>
        <pt x="140" y="251" on="0"/>
        <pt x="188" y="133" on="0"/>
        <pt x="290" y="61" on="0"/>
        <pt x="368" y="61" on="1"/>
        <pt x="443" y="61" on="0"/>
        <pt x="551" y="130" on="0"/>
        <pt x="617" y="246" on="0"/>
        <pt x="628" y="314" on="1"/>
        <pt x="408" y="314" on="1"/>
        <pt x="422" y="377" on="1"/>
        <pt x="714" y="377" on="1"/>
        <pt x="707" y="325" on="1"/>
        <pt x="694" y="233" on="0"/>
        <pt x="607" y="81" on="0"/>
        <pt x="463" y="-10" on="0"/>
      </contour>
    </TTGlyph>
    <TTGlyph name="Gbreve" xMin="62" yMin="-10" xMax="723" yMax="962">
      <contour>
        <pt x="493" y="818" on="1"/>
        <pt x="448" y="818" on="0"/>
        <pt x="395" y="847" on="0"/>
        <pt x="368" y="890" on="0"/>
        <pt x="361" y="933" on="0"/>
        <pt x="362" y="962" on="0"/>
        <pt x="362" y="962" on="1"/>
        <pt x="420" y="962" on="1"/>
        <pt x="420" y="962" on="0"/>
        <pt x="418" y="935" on="0"/>
        <pt x="427" y="898" on="0"/>
        <pt x="459" y="870" on="0"/>
        <pt x="493" y="870" on="1"/>
        <pt x="528" y="870" on="0"/>
        <pt x="572" y="898" on="0"/>
        <pt x="597" y="935" on="0"/>
        <pt x="606" y="962" on="0"/>
        <pt x="606" y="962" on="1"/>
        <pt x="664" y="962" on="1"/>
        <pt x="664" y="962" on="0"/>
        <pt x="657" y="933" on="0"/>
        <pt x="638" y="890" on="0"/>
        <pt x="600" y="847" on="0"/>
        <pt x="539" y="818" on="0"/>
      </contour>
      <contour>
        <pt x="363" y="-10" on="1"/>
        <pt x="286" y="-10" on="0"/>
        <pt x="172" y="42" on="0"/>
        <pt x="98" y="133" on="0"/>
        <pt x="62" y="250" on="0"/>
        <pt x="62" y="315" on="1"/>
        <pt x="62" y="392" on="0"/>
        <pt x="112" y="546" on="0"/>
        <pt x="212" y="673" on="0"/>
        <pt x="360" y="750" on="0"/>
        <pt x="457" y="750" on="1"/>
        <pt x="525" y="750" on="0"/>
        <pt x="618" y="714" on="0"/>
        <pt x="677" y="656" on="0"/>
        <pt x="708" y="591" on="0"/>
        <pt x="721" y="534" on="0"/>
        <pt x="723" y="497" on="0"/>
        <pt x="723" y="497" on="1"/>
        <pt x="646" y="497" on="1"/>
        <pt x="646" y="497" on="0"/>
        <pt x="643" y="534" on="0"/>
        <pt x="627" y="589" on="0"/>
        <pt x="587" y="643" on="0"/>
        <pt x="512" y="680" on="0"/>
        <pt x="452" y="680" on="1"/>
        <pt x="376" y="680" on="0"/>
        <pt x="259" y="616" on="0"/>
        <pt x="180" y="511" on="0"/>
        <pt x="140" y="383" on="0"/>
        <pt x="140" y="320" on="1"/>
        <pt x="140" y="251" on="0"/>
        <pt x="188" y="133" on="0"/>
        <pt x="290" y="61" on="0"/>
        <pt x="368" y="61" on="1"/>
        <pt x="443" y="61" on="0"/>
        <pt x="551" y="130" on="0"/>
        <pt x="617" y="246" on="0"/>
        <pt x="628" y="314" on="1"/>
        <pt x="408" y="314" on="1"/>
        <pt x="422" y="377" on="1"/>
        <pt x="714" y="377" on="1"/>
        <pt x="707" y="325" on="1"/>
        <pt x="694" y="233" on="0"/>
        <pt x="607" y="81" on="0"/>
        <pt x="463" y="-10" on="0"/>
      </contour>
    </TTGlyph>
    <TTGlyph name="Gcaron" xMin="62" yMin="-10" xMax="723" yMax="978">
      <contour>
        <pt x="444" y="816" on="1"/>
        <pt x="360" y="978" on="1"/>
        <pt x="426" y="978" on="1"/>
        <pt x="482" y="865" on="1"/>
        <pt x="586" y="978" on="1"/>
        <pt x="662" y="978" on="1"/>
        <pt x="510" y="816" on="1"/>
      </contour>
      <contour>
        <pt x="363" y="-10" on="1"/>
        <pt x="286" y="-10" on="0"/>
        <pt x="172" y="42" on="0"/>
        <pt x="98" y="133" on="0"/>
        <pt x="62" y="250" on="0"/>
        <pt x="62" y="315" on="1"/>
        <pt x="62" y="392" on="0"/>
        <pt x="112" y="546" on="0"/>
        <pt x="212" y="673" on="0"/>
        <pt x="360" y="750" on="0"/>
        <pt x="457" y="750" on="1"/>
        <pt x="525" y="750" on="0"/>
        <pt x="618" y="714" on="0"/>
        <pt x="677" y="656" on="0"/>
        <pt x="708" y="591" on="0"/>
        <pt x="721" y="534" on="0"/>
        <pt x="723" y="497" on="0"/>
        <pt x="723" y="497" on="1"/>
        <pt x="646" y="497" on="1"/>
        <pt x="646" y="497" on="0"/>
        <pt x="643" y="534" on="0"/>
        <pt x="627" y="589" on="0"/>
        <pt x="587" y="643" on="0"/>
        <pt x="512" y="680" on="0"/>
        <pt x="452" y="680" on="1"/>
        <pt x="376" y="680" on="0"/>
        <pt x="259" y="616" on="0"/>
        <pt x="180" y="511" on="0"/>
        <pt x="140" y="383" on="0"/>
        <pt x="140" y="320" on="1"/>
        <pt x="140" y="251" on="0"/>
        <pt x="188" y="133" on="0"/>
        <pt x="290" y="61" on="0"/>
        <pt x="368" y="61" on="1"/>
        <pt x="443" y="61" on="0"/>
        <pt x="551" y="130" on="0"/>
        <pt x="617" y="246" on="0"/>
        <pt x="628" y="314" on="1"/>
        <pt x="408" y="314" on="1"/>
        <pt x="422" y="377" on="1"/>
        <pt x="714" y="377" on="1"/>
        <pt x="707" y="325" on="1"/>
        <pt x="694" y="233" on="0"/>
        <pt x="607" y="81" on="0"/>
        <pt x="463" y="-10" on="0"/>
      </contour>
    </TTGlyph>
    <TTGlyph name="Gdotaccent" xMin="62" yMin="-10" xMax="723" yMax="943">
      <contour>
        <pt x="498" y="837" on="1"/>
        <pt x="475" y="837" on="0"/>
        <pt x="445" y="869" on="0"/>
        <pt x="445" y="890" on="1"/>
        <pt x="445" y="912" on="0"/>
        <pt x="475" y="943" on="0"/>
        <pt x="498" y="943" on="1"/>
        <pt x="521" y="943" on="0"/>
        <pt x="551" y="912" on="0"/>
        <pt x="551" y="890" on="1"/>
        <pt x="551" y="868" on="0"/>
        <pt x="521" y="837" on="0"/>
      </contour>
      <contour>
        <pt x="363" y="-10" on="1"/>
        <pt x="286" y="-10" on="0"/>
        <pt x="172" y="42" on="0"/>
        <pt x="98" y="133" on="0"/>
        <pt x="62" y="250" on="0"/>
        <pt x="62" y="315" on="1"/>
        <pt x="62" y="392" on="0"/>
        <pt x="112" y="546" on="0"/>
        <pt x="212" y="673" on="0"/>
        <pt x="360" y="750" on="0"/>
        <pt x="457" y="750" on="1"/>
        <pt x="525" y="750" on="0"/>
        <pt x="618" y="714" on="0"/>
        <pt x="677" y="656" on="0"/>
        <pt x="708" y="591" on="0"/>
        <pt x="721" y="534" on="0"/>
        <pt x="723" y="497" on="0"/>
        <pt x="723" y="497" on="1"/>
        <pt x="646" y="497" on="1"/>
        <pt x="646" y="497" on="0"/>
        <pt x="643" y="534" on="0"/>
        <pt x="627" y="589" on="0"/>
        <pt x="587" y="643" on="0"/>
        <pt x="512" y="680" on="0"/>
        <pt x="452" y="680" on="1"/>
        <pt x="376" y="680" on="0"/>
        <pt x="259" y="616" on="0"/>
        <pt x="180" y="511" on="0"/>
        <pt x="140" y="383" on="0"/>
        <pt x="140" y="320" on="1"/>
        <pt x="140" y="251" on="0"/>
        <pt x="188" y="133" on="0"/>
        <pt x="290" y="61" on="0"/>
        <pt x="368" y="61" on="1"/>
        <pt x="443" y="61" on="0"/>
        <pt x="551" y="130" on="0"/>
        <pt x="617" y="246" on="0"/>
        <pt x="628" y="314" on="1"/>
        <pt x="408" y="314" on="1"/>
        <pt x="422" y="377" on="1"/>
        <pt x="714" y="377" on="1"/>
        <pt x="707" y="325" on="1"/>
        <pt x="694" y="233" on="0"/>
        <pt x="607" y="81" on="0"/>
        <pt x="463" y="-10" on="0"/>
      </contour>
    </TTGlyph>
    <TTGlyph name="H" xMin="31" yMin="0" xMax="706" yMax="740">
      <contour>
        <pt x="31" y="0" on="1"/>
        <pt x="188" y="740" on="1"/>
        <pt x="265" y="740" on="1"/>
        <pt x="196" y="415" on="1"/>
        <pt x="560" y="415" on="1"/>
        <pt x="629" y="740" on="1"/>
        <pt x="706" y="740" on="1"/>
        <pt x="549" y="0" on="1"/>
        <pt x="472" y="0" on="1"/>
        <pt x="545" y="345" on="1"/>
        <pt x="181" y="345" on="1"/>
        <pt x="108" y="0" on="1"/>
      </contour>
    </TTGlyph>
    <TTGlyph name="Hbar" xMin="67" yMin="0" xMax="823" yMax="740">
      <contour>
        <pt x="67" y="0" on="1"/>
        <pt x="193" y="593" on="1"/>
        <pt x="107" y="593" on="1"/>
        <pt x="121" y="663" on="1"/>
        <pt x="208" y="663" on="1"/>
        <pt x="224" y="740" on="1"/>
        <pt x="301" y="740" on="1"/>
        <pt x="285" y="663" on="1"/>
        <pt x="649" y="663" on="1"/>
        <pt x="665" y="740" on="1"/>
        <pt x="742" y="740" on="1"/>
        <pt x="726" y="663" on="1"/>
        <pt x="823" y="663" on="1"/>
        <pt x="809" y="593" on="1"/>
        <pt x="711" y="593" on="1"/>
        <pt x="585" y="0" on="1"/>
        <pt x="508" y="0" on="1"/>
        <pt x="582" y="345" on="1"/>
        <pt x="218" y="345" on="1"/>
        <pt x="144" y="0" on="1"/>
      </contour>
      <contour>
        <pt x="232" y="415" on="1"/>
        <pt x="596" y="415" on="1"/>
        <pt x="634" y="593" on="1"/>
        <pt x="270" y="593" on="1"/>
      </contour>
    </TTGlyph>
    <TTGlyph name="I" xMin="31" yMin="0" xMax="265" yMax="740">
      <contour>
        <pt x="31" y="0" on="1"/>
        <pt x="188" y="740" on="1"/>
        <pt x="265" y="740" on="1"/>
        <pt x="108" y="0" on="1"/>
      </contour>
    </TTGlyph>
    <TTGlyph name="Iacute" xMin="31" yMin="0" xMax="373" yMax="967">
      <contour>
        <pt x="273" y="796" on="1"/>
        <pt x="211" y="797" on="1"/>
        <pt x="297" y="967" on="1"/>
        <pt x="373" y="967" on="1"/>
      </contour>
      <contour>
        <pt x="31" y="0" on="1"/>
        <pt x="188" y="740" on="1"/>
        <pt x="265" y="740" on="1"/>
        <pt x="108" y="0" on="1"/>
      </contour>
    </TTGlyph>
    <TTGlyph name="Icircumflex" xMin="31" yMin="0" xMax="389" yMax="952">
      <contour>
        <pt x="87" y="790" on="1"/>
        <pt x="239" y="952" on="1"/>
        <pt x="305" y="952" on="1"/>
        <pt x="389" y="790" on="1"/>
        <pt x="323" y="790" on="1"/>
        <pt x="267" y="903" on="1"/>
        <pt x="163" y="790" on="1"/>
      </contour>
      <contour>
        <pt x="31" y="0" on="1"/>
        <pt x="188" y="740" on="1"/>
        <pt x="265" y="740" on="1"/>
        <pt x="108" y="0" on="1"/>
      </contour>
    </TTGlyph>
    <TTGlyph name="Idieresis" xMin="31" yMin="0" xMax="390" yMax="907">
      <contour>
        <pt x="337" y="800" on="1"/>
        <pt x="314" y="800" on="0"/>
        <pt x="284" y="832" on="0"/>
        <pt x="284" y="854" on="1"/>
        <pt x="284" y="875" on="0"/>
        <pt x="314" y="907" on="0"/>
        <pt x="337" y="907" on="1"/>
        <pt x="359" y="907" on="0"/>
        <pt x="390" y="875" on="0"/>
        <pt x="390" y="854" on="1"/>
        <pt x="390" y="832" on="0"/>
        <pt x="359" y="800" on="0"/>
      </contour>
      <contour>
        <pt x="164" y="800" on="1"/>
        <pt x="141" y="800" on="0"/>
        <pt x="111" y="832" on="0"/>
        <pt x="111" y="854" on="1"/>
        <pt x="111" y="875" on="0"/>
        <pt x="141" y="907" on="0"/>
        <pt x="164" y="907" on="1"/>
        <pt x="186" y="907" on="0"/>
        <pt x="217" y="875" on="0"/>
        <pt x="217" y="854" on="1"/>
        <pt x="217" y="832" on="0"/>
        <pt x="186" y="800" on="0"/>
      </contour>
      <contour>
        <pt x="31" y="0" on="1"/>
        <pt x="188" y="740" on="1"/>
        <pt x="265" y="740" on="1"/>
        <pt x="108" y="0" on="1"/>
      </contour>
    </TTGlyph>
    <TTGlyph name="Idotaccent" xMin="31" yMin="0" xMax="306" yMax="917">
      <contour>
        <pt x="253" y="810" on="1"/>
        <pt x="230" y="810" on="0"/>
        <pt x="200" y="842" on="0"/>
        <pt x="200" y="864" on="1"/>
        <pt x="200" y="885" on="0"/>
        <pt x="230" y="917" on="0"/>
        <pt x="253" y="917" on="1"/>
        <pt x="276" y="917" on="0"/>
        <pt x="306" y="885" on="0"/>
        <pt x="306" y="864" on="1"/>
        <pt x="306" y="842" on="0"/>
        <pt x="276" y="810" on="0"/>
      </contour>
      <contour>
        <pt x="31" y="0" on="1"/>
        <pt x="188" y="740" on="1"/>
        <pt x="265" y="740" on="1"/>
        <pt x="108" y="0" on="1"/>
      </contour>
    </TTGlyph>
    <TTGlyph name="Igrave" xMin="31" yMin="0" xMax="265" yMax="967">
      <contour>
        <pt x="200" y="796" on="1"/>
        <pt x="125" y="967" on="1"/>
        <pt x="199" y="967" on="1"/>
        <pt x="260" y="797" on="1"/>
      </contour>
      <contour>
        <pt x="31" y="0" on="1"/>
        <pt x="188" y="740" on="1"/>
        <pt x="265" y="740" on="1"/>
        <pt x="108" y="0" on="1"/>
      </contour>
    </TTGlyph>
    <TTGlyph name="Imacron" xMin="31" yMin="0" xMax="404" yMax="880">
      <contour>
        <pt x="96" y="822" on="1"/>
        <pt x="108" y="880" on="1"/>
        <pt x="404" y="880" on="1"/>
        <pt x="392" y="822" on="1"/>
      </contour>
      <contour>
        <pt x="31" y="0" on="1"/>
        <pt x="188" y="740" on="1"/>
        <pt x="265" y="740" on="1"/>
        <pt x="108" y="0" on="1"/>
      </contour>
    </TTGlyph>
    <TTGlyph name="Iogonek" xMin="-23" yMin="-161" xMax="265" yMax="740">
      <contour>
        <pt x="31" y="0" on="1"/>
        <pt x="188" y="740" on="1"/>
        <pt x="265" y="740" on="1"/>
        <pt x="108" y="0" on="1"/>
        <pt x="108" y="0" on="0"/>
        <pt x="86" y="-9" on="0"/>
        <pt x="58" y="-28" on="0"/>
        <pt x="36" y="-56" on="0"/>
        <pt x="36" y="-75" on="1"/>
        <pt x="36" y="-112" on="0"/>
        <pt x="87" y="-112" on="1"/>
        <pt x="101" y="-112" on="0"/>
        <pt x="125" y="-107" on="0"/>
        <pt x="125" y="-107" on="1"/>
        <pt x="115" y="-155" on="1"/>
        <pt x="115" y="-155" on="0"/>
        <pt x="90" y="-161" on="0"/>
        <pt x="70" y="-161" on="1"/>
        <pt x="26" y="-161" on="0"/>
        <pt x="-23" y="-121" on="0"/>
        <pt x="-23" y="-88" on="1"/>
        <pt x="-23" y="-55" on="0"/>
        <pt x="18" y="-12" on="0"/>
        <pt x="40" y="0" on="1"/>
      </contour>
    </TTGlyph>
    <TTGlyph name="Itilde" xMin="31" yMin="0" xMax="410" yMax="929">
      <contour>
        <pt x="314" y="801" on="1"/>
        <pt x="289" y="801" on="0"/>
        <pt x="256" y="823" on="0"/>
        <pt x="232" y="853" on="0"/>
        <pt x="209" y="875" on="0"/>
        <pt x="194" y="875" on="1"/>
        <pt x="177" y="875" on="0"/>
        <pt x="155" y="838" on="0"/>
        <pt x="150" y="807" on="1"/>
        <pt x="98" y="807" on="1"/>
        <pt x="109" y="861" on="0"/>
        <pt x="153" y="929" on="0"/>
        <pt x="196" y="929" on="1"/>
        <pt x="222" y="929" on="0"/>
        <pt x="255" y="907" on="0"/>
        <pt x="279" y="878" on="0"/>
        <pt x="301" y="856" on="0"/>
        <pt x="316" y="856" on="1"/>
        <pt x="347" y="856" on="0"/>
        <pt x="359" y="924" on="1"/>
        <pt x="410" y="924" on="1"/>
        <pt x="400" y="870" on="0"/>
        <pt x="356" y="801" on="0"/>
      </contour>
      <contour>
        <pt x="31" y="0" on="1"/>
        <pt x="188" y="740" on="1"/>
        <pt x="265" y="740" on="1"/>
        <pt x="108" y="0" on="1"/>
      </contour>
    </TTGlyph>
    <TTGlyph name="J" xMin="-6" yMin="-10" xMax="480" yMax="740">
      <contour>
        <pt x="82" y="-10" on="1"/>
        <pt x="47" y="-10" on="0"/>
        <pt x="-6" y="0" on="0"/>
        <pt x="-6" y="0" on="1"/>
        <pt x="9" y="69" on="1"/>
        <pt x="9" y="69" on="0"/>
        <pt x="61" y="60" on="0"/>
        <pt x="89" y="60" on="1"/>
        <pt x="177" y="60" on="0"/>
        <pt x="279" y="158" on="0"/>
        <pt x="295" y="234" on="1"/>
        <pt x="403" y="740" on="1"/>
        <pt x="480" y="740" on="1"/>
        <pt x="372" y="234" on="1"/>
        <pt x="348" y="121" on="0"/>
        <pt x="206" y="-10" on="0"/>
      </contour>
    </TTGlyph>
    <TTGlyph name="K" xMin="31" yMin="0" xMax="690" yMax="740">
      <contour>
        <pt x="31" y="0" on="1"/>
        <pt x="188" y="740" on="1"/>
        <pt x="265" y="740" on="1"/>
        <pt x="195" y="412" on="1"/>
        <pt x="582" y="739" on="1"/>
        <pt x="690" y="739" on="1"/>
        <pt x="254" y="374" on="1"/>
        <pt x="551" y="0" on="1"/>
        <pt x="458" y="0" on="1"/>
        <pt x="182" y="350" on="1"/>
        <pt x="108" y="0" on="1"/>
      </contour>
    </TTGlyph>
    <TTGlyph name="L" xMin="31" yMin="0" xMax="491" yMax="740">
      <contour>
        <pt x="31" y="0" on="1"/>
        <pt x="188" y="740" on="1"/>
        <pt x="265" y="740" on="1"/>
        <pt x="122" y="69" on="1"/>
        <pt x="491" y="69" on="1"/>
        <pt x="477" y="0" on="1"/>
      </contour>
    </TTGlyph>
    <TTGlyph name="Lacute" xMin="31" yMin="0" xMax="491" yMax="994">
      <contour>
        <pt x="280" y="823" on="1"/>
        <pt x="218" y="823" on="1"/>
        <pt x="304" y="994" on="1"/>
        <pt x="380" y="994" on="1"/>
      </contour>
      <contour>
        <pt x="31" y="0" on="1"/>
        <pt x="188" y="740" on="1"/>
        <pt x="265" y="740" on="1"/>
        <pt x="122" y="69" on="1"/>
        <pt x="491" y="69" on="1"/>
        <pt x="477" y="0" on="1"/>
      </contour>
    </TTGlyph>
    <TTGlyph name="Lcaron" xMin="31" yMin="0" xMax="491" yMax="978">
      <contour>
        <pt x="206" y="816" on="1"/>
        <pt x="122" y="978" on="1"/>
        <pt x="187" y="978" on="1"/>
        <pt x="244" y="865" on="1"/>
        <pt x="348" y="978" on="1"/>
        <pt x="424" y="978" on="1"/>
        <pt x="272" y="816" on="1"/>
      </contour>
      <contour>
        <pt x="31" y="0" on="1"/>
        <pt x="188" y="740" on="1"/>
        <pt x="265" y="740" on="1"/>
        <pt x="122" y="69" on="1"/>
        <pt x="491" y="69" on="1"/>
        <pt x="477" y="0" on="1"/>
      </contour>
    </TTGlyph>
    <TTGlyph name="Lslash" xMin="25" yMin="0" xMax="539" yMax="740">
      <contour>
        <pt x="78" y="0" on="1"/>
        <pt x="149" y="334" on="1"/>
        <pt x="25" y="295" on="1"/>
        <pt x="39" y="365" on="1"/>
        <pt x="164" y="405" on="1"/>
        <pt x="235" y="740" on="1"/>
        <pt x="312" y="740" on="1"/>
        <pt x="246" y="431" on="1"/>
        <pt x="399" y="480" on="1"/>
        <pt x="385" y="410" on="1"/>
        <pt x="232" y="361" on="1"/>
        <pt x="170" y="69" on="1"/>
        <pt x="539" y="69" on="1"/>
        <pt x="524" y="0" on="1"/>
      </contour>
    </TTGlyph>
    <TTGlyph name="M" xMin="31" yMin="0" xMax="873" yMax="740">
      <contour>
        <pt x="31" y="0" on="1"/>
        <pt x="188" y="740" on="1"/>
        <pt x="289" y="740" on="1"/>
        <pt x="431" y="278" on="1"/>
        <pt x="769" y="740" on="1"/>
        <pt x="873" y="740" on="1"/>
        <pt x="716" y="0" on="1"/>
        <pt x="639" y="0" on="1"/>
        <pt x="770" y="618" on="1"/>
        <pt x="454" y="190" on="1"/>
        <pt x="381" y="190" on="1"/>
        <pt x="243" y="635" on="1"/>
        <pt x="108" y="0" on="1"/>
      </contour>
    </TTGlyph>
    <TTGlyph name="N" xMin="31" yMin="0" xMax="748" yMax="740">
      <contour>
        <pt x="31" y="0" on="1"/>
        <pt x="188" y="740" on="1"/>
        <pt x="258" y="740" on="1"/>
        <pt x="543" y="136" on="1"/>
        <pt x="671" y="740" on="1"/>
        <pt x="748" y="740" on="1"/>
        <pt x="591" y="0" on="1"/>
        <pt x="520" y="0" on="1"/>
        <pt x="236" y="603" on="1"/>
        <pt x="108" y="0" on="1"/>
      </contour>
    </TTGlyph>
    <TTGlyph name="Nacute" xMin="31" yMin="0" xMax="748" yMax="994">
      <contour>
        <pt x="522" y="823" on="1"/>
        <pt x="460" y="823" on="1"/>
        <pt x="547" y="994" on="1"/>
        <pt x="622" y="994" on="1"/>
      </contour>
      <contour>
        <pt x="31" y="0" on="1"/>
        <pt x="188" y="740" on="1"/>
        <pt x="258" y="740" on="1"/>
        <pt x="543" y="136" on="1"/>
        <pt x="671" y="740" on="1"/>
        <pt x="748" y="740" on="1"/>
        <pt x="591" y="0" on="1"/>
        <pt x="520" y="0" on="1"/>
        <pt x="236" y="603" on="1"/>
        <pt x="108" y="0" on="1"/>
      </contour>
    </TTGlyph>
    <TTGlyph name="Ncaron" xMin="31" yMin="0" xMax="748" yMax="978">
      <contour>
        <pt x="448" y="816" on="1"/>
        <pt x="365" y="978" on="1"/>
        <pt x="430" y="978" on="1"/>
        <pt x="487" y="865" on="1"/>
        <pt x="591" y="978" on="1"/>
        <pt x="666" y="978" on="1"/>
        <pt x="515" y="816" on="1"/>
      </contour>
      <contour>
        <pt x="31" y="0" on="1"/>
        <pt x="188" y="740" on="1"/>
        <pt x="258" y="740" on="1"/>
        <pt x="543" y="136" on="1"/>
        <pt x="671" y="740" on="1"/>
        <pt x="748" y="740" on="1"/>
        <pt x="591" y="0" on="1"/>
        <pt x="520" y="0" on="1"/>
        <pt x="236" y="603" on="1"/>
        <pt x="108" y="0" on="1"/>
      </contour>
    </TTGlyph>
    <TTGlyph name="Ntilde" xMin="31" yMin="0" xMax="748" yMax="956">
      <contour>
        <pt x="563" y="828" on="1"/>
        <pt x="539" y="828" on="0"/>
        <pt x="506" y="850" on="0"/>
        <pt x="481" y="880" on="0"/>
        <pt x="458" y="902" on="0"/>
        <pt x="444" y="902" on="1"/>
        <pt x="427" y="902" on="0"/>
        <pt x="405" y="865" on="0"/>
        <pt x="399" y="833" on="1"/>
        <pt x="348" y="833" on="1"/>
        <pt x="358" y="888" on="0"/>
        <pt x="403" y="956" on="0"/>
        <pt x="445" y="956" on="1"/>
        <pt x="471" y="956" on="0"/>
        <pt x="504" y="934" on="0"/>
        <pt x="528" y="905" on="0"/>
        <pt x="551" y="883" on="0"/>
        <pt x="565" y="883" on="1"/>
        <pt x="597" y="883" on="0"/>
        <pt x="608" y="951" on="1"/>
        <pt x="660" y="951" on="1"/>
        <pt x="649" y="897" on="0"/>
        <pt x="605" y="828" on="0"/>
      </contour>
      <contour>
        <pt x="31" y="0" on="1"/>
        <pt x="188" y="740" on="1"/>
        <pt x="258" y="740" on="1"/>
        <pt x="543" y="136" on="1"/>
        <pt x="671" y="740" on="1"/>
        <pt x="748" y="740" on="1"/>
        <pt x="591" y="0" on="1"/>
        <pt x="520" y="0" on="1"/>
        <pt x="236" y="603" on="1"/>
        <pt x="108" y="0" on="1"/>
      </contour>
    </TTGlyph>
    <TTGlyph name="O" xMin="61" yMin="-10" xMax="754" yMax="750">
      <contour>
        <pt x="361" y="-10" on="1"/>
        <pt x="284" y="-10" on="0"/>
        <pt x="171" y="42" on="0"/>
        <pt x="97" y="132" on="0"/>
        <pt x="61" y="248" on="0"/>
        <pt x="61" y="311" on="1"/>
        <pt x="61" y="389" on="0"/>
        <pt x="114" y="544" on="0"/>
        <pt x="215" y="673" on="0"/>
        <pt x="361" y="750" on="0"/>
        <pt x="455" y="750" on="1"/>
        <pt x="532" y="750" on="0"/>
        <pt x="645" y="698" on="0"/>
        <pt x="718" y="607" on="0"/>
        <pt x="754" y="492" on="0"/>
        <pt x="754" y="429" on="1"/>
        <pt x="754" y="351" on="0"/>
        <pt x="702" y="196" on="0"/>
        <pt x="601" y="67" on="0"/>
        <pt x="455" y="-10" on="0"/>
      </contour>
      <contour>
        <pt x="363" y="61" on="1"/>
        <pt x="438" y="61" on="0"/>
        <pt x="554" y="126" on="0"/>
        <pt x="634" y="234" on="0"/>
        <pt x="676" y="363" on="0"/>
        <pt x="676" y="427" on="1"/>
        <pt x="676" y="494" on="0"/>
        <pt x="629" y="609" on="0"/>
        <pt x="530" y="679" on="0"/>
        <pt x="453" y="679" on="1"/>
        <pt x="379" y="679" on="0"/>
        <pt x="262" y="614" on="0"/>
        <pt x="182" y="506" on="0"/>
        <pt x="140" y="377" on="0"/>
        <pt x="140" y="313" on="1"/>
        <pt x="140" y="246" on="0"/>
        <pt x="188" y="131" on="0"/>
        <pt x="287" y="61" on="0"/>
      </contour>
    </TTGlyph>
    <TTGlyph name="OE" xMin="59" yMin="0" xMax="977" yMax="740">
      <contour>
        <pt x="977" y="740" on="1"/>
        <pt x="963" y="671" on="1"/>
        <pt x="595" y="671" on="1"/>
        <pt x="540" y="412" on="1"/>
        <pt x="861" y="412" on="1"/>
        <pt x="846" y="343" on="1"/>
        <pt x="525" y="343" on="1"/>
        <pt x="467" y="69" on="1"/>
        <pt x="840" y="69" on="1"/>
        <pt x="826" y="0" on="1"/>
        <pt x="366" y="0" on="1"/>
        <pt x="287" y="0" on="0"/>
        <pt x="172" y="51" on="0"/>
        <pt x="96" y="137" on="0"/>
        <pt x="59" y="248" on="0"/>
        <pt x="59" y="309" on="1"/>
        <pt x="59" y="385" on="0"/>
        <pt x="115" y="538" on="0"/>
        <pt x="223" y="664" on="0"/>
        <pt x="379" y="740" on="0"/>
        <pt x="481" y="740" on="1"/>
      </contour>
      <contour>
        <pt x="137" y="313" on="1"/>
        <pt x="137" y="248" on="0"/>
        <pt x="188" y="137" on="0"/>
        <pt x="294" y="69" on="0"/>
        <pt x="376" y="69" on="1"/>
        <pt x="390" y="69" on="1"/>
        <pt x="518" y="671" on="1"/>
        <pt x="478" y="671" on="1"/>
        <pt x="397" y="671" on="0"/>
        <pt x="270" y="607" on="0"/>
        <pt x="183" y="502" on="0"/>
        <pt x="137" y="376" on="0"/>
      </contour>
    </TTGlyph>
    <TTGlyph name="Oacute" xMin="61" yMin="-10" xMax="754" yMax="994">
      <contour>
        <pt x="519" y="823" on="1"/>
        <pt x="457" y="823" on="1"/>
        <pt x="544" y="994" on="1"/>
        <pt x="619" y="994" on="1"/>
      </contour>
      <contour>
        <pt x="361" y="-10" on="1"/>
        <pt x="284" y="-10" on="0"/>
        <pt x="171" y="42" on="0"/>
        <pt x="97" y="132" on="0"/>
        <pt x="61" y="248" on="0"/>
        <pt x="61" y="311" on="1"/>
        <pt x="61" y="389" on="0"/>
        <pt x="114" y="544" on="0"/>
        <pt x="215" y="673" on="0"/>
        <pt x="361" y="750" on="0"/>
        <pt x="455" y="750" on="1"/>
        <pt x="532" y="750" on="0"/>
        <pt x="645" y="698" on="0"/>
        <pt x="718" y="607" on="0"/>
        <pt x="754" y="492" on="0"/>
        <pt x="754" y="429" on="1"/>
        <pt x="754" y="351" on="0"/>
        <pt x="702" y="196" on="0"/>
        <pt x="601" y="67" on="0"/>
        <pt x="455" y="-10" on="0"/>
      </contour>
      <contour>
        <pt x="363" y="61" on="1"/>
        <pt x="438" y="61" on="0"/>
        <pt x="554" y="126" on="0"/>
        <pt x="634" y="234" on="0"/>
        <pt x="676" y="363" on="0"/>
        <pt x="676" y="427" on="1"/>
        <pt x="676" y="494" on="0"/>
        <pt x="629" y="609" on="0"/>
        <pt x="530" y="679" on="0"/>
        <pt x="453" y="679" on="1"/>
        <pt x="379" y="679" on="0"/>
        <pt x="262" y="614" on="0"/>
        <pt x="182" y="506" on="0"/>
        <pt x="140" y="377" on="0"/>
        <pt x="140" y="313" on="1"/>
        <pt x="140" y="246" on="0"/>
        <pt x="188" y="131" on="0"/>
        <pt x="287" y="61" on="0"/>
      </contour>
    </TTGlyph>
    <TTGlyph name="Ocircumflex" xMin="61" yMin="-10" xMax="754" yMax="961">
      <contour>
        <pt x="327" y="817" on="1"/>
        <pt x="475" y="961" on="1"/>
        <pt x="541" y="961" on="1"/>
        <pt x="628" y="817" on="1"/>
        <pt x="563" y="817" on="1"/>
        <pt x="503" y="917" on="1"/>
        <pt x="403" y="817" on="1"/>
      </contour>
      <contour>
        <pt x="361" y="-10" on="1"/>
        <pt x="284" y="-10" on="0"/>
        <pt x="171" y="42" on="0"/>
        <pt x="97" y="132" on="0"/>
        <pt x="61" y="248" on="0"/>
        <pt x="61" y="311" on="1"/>
        <pt x="61" y="389" on="0"/>
        <pt x="114" y="544" on="0"/>
        <pt x="215" y="673" on="0"/>
        <pt x="361" y="750" on="0"/>
        <pt x="455" y="750" on="1"/>
        <pt x="532" y="750" on="0"/>
        <pt x="645" y="698" on="0"/>
        <pt x="718" y="607" on="0"/>
        <pt x="754" y="492" on="0"/>
        <pt x="754" y="429" on="1"/>
        <pt x="754" y="351" on="0"/>
        <pt x="702" y="196" on="0"/>
        <pt x="601" y="67" on="0"/>
        <pt x="455" y="-10" on="0"/>
      </contour>
      <contour>
        <pt x="363" y="61" on="1"/>
        <pt x="438" y="61" on="0"/>
        <pt x="554" y="126" on="0"/>
        <pt x="634" y="234" on="0"/>
        <pt x="676" y="363" on="0"/>
        <pt x="676" y="427" on="1"/>
        <pt x="676" y="494" on="0"/>
        <pt x="629" y="609" on="0"/>
        <pt x="530" y="679" on="0"/>
        <pt x="453" y="679" on="1"/>
        <pt x="379" y="679" on="0"/>
        <pt x="262" y="614" on="0"/>
        <pt x="182" y="506" on="0"/>
        <pt x="140" y="377" on="0"/>
        <pt x="140" y="313" on="1"/>
        <pt x="140" y="246" on="0"/>
        <pt x="188" y="131" on="0"/>
        <pt x="287" y="61" on="0"/>
      </contour>
    </TTGlyph>
    <TTGlyph name="Odieresis" xMin="61" yMin="-10" xMax="754" yMax="933">
      <contour>
        <pt x="583" y="827" on="1"/>
        <pt x="560" y="827" on="0"/>
        <pt x="530" y="859" on="0"/>
        <pt x="530" y="880" on="1"/>
        <pt x="530" y="902" on="0"/>
        <pt x="560" y="933" on="0"/>
        <pt x="583" y="933" on="1"/>
        <pt x="606" y="933" on="0"/>
        <pt x="636" y="902" on="0"/>
        <pt x="636" y="880" on="1"/>
        <pt x="636" y="858" on="0"/>
        <pt x="606" y="827" on="0"/>
      </contour>
      <contour>
        <pt x="410" y="827" on="1"/>
        <pt x="387" y="827" on="0"/>
        <pt x="357" y="859" on="0"/>
        <pt x="357" y="880" on="1"/>
        <pt x="357" y="902" on="0"/>
        <pt x="387" y="933" on="0"/>
        <pt x="410" y="933" on="1"/>
        <pt x="433" y="933" on="0"/>
        <pt x="463" y="902" on="0"/>
        <pt x="463" y="880" on="1"/>
        <pt x="463" y="858" on="0"/>
        <pt x="433" y="827" on="0"/>
      </contour>
      <contour>
        <pt x="361" y="-10" on="1"/>
        <pt x="284" y="-10" on="0"/>
        <pt x="171" y="42" on="0"/>
        <pt x="97" y="132" on="0"/>
        <pt x="61" y="248" on="0"/>
        <pt x="61" y="311" on="1"/>
        <pt x="61" y="389" on="0"/>
        <pt x="114" y="544" on="0"/>
        <pt x="215" y="673" on="0"/>
        <pt x="361" y="750" on="0"/>
        <pt x="455" y="750" on="1"/>
        <pt x="532" y="750" on="0"/>
        <pt x="645" y="698" on="0"/>
        <pt x="718" y="607" on="0"/>
        <pt x="754" y="492" on="0"/>
        <pt x="754" y="429" on="1"/>
        <pt x="754" y="351" on="0"/>
        <pt x="702" y="196" on="0"/>
        <pt x="601" y="67" on="0"/>
        <pt x="455" y="-10" on="0"/>
      </contour>
      <contour>
        <pt x="363" y="61" on="1"/>
        <pt x="438" y="61" on="0"/>
        <pt x="554" y="126" on="0"/>
        <pt x="634" y="234" on="0"/>
        <pt x="676" y="363" on="0"/>
        <pt x="676" y="427" on="1"/>
        <pt x="676" y="494" on="0"/>
        <pt x="629" y="609" on="0"/>
        <pt x="530" y="679" on="0"/>
        <pt x="453" y="679" on="1"/>
        <pt x="379" y="679" on="0"/>
        <pt x="262" y="614" on="0"/>
        <pt x="182" y="506" on="0"/>
        <pt x="140" y="377" on="0"/>
        <pt x="140" y="313" on="1"/>
        <pt x="140" y="246" on="0"/>
        <pt x="188" y="131" on="0"/>
        <pt x="287" y="61" on="0"/>
      </contour>
    </TTGlyph>
    <TTGlyph name="Ograve" xMin="61" yMin="-10" xMax="754" yMax="994">
      <contour>
        <pt x="446" y="823" on="1"/>
        <pt x="371" y="994" on="1"/>
        <pt x="445" y="994" on="1"/>
        <pt x="507" y="823" on="1"/>
      </contour>
      <contour>
        <pt x="361" y="-10" on="1"/>
        <pt x="284" y="-10" on="0"/>
        <pt x="171" y="42" on="0"/>
        <pt x="97" y="132" on="0"/>
        <pt x="61" y="248" on="0"/>
        <pt x="61" y="311" on="1"/>
        <pt x="61" y="389" on="0"/>
        <pt x="114" y="544" on="0"/>
        <pt x="215" y="673" on="0"/>
        <pt x="361" y="750" on="0"/>
        <pt x="455" y="750" on="1"/>
        <pt x="532" y="750" on="0"/>
        <pt x="645" y="698" on="0"/>
        <pt x="718" y="607" on="0"/>
        <pt x="754" y="492" on="0"/>
        <pt x="754" y="429" on="1"/>
        <pt x="754" y="351" on="0"/>
        <pt x="702" y="196" on="0"/>
        <pt x="601" y="67" on="0"/>
        <pt x="455" y="-10" on="0"/>
      </contour>
      <contour>
        <pt x="363" y="61" on="1"/>
        <pt x="438" y="61" on="0"/>
        <pt x="554" y="126" on="0"/>
        <pt x="634" y="234" on="0"/>
        <pt x="676" y="363" on="0"/>
        <pt x="676" y="427" on="1"/>
        <pt x="676" y="494" on="0"/>
        <pt x="629" y="609" on="0"/>
        <pt x="530" y="679" on="0"/>
        <pt x="453" y="679" on="1"/>
        <pt x="379" y="679" on="0"/>
        <pt x="262" y="614" on="0"/>
        <pt x="182" y="506" on="0"/>
        <pt x="140" y="377" on="0"/>
        <pt x="140" y="313" on="1"/>
        <pt x="140" y="246" on="0"/>
        <pt x="188" y="131" on="0"/>
        <pt x="287" y="61" on="0"/>
      </contour>
    </TTGlyph>
    <TTGlyph name="Ohorn" xMin="61" yMin="-10" xMax="762" yMax="847">
      <contour>
        <pt x="361" y="-10" on="1"/>
        <pt x="284" y="-10" on="0"/>
        <pt x="171" y="42" on="0"/>
        <pt x="97" y="132" on="0"/>
        <pt x="61" y="248" on="0"/>
        <pt x="61" y="311" on="1"/>
        <pt x="61" y="389" on="0"/>
        <pt x="114" y="544" on="0"/>
        <pt x="215" y="673" on="0"/>
        <pt x="361" y="750" on="0"/>
        <pt x="455" y="750" on="1"/>
        <pt x="457" y="750" on="1"/>
        <pt x="457" y="750" on="1"/>
        <pt x="623" y="750" on="1"/>
        <pt x="650" y="750" on="0"/>
        <pt x="677" y="772" on="0"/>
        <pt x="682" y="797" on="1"/>
        <pt x="692" y="847" on="1"/>
        <pt x="762" y="847" on="1"/>
        <pt x="749" y="786" on="1"/>
        <pt x="731" y="698" on="0"/>
        <pt x="644" y="698" on="1"/>
        <pt x="632" y="698" on="1"/>
        <pt x="694" y="654" on="0"/>
        <pt x="754" y="510" on="0"/>
        <pt x="754" y="429" on="1"/>
        <pt x="754" y="351" on="0"/>
        <pt x="702" y="196" on="0"/>
        <pt x="601" y="67" on="0"/>
        <pt x="455" y="-10" on="0"/>
      </contour>
      <contour>
        <pt x="363" y="61" on="1"/>
        <pt x="438" y="61" on="0"/>
        <pt x="554" y="126" on="0"/>
        <pt x="634" y="234" on="0"/>
        <pt x="676" y="363" on="0"/>
        <pt x="676" y="427" on="1"/>
        <pt x="676" y="494" on="0"/>
        <pt x="629" y="609" on="0"/>
        <pt x="530" y="679" on="0"/>
        <pt x="453" y="679" on="1"/>
        <pt x="379" y="679" on="0"/>
        <pt x="262" y="614" on="0"/>
        <pt x="182" y="506" on="0"/>
        <pt x="140" y="377" on="0"/>
        <pt x="140" y="313" on="1"/>
        <pt x="140" y="246" on="0"/>
        <pt x="188" y="131" on="0"/>
        <pt x="287" y="61" on="0"/>
      </contour>
    </TTGlyph>
    <TTGlyph name="Ohungarumlaut" xMin="61" yMin="-10" xMax="754" yMax="994">
      <contour>
        <pt x="439" y="823" on="1"/>
        <pt x="372" y="823" on="1"/>
        <pt x="472" y="994" on="1"/>
        <pt x="553" y="994" on="1"/>
      </contour>
      <contour>
        <pt x="588" y="823" on="1"/>
        <pt x="519" y="823" on="1"/>
        <pt x="626" y="994" on="1"/>
        <pt x="709" y="994" on="1"/>
      </contour>
      <contour>
        <pt x="361" y="-10" on="1"/>
        <pt x="284" y="-10" on="0"/>
        <pt x="171" y="42" on="0"/>
        <pt x="97" y="132" on="0"/>
        <pt x="61" y="248" on="0"/>
        <pt x="61" y="311" on="1"/>
        <pt x="61" y="389" on="0"/>
        <pt x="114" y="544" on="0"/>
        <pt x="215" y="673" on="0"/>
        <pt x="361" y="750" on="0"/>
        <pt x="455" y="750" on="1"/>
        <pt x="532" y="750" on="0"/>
        <pt x="645" y="698" on="0"/>
        <pt x="718" y="607" on="0"/>
        <pt x="754" y="492" on="0"/>
        <pt x="754" y="429" on="1"/>
        <pt x="754" y="351" on="0"/>
        <pt x="702" y="196" on="0"/>
        <pt x="601" y="67" on="0"/>
        <pt x="455" y="-10" on="0"/>
      </contour>
      <contour>
        <pt x="363" y="61" on="1"/>
        <pt x="438" y="61" on="0"/>
        <pt x="554" y="126" on="0"/>
        <pt x="634" y="234" on="0"/>
        <pt x="676" y="363" on="0"/>
        <pt x="676" y="427" on="1"/>
        <pt x="676" y="494" on="0"/>
        <pt x="629" y="609" on="0"/>
        <pt x="530" y="679" on="0"/>
        <pt x="453" y="679" on="1"/>
        <pt x="379" y="679" on="0"/>
        <pt x="262" y="614" on="0"/>
        <pt x="182" y="506" on="0"/>
        <pt x="140" y="377" on="0"/>
        <pt x="140" y="313" on="1"/>
        <pt x="140" y="246" on="0"/>
        <pt x="188" y="131" on="0"/>
        <pt x="287" y="61" on="0"/>
      </contour>
    </TTGlyph>
    <TTGlyph name="Omacron" xMin="61" yMin="-10" xMax="754" yMax="906">
      <contour>
        <pt x="342" y="848" on="1"/>
        <pt x="355" y="906" on="1"/>
        <pt x="651" y="906" on="1"/>
        <pt x="638" y="848" on="1"/>
      </contour>
      <contour>
        <pt x="361" y="-10" on="1"/>
        <pt x="284" y="-10" on="0"/>
        <pt x="171" y="42" on="0"/>
        <pt x="97" y="132" on="0"/>
        <pt x="61" y="248" on="0"/>
        <pt x="61" y="311" on="1"/>
        <pt x="61" y="389" on="0"/>
        <pt x="114" y="544" on="0"/>
        <pt x="215" y="673" on="0"/>
        <pt x="361" y="750" on="0"/>
        <pt x="455" y="750" on="1"/>
        <pt x="532" y="750" on="0"/>
        <pt x="645" y="698" on="0"/>
        <pt x="718" y="607" on="0"/>
        <pt x="754" y="492" on="0"/>
        <pt x="754" y="429" on="1"/>
        <pt x="754" y="351" on="0"/>
        <pt x="702" y="196" on="0"/>
        <pt x="601" y="67" on="0"/>
        <pt x="455" y="-10" on="0"/>
      </contour>
      <contour>
        <pt x="363" y="61" on="1"/>
        <pt x="438" y="61" on="0"/>
        <pt x="554" y="126" on="0"/>
        <pt x="634" y="234" on="0"/>
        <pt x="676" y="363" on="0"/>
        <pt x="676" y="427" on="1"/>
        <pt x="676" y="494" on="0"/>
        <pt x="629" y="609" on="0"/>
        <pt x="530" y="679" on="0"/>
        <pt x="453" y="679" on="1"/>
        <pt x="379" y="679" on="0"/>
        <pt x="262" y="614" on="0"/>
        <pt x="182" y="506" on="0"/>
        <pt x="140" y="377" on="0"/>
        <pt x="140" y="313" on="1"/>
        <pt x="140" y="246" on="0"/>
        <pt x="188" y="131" on="0"/>
        <pt x="287" y="61" on="0"/>
      </contour>
    </TTGlyph>
    <TTGlyph name="Oslash" xMin="27" yMin="-24" xMax="788" yMax="763">
      <contour>
        <pt x="27" y="-24" on="1"/>
        <pt x="128" y="95" on="1"/>
        <pt x="94" y="139" on="0"/>
        <pt x="61" y="251" on="0"/>
        <pt x="61" y="311" on="1"/>
        <pt x="61" y="389" on="0"/>
        <pt x="114" y="544" on="0"/>
        <pt x="215" y="673" on="0"/>
        <pt x="361" y="750" on="0"/>
        <pt x="455" y="750" on="1"/>
        <pt x="512" y="750" on="0"/>
        <pt x="604" y="720" on="0"/>
        <pt x="639" y="694" on="1"/>
        <pt x="698" y="763" on="1"/>
        <pt x="788" y="763" on="1"/>
        <pt x="687" y="645" on="1"/>
        <pt x="721" y="601" on="0"/>
        <pt x="754" y="489" on="0"/>
        <pt x="754" y="429" on="1"/>
        <pt x="754" y="351" on="0"/>
        <pt x="702" y="196" on="0"/>
        <pt x="601" y="67" on="0"/>
        <pt x="455" y="-10" on="0"/>
        <pt x="361" y="-10" on="1"/>
        <pt x="304" y="-10" on="0"/>
        <pt x="212" y="20" on="0"/>
        <pt x="177" y="46" on="1"/>
        <pt x="117" y="-24" on="1"/>
      </contour>
      <contour>
        <pt x="140" y="313" on="1"/>
        <pt x="140" y="269" on="0"/>
        <pt x="160" y="189" on="0"/>
        <pt x="180" y="156" on="1"/>
        <pt x="590" y="636" on="1"/>
        <pt x="564" y="656" on="0"/>
        <pt x="496" y="679" on="0"/>
        <pt x="453" y="679" on="1"/>
        <pt x="379" y="679" on="0"/>
        <pt x="262" y="614" on="0"/>
        <pt x="182" y="506" on="0"/>
        <pt x="140" y="377" on="0"/>
      </contour>
      <contour>
        <pt x="363" y="61" on="1"/>
        <pt x="438" y="61" on="0"/>
        <pt x="554" y="126" on="0"/>
        <pt x="634" y="234" on="0"/>
        <pt x="676" y="363" on="0"/>
        <pt x="676" y="427" on="1"/>
        <pt x="676" y="471" on="0"/>
        <pt x="656" y="551" on="0"/>
        <pt x="636" y="584" on="1"/>
        <pt x="226" y="104" on="1"/>
        <pt x="252" y="84" on="0"/>
        <pt x="320" y="61" on="0"/>
      </contour>
    </TTGlyph>
    <TTGlyph name="Otilde" xMin="61" yMin="-10" xMax="754" yMax="956">
      <contour>
        <pt x="560" y="828" on="1"/>
        <pt x="536" y="828" on="0"/>
        <pt x="503" y="850" on="0"/>
        <pt x="478" y="880" on="0"/>
        <pt x="455" y="902" on="0"/>
        <pt x="441" y="902" on="1"/>
        <pt x="424" y="902" on="0"/>
        <pt x="402" y="865" on="0"/>
        <pt x="396" y="833" on="1"/>
        <pt x="345" y="833" on="1"/>
        <pt x="355" y="888" on="0"/>
        <pt x="400" y="956" on="0"/>
        <pt x="442" y="956" on="1"/>
        <pt x="468" y="956" on="0"/>
        <pt x="501" y="934" on="0"/>
        <pt x="525" y="905" on="0"/>
        <pt x="548" y="883" on="0"/>
        <pt x="562" y="883" on="1"/>
        <pt x="594" y="883" on="0"/>
        <pt x="605" y="951" on="1"/>
        <pt x="657" y="951" on="1"/>
        <pt x="646" y="897" on="0"/>
        <pt x="602" y="828" on="0"/>
      </contour>
      <contour>
        <pt x="361" y="-10" on="1"/>
        <pt x="284" y="-10" on="0"/>
        <pt x="171" y="42" on="0"/>
        <pt x="97" y="132" on="0"/>
        <pt x="61" y="248" on="0"/>
        <pt x="61" y="311" on="1"/>
        <pt x="61" y="389" on="0"/>
        <pt x="114" y="544" on="0"/>
        <pt x="215" y="673" on="0"/>
        <pt x="361" y="750" on="0"/>
        <pt x="455" y="750" on="1"/>
        <pt x="532" y="750" on="0"/>
        <pt x="645" y="698" on="0"/>
        <pt x="718" y="607" on="0"/>
        <pt x="754" y="492" on="0"/>
        <pt x="754" y="429" on="1"/>
        <pt x="754" y="351" on="0"/>
        <pt x="702" y="196" on="0"/>
        <pt x="601" y="67" on="0"/>
        <pt x="455" y="-10" on="0"/>
      </contour>
      <contour>
        <pt x="363" y="61" on="1"/>
        <pt x="438" y="61" on="0"/>
        <pt x="554" y="126" on="0"/>
        <pt x="634" y="234" on="0"/>
        <pt x="676" y="363" on="0"/>
        <pt x="676" y="427" on="1"/>
        <pt x="676" y="494" on="0"/>
        <pt x="629" y="609" on="0"/>
        <pt x="530" y="679" on="0"/>
        <pt x="453" y="679" on="1"/>
        <pt x="379" y="679" on="0"/>
        <pt x="262" y="614" on="0"/>
        <pt x="182" y="506" on="0"/>
        <pt x="140" y="377" on="0"/>
        <pt x="140" y="313" on="1"/>
        <pt x="140" y="246" on="0"/>
        <pt x="188" y="131" on="0"/>
        <pt x="287" y="61" on="0"/>
      </contour>
    </TTGlyph>
    <TTGlyph name="P" xMin="31" yMin="0" xMax="635" yMax="740">
      <contour>
        <pt x="31" y="0" on="1"/>
        <pt x="188" y="740" on="1"/>
        <pt x="401" y="740" on="1"/>
        <pt x="481" y="740" on="0"/>
        <pt x="584" y="680" on="0"/>
        <pt x="635" y="584" on="0"/>
        <pt x="635" y="529" on="1"/>
        <pt x="635" y="482" on="0"/>
        <pt x="598" y="389" on="0"/>
        <pt x="525" y="313" on="0"/>
        <pt x="418" y="268" on="0"/>
        <pt x="348" y="268" on="1"/>
        <pt x="165" y="268" on="1"/>
        <pt x="108" y="0" on="1"/>
      </contour>
      <contour>
        <pt x="396" y="671" on="1"/>
        <pt x="250" y="671" on="1"/>
        <pt x="179" y="337" on="1"/>
        <pt x="354" y="337" on="1"/>
        <pt x="420" y="337" on="0"/>
        <pt x="511" y="393" on="0"/>
        <pt x="558" y="480" on="0"/>
        <pt x="558" y="524" on="1"/>
        <pt x="558" y="562" on="0"/>
        <pt x="523" y="630" on="0"/>
        <pt x="451" y="671" on="0"/>
      </contour>
    </TTGlyph>
    <TTGlyph name="Q" xMin="61" yMin="-10" xMax="754" yMax="750">
      <contour>
        <pt x="361" y="-10" on="1"/>
        <pt x="284" y="-10" on="0"/>
        <pt x="171" y="42" on="0"/>
        <pt x="97" y="132" on="0"/>
        <pt x="61" y="248" on="0"/>
        <pt x="61" y="311" on="1"/>
        <pt x="61" y="389" on="0"/>
        <pt x="114" y="544" on="0"/>
        <pt x="215" y="673" on="0"/>
        <pt x="361" y="750" on="0"/>
        <pt x="455" y="750" on="1"/>
        <pt x="532" y="750" on="0"/>
        <pt x="645" y="698" on="0"/>
        <pt x="718" y="607" on="0"/>
        <pt x="754" y="492" on="0"/>
        <pt x="754" y="429" on="1"/>
        <pt x="754" y="344" on="0"/>
        <pt x="692" y="174" on="0"/>
        <pt x="632" y="109" on="1"/>
        <pt x="722" y="0" on="1"/>
        <pt x="626" y="0" on="1"/>
        <pt x="577" y="60" on="1"/>
        <pt x="533" y="27" on="0"/>
        <pt x="425" y="-10" on="0"/>
      </contour>
      <contour>
        <pt x="363" y="61" on="1"/>
        <pt x="412" y="61" on="0"/>
        <pt x="496" y="90" on="0"/>
        <pt x="531" y="116" on="1"/>
        <pt x="415" y="257" on="1"/>
        <pt x="473" y="304" on="1"/>
        <pt x="585" y="168" on="1"/>
        <pt x="629" y="221" on="0"/>
        <pt x="676" y="359" on="0"/>
        <pt x="676" y="427" on="1"/>
        <pt x="676" y="494" on="0"/>
        <pt x="629" y="609" on="0"/>
        <pt x="530" y="679" on="0"/>
        <pt x="453" y="679" on="1"/>
        <pt x="379" y="679" on="0"/>
        <pt x="262" y="614" on="0"/>
        <pt x="182" y="506" on="0"/>
        <pt x="140" y="377" on="0"/>
        <pt x="140" y="313" on="1"/>
        <pt x="140" y="246" on="0"/>
        <pt x="188" y="131" on="0"/>
        <pt x="287" y="61" on="0"/>
      </contour>
    </TTGlyph>
    <TTGlyph name="R" xMin="31" yMin="0" xMax="609" yMax="740">
      <contour>
        <pt x="31" y="0" on="1"/>
        <pt x="188" y="740" on="1"/>
        <pt x="391" y="740" on="1"/>
        <pt x="466" y="740" on="0"/>
        <pt x="562" y="686" on="0"/>
        <pt x="609" y="599" on="0"/>
        <pt x="609" y="550" on="1"/>
        <pt x="609" y="500" on="0"/>
        <pt x="560" y="402" on="0"/>
        <pt x="466" y="333" on="0"/>
        <pt x="397" y="324" on="1"/>
        <pt x="519" y="0" on="1"/>
        <pt x="438" y="0" on="1"/>
        <pt x="319" y="322" on="1"/>
        <pt x="176" y="322" on="1"/>
        <pt x="108" y="0" on="1"/>
      </contour>
      <contour>
        <pt x="391" y="671" on="1"/>
        <pt x="250" y="671" on="1"/>
        <pt x="190" y="389" on="1"/>
        <pt x="357" y="389" on="1"/>
        <pt x="413" y="389" on="0"/>
        <pt x="491" y="437" on="0"/>
        <pt x="531" y="510" on="0"/>
        <pt x="531" y="548" on="1"/>
        <pt x="531" y="596" on="0"/>
        <pt x="463" y="671" on="0"/>
      </contour>
    </TTGlyph>
    <TTGlyph name="Racute" xMin="31" yMin="0" xMax="609" yMax="994">
      <contour>
        <pt x="440" y="823" on="1"/>
        <pt x="378" y="823" on="1"/>
        <pt x="464" y="994" on="1"/>
        <pt x="540" y="994" on="1"/>
      </contour>
      <contour>
        <pt x="31" y="0" on="1"/>
        <pt x="188" y="740" on="1"/>
        <pt x="391" y="740" on="1"/>
        <pt x="466" y="740" on="0"/>
        <pt x="562" y="686" on="0"/>
        <pt x="609" y="599" on="0"/>
        <pt x="609" y="550" on="1"/>
        <pt x="609" y="500" on="0"/>
        <pt x="560" y="402" on="0"/>
        <pt x="466" y="333" on="0"/>
        <pt x="397" y="324" on="1"/>
        <pt x="519" y="0" on="1"/>
        <pt x="438" y="0" on="1"/>
        <pt x="319" y="322" on="1"/>
        <pt x="176" y="322" on="1"/>
        <pt x="108" y="0" on="1"/>
      </contour>
      <contour>
        <pt x="391" y="671" on="1"/>
        <pt x="250" y="671" on="1"/>
        <pt x="190" y="389" on="1"/>
        <pt x="357" y="389" on="1"/>
        <pt x="413" y="389" on="0"/>
        <pt x="491" y="437" on="0"/>
        <pt x="531" y="510" on="0"/>
        <pt x="531" y="548" on="1"/>
        <pt x="531" y="596" on="0"/>
        <pt x="463" y="671" on="0"/>
      </contour>
    </TTGlyph>
    <TTGlyph name="Rcaron" xMin="31" yMin="0" xMax="609" yMax="978">
      <contour>
        <pt x="366" y="816" on="1"/>
        <pt x="282" y="978" on="1"/>
        <pt x="347" y="978" on="1"/>
        <pt x="404" y="865" on="1"/>
        <pt x="508" y="978" on="1"/>
        <pt x="584" y="978" on="1"/>
        <pt x="432" y="816" on="1"/>
      </contour>
      <contour>
        <pt x="31" y="0" on="1"/>
        <pt x="188" y="740" on="1"/>
        <pt x="391" y="740" on="1"/>
        <pt x="466" y="740" on="0"/>
        <pt x="562" y="686" on="0"/>
        <pt x="609" y="599" on="0"/>
        <pt x="609" y="550" on="1"/>
        <pt x="609" y="500" on="0"/>
        <pt x="560" y="402" on="0"/>
        <pt x="466" y="333" on="0"/>
        <pt x="397" y="324" on="1"/>
        <pt x="519" y="0" on="1"/>
        <pt x="438" y="0" on="1"/>
        <pt x="319" y="322" on="1"/>
        <pt x="176" y="322" on="1"/>
        <pt x="108" y="0" on="1"/>
      </contour>
      <contour>
        <pt x="391" y="671" on="1"/>
        <pt x="250" y="671" on="1"/>
        <pt x="190" y="389" on="1"/>
        <pt x="357" y="389" on="1"/>
        <pt x="413" y="389" on="0"/>
        <pt x="491" y="437" on="0"/>
        <pt x="531" y="510" on="0"/>
        <pt x="531" y="548" on="1"/>
        <pt x="531" y="596" on="0"/>
        <pt x="463" y="671" on="0"/>
      </contour>
    </TTGlyph>
    <TTGlyph name="S" xMin="42" yMin="-10" xMax="635" yMax="750">
      <contour>
        <pt x="310" y="-10" on="1"/>
        <pt x="240" y="-10" on="0"/>
        <pt x="146" y="23" on="0"/>
        <pt x="87" y="75" on="0"/>
        <pt x="56" y="134" on="0"/>
        <pt x="44" y="186" on="0"/>
        <pt x="42" y="219" on="0"/>
        <pt x="42" y="219" on="1"/>
        <pt x="119" y="219" on="1"/>
        <pt x="119" y="219" on="0"/>
        <pt x="122" y="186" on="0"/>
        <pt x="138" y="139" on="0"/>
        <pt x="178" y="91" on="0"/>
        <pt x="251" y="58" on="0"/>
        <pt x="310" y="58" on="1"/>
        <pt x="357" y="58" on="0"/>
        <pt x="439" y="92" on="0"/>
        <pt x="490" y="155" on="0"/>
        <pt x="490" y="199" on="1"/>
        <pt x="490" y="248" on="0"/>
        <pt x="424" y="305" on="0"/>
        <pt x="377" y="327" on="1"/>
        <pt x="294" y="364" on="1"/>
        <pt x="256" y="381" on="0"/>
        <pt x="191" y="428" on="0"/>
        <pt x="152" y="499" on="0"/>
        <pt x="152" y="549" on="1"/>
        <pt x="152" y="603" on="0"/>
        <pt x="211" y="694" on="0"/>
        <pt x="321" y="750" on="0"/>
        <pt x="396" y="750" on="1"/>
        <pt x="470" y="750" on="0"/>
        <pt x="562" y="707" on="0"/>
        <pt x="611" y="645" on="0"/>
        <pt x="632" y="582" on="0"/>
        <pt x="635" y="539" on="0"/>
        <pt x="635" y="539" on="1"/>
        <pt x="560" y="539" on="1"/>
        <pt x="560" y="539" on="0"/>
        <pt x="556" y="568" on="0"/>
        <pt x="541" y="611" on="0"/>
        <pt x="506" y="654" on="0"/>
        <pt x="444" y="683" on="0"/>
        <pt x="396" y="683" on="1"/>
        <pt x="321" y="683" on="0"/>
        <pt x="229" y="610" on="0"/>
        <pt x="229" y="553" on="1"/>
        <pt x="229" y="508" on="0"/>
        <pt x="285" y="452" on="0"/>
        <pt x="328" y="432" on="1"/>
        <pt x="405" y="397" on="1"/>
        <pt x="445" y="379" on="0"/>
        <pt x="519" y="331" on="0"/>
        <pt x="567" y="258" on="0"/>
        <pt x="567" y="200" on="1"/>
        <pt x="567" y="140" on="0"/>
        <pt x="498" y="45" on="0"/>
        <pt x="382" y="-10" on="0"/>
      </contour>
    </TTGlyph>
    <TTGlyph name="Sacute" xMin="34" yMin="-10" xMax="627" yMax="994">
      <contour>
        <pt x="465" y="823" on="1"/>
        <pt x="403" y="823" on="1"/>
        <pt x="490" y="994" on="1"/>
        <pt x="565" y="994" on="1"/>
      </contour>
      <contour>
        <pt x="302" y="-10" on="1"/>
        <pt x="233" y="-10" on="0"/>
        <pt x="138" y="23" on="0"/>
        <pt x="80" y="75" on="0"/>
        <pt x="48" y="134" on="0"/>
        <pt x="36" y="186" on="0"/>
        <pt x="34" y="219" on="0"/>
        <pt x="34" y="219" on="1"/>
        <pt x="112" y="219" on="1"/>
        <pt x="112" y="219" on="0"/>
        <pt x="114" y="186" on="0"/>
        <pt x="130" y="139" on="0"/>
        <pt x="170" y="91" on="0"/>
        <pt x="243" y="58" on="0"/>
        <pt x="302" y="58" on="1"/>
        <pt x="349" y="58" on="0"/>
        <pt x="431" y="92" on="0"/>
        <pt x="482" y="155" on="0"/>
        <pt x="482" y="199" on="1"/>
        <pt x="482" y="248" on="0"/>
        <pt x="416" y="305" on="0"/>
        <pt x="369" y="327" on="1"/>
        <pt x="286" y="364" on="1"/>
        <pt x="248" y="381" on="0"/>
        <pt x="183" y="428" on="0"/>
        <pt x="144" y="499" on="0"/>
        <pt x="144" y="549" on="1"/>
        <pt x="144" y="603" on="0"/>
        <pt x="204" y="694" on="0"/>
        <pt x="313" y="750" on="0"/>
        <pt x="388" y="750" on="1"/>
        <pt x="462" y="750" on="0"/>
        <pt x="554" y="707" on="0"/>
        <pt x="604" y="645" on="0"/>
        <pt x="624" y="582" on="0"/>
        <pt x="627" y="539" on="0"/>
        <pt x="627" y="539" on="1"/>
        <pt x="552" y="539" on="1"/>
        <pt x="552" y="539" on="0"/>
        <pt x="549" y="568" on="0"/>
        <pt x="533" y="611" on="0"/>
        <pt x="498" y="654" on="0"/>
        <pt x="437" y="683" on="0"/>
        <pt x="388" y="683" on="1"/>
        <pt x="313" y="683" on="0"/>
        <pt x="221" y="610" on="0"/>
        <pt x="221" y="553" on="1"/>
        <pt x="221" y="508" on="0"/>
        <pt x="277" y="452" on="0"/>
        <pt x="320" y="432" on="1"/>
        <pt x="397" y="397" on="1"/>
        <pt x="437" y="379" on="0"/>
        <pt x="512" y="331" on="0"/>
        <pt x="559" y="258" on="0"/>
        <pt x="559" y="200" on="1"/>
        <pt x="559" y="140" on="0"/>
        <pt x="491" y="45" on="0"/>
        <pt x="374" y="-10" on="0"/>
      </contour>
    </TTGlyph>
    <TTGlyph name="Scaron" xMin="34" yMin="-10" xMax="627" yMax="978">
      <contour>
        <pt x="391" y="816" on="1"/>
        <pt x="308" y="978" on="1"/>
        <pt x="373" y="978" on="1"/>
        <pt x="430" y="865" on="1"/>
        <pt x="534" y="978" on="1"/>
        <pt x="609" y="978" on="1"/>
        <pt x="458" y="816" on="1"/>
      </contour>
      <contour>
        <pt x="302" y="-10" on="1"/>
        <pt x="233" y="-10" on="0"/>
        <pt x="138" y="23" on="0"/>
        <pt x="80" y="75" on="0"/>
        <pt x="48" y="134" on="0"/>
        <pt x="36" y="186" on="0"/>
        <pt x="34" y="219" on="0"/>
        <pt x="34" y="219" on="1"/>
        <pt x="112" y="219" on="1"/>
        <pt x="112" y="219" on="0"/>
        <pt x="114" y="186" on="0"/>
        <pt x="130" y="139" on="0"/>
        <pt x="170" y="91" on="0"/>
        <pt x="243" y="58" on="0"/>
        <pt x="302" y="58" on="1"/>
        <pt x="349" y="58" on="0"/>
        <pt x="431" y="92" on="0"/>
        <pt x="482" y="155" on="0"/>
        <pt x="482" y="199" on="1"/>
        <pt x="482" y="248" on="0"/>
        <pt x="416" y="305" on="0"/>
        <pt x="369" y="327" on="1"/>
        <pt x="286" y="364" on="1"/>
        <pt x="248" y="381" on="0"/>
        <pt x="183" y="428" on="0"/>
        <pt x="144" y="499" on="0"/>
        <pt x="144" y="549" on="1"/>
        <pt x="144" y="603" on="0"/>
        <pt x="204" y="694" on="0"/>
        <pt x="313" y="750" on="0"/>
        <pt x="388" y="750" on="1"/>
        <pt x="462" y="750" on="0"/>
        <pt x="554" y="707" on="0"/>
        <pt x="604" y="645" on="0"/>
        <pt x="624" y="582" on="0"/>
        <pt x="627" y="539" on="0"/>
        <pt x="627" y="539" on="1"/>
        <pt x="552" y="539" on="1"/>
        <pt x="552" y="539" on="0"/>
        <pt x="549" y="568" on="0"/>
        <pt x="533" y="611" on="0"/>
        <pt x="498" y="654" on="0"/>
        <pt x="437" y="683" on="0"/>
        <pt x="388" y="683" on="1"/>
        <pt x="313" y="683" on="0"/>
        <pt x="221" y="610" on="0"/>
        <pt x="221" y="553" on="1"/>
        <pt x="221" y="508" on="0"/>
        <pt x="277" y="452" on="0"/>
        <pt x="320" y="432" on="1"/>
        <pt x="397" y="397" on="1"/>
        <pt x="437" y="379" on="0"/>
        <pt x="512" y="331" on="0"/>
        <pt x="559" y="258" on="0"/>
        <pt x="559" y="200" on="1"/>
        <pt x="559" y="140" on="0"/>
        <pt x="491" y="45" on="0"/>
        <pt x="374" y="-10" on="0"/>
      </contour>
    </TTGlyph>
    <TTGlyph name="Scedilla" xMin="34" yMin="-256" xMax="627" yMax="750">
      <contour>
        <pt x="302" y="-10" on="1"/>
        <pt x="295" y="-10" on="1"/>
        <pt x="251" y="-63" on="1"/>
        <pt x="256" y="-63" on="0"/>
        <pt x="261" y="-63" on="1"/>
        <pt x="310" y="-63" on="0"/>
        <pt x="359" y="-117" on="0"/>
        <pt x="359" y="-152" on="1"/>
        <pt x="359" y="-177" on="0"/>
        <pt x="331" y="-225" on="0"/>
        <pt x="272" y="-256" on="0"/>
        <pt x="225" y="-256" on="1"/>
        <pt x="194" y="-256" on="0"/>
        <pt x="148" y="-245" on="0"/>
        <pt x="148" y="-245" on="1"/>
        <pt x="157" y="-198" on="1"/>
        <pt x="157" y="-198" on="0"/>
        <pt x="204" y="-207" on="0"/>
        <pt x="226" y="-207" on="1"/>
        <pt x="267" y="-207" on="0"/>
        <pt x="300" y="-173" on="0"/>
        <pt x="300" y="-154" on="1"/>
        <pt x="300" y="-135" on="0"/>
        <pt x="271" y="-106" on="0"/>
        <pt x="242" y="-106" on="1"/>
        <pt x="219" y="-106" on="0"/>
        <pt x="190" y="-122" on="0"/>
        <pt x="191" y="-122" on="1"/>
        <pt x="167" y="-92" on="1"/>
        <pt x="239" y="-5" on="1"/>
        <pt x="175" y="4" on="0"/>
        <pt x="96" y="55" on="0"/>
        <pt x="54" y="119" on="0"/>
        <pt x="37" y="179" on="0"/>
        <pt x="34" y="219" on="0"/>
        <pt x="34" y="219" on="1"/>
        <pt x="112" y="219" on="1"/>
        <pt x="112" y="219" on="0"/>
        <pt x="114" y="186" on="0"/>
        <pt x="130" y="139" on="0"/>
        <pt x="170" y="91" on="0"/>
        <pt x="243" y="58" on="0"/>
        <pt x="302" y="58" on="1"/>
        <pt x="349" y="58" on="0"/>
        <pt x="431" y="92" on="0"/>
        <pt x="482" y="155" on="0"/>
        <pt x="482" y="199" on="1"/>
        <pt x="482" y="248" on="0"/>
        <pt x="416" y="305" on="0"/>
        <pt x="369" y="327" on="1"/>
        <pt x="286" y="364" on="1"/>
        <pt x="248" y="381" on="0"/>
        <pt x="183" y="428" on="0"/>
        <pt x="144" y="499" on="0"/>
        <pt x="144" y="549" on="1"/>
        <pt x="144" y="603" on="0"/>
        <pt x="204" y="694" on="0"/>
        <pt x="313" y="750" on="0"/>
        <pt x="388" y="750" on="1"/>
        <pt x="462" y="750" on="0"/>
        <pt x="554" y="707" on="0"/>
        <pt x="604" y="645" on="0"/>
        <pt x="624" y="582" on="0"/>
        <pt x="627" y="539" on="0"/>
        <pt x="627" y="539" on="1"/>
        <pt x="552" y="539" on="1"/>
        <pt x="552" y="539" on="0"/>
        <pt x="549" y="568" on="0"/>
        <pt x="533" y="611" on="0"/>
        <pt x="498" y="654" on="0"/>
        <pt x="437" y="683" on="0"/>
        <pt x="388" y="683" on="1"/>
        <pt x="313" y="683" on="0"/>
        <pt x="221" y="610" on="0"/>
        <pt x="221" y="553" on="1"/>
        <pt x="221" y="508" on="0"/>
        <pt x="277" y="452" on="0"/>
        <pt x="320" y="432" on="1"/>
        <pt x="397" y="397" on="1"/>
        <pt x="437" y="379" on="0"/>
        <pt x="512" y="331" on="0"/>
        <pt x="559" y="258" on="0"/>
        <pt x="559" y="200" on="1"/>
        <pt x="559" y="140" on="0"/>
        <pt x="491" y="45" on="0"/>
        <pt x="374" y="-10" on="0"/>
      </contour>
    </TTGlyph>
    <TTGlyph name="T" xMin="124" yMin="0" xMax="715" yMax="740">
      <contour>
        <pt x="229" y="0" on="1"/>
        <pt x="371" y="671" on="1"/>
        <pt x="124" y="671" on="1"/>
        <pt x="138" y="740" on="1"/>
        <pt x="715" y="740" on="1"/>
        <pt x="701" y="671" on="1"/>
        <pt x="448" y="671" on="1"/>
        <pt x="306" y="0" on="1"/>
      </contour>
    </TTGlyph>
    <TTGlyph name="Tbar" xMin="117" yMin="0" xMax="695" yMax="740">
      <contour>
        <pt x="219" y="0" on="1"/>
        <pt x="291" y="340" on="1"/>
        <pt x="117" y="340" on="1"/>
        <pt x="132" y="410" on="1"/>
        <pt x="306" y="410" on="1"/>
        <pt x="361" y="671" on="1"/>
        <pt x="124" y="671" on="1"/>
        <pt x="138" y="740" on="1"/>
        <pt x="695" y="740" on="1"/>
        <pt x="681" y="671" on="1"/>
        <pt x="438" y="671" on="1"/>
        <pt x="383" y="410" on="1"/>
        <pt x="578" y="410" on="1"/>
        <pt x="563" y="340" on="1"/>
        <pt x="368" y="340" on="1"/>
        <pt x="296" y="0" on="1"/>
      </contour>
    </TTGlyph>
    <TTGlyph name="Tcaron" xMin="127" yMin="0" xMax="698" yMax="978">
      <contour>
        <pt x="392" y="816" on="1"/>
        <pt x="309" y="978" on="1"/>
        <pt x="374" y="978" on="1"/>
        <pt x="431" y="865" on="1"/>
        <pt x="535" y="978" on="1"/>
        <pt x="610" y="978" on="1"/>
        <pt x="459" y="816" on="1"/>
      </contour>
      <contour>
        <pt x="222" y="0" on="1"/>
        <pt x="364" y="671" on="1"/>
        <pt x="127" y="671" on="1"/>
        <pt x="142" y="740" on="1"/>
        <pt x="698" y="740" on="1"/>
        <pt x="684" y="671" on="1"/>
        <pt x="441" y="671" on="1"/>
        <pt x="299" y="0" on="1"/>
      </contour>
    </TTGlyph>
    <TTGlyph name="Thorn" xMin="31" yMin="0" xMax="614" yMax="740">
      <contour>
        <pt x="31" y="0" on="1"/>
        <pt x="188" y="740" on="1"/>
        <pt x="265" y="740" on="1"/>
        <pt x="236" y="606" on="1"/>
        <pt x="380" y="606" on="1"/>
        <pt x="459" y="606" on="0"/>
        <pt x="563" y="546" on="0"/>
        <pt x="614" y="450" on="0"/>
        <pt x="614" y="395" on="1"/>
        <pt x="614" y="348" on="0"/>
        <pt x="576" y="255" on="0"/>
        <pt x="503" y="179" on="0"/>
        <pt x="396" y="134" on="0"/>
        <pt x="327" y="134" on="1"/>
        <pt x="136" y="134" on="1"/>
        <pt x="108" y="0" on="1"/>
      </contour>
      <contour>
        <pt x="374" y="537" on="1"/>
        <pt x="222" y="537" on="1"/>
        <pt x="151" y="203" on="1"/>
        <pt x="332" y="203" on="1"/>
        <pt x="398" y="203" on="0"/>
        <pt x="489" y="259" on="0"/>
        <pt x="536" y="346" on="0"/>
        <pt x="536" y="390" on="1"/>
        <pt x="536" y="428" on="0"/>
        <pt x="501" y="496" on="0"/>
        <pt x="429" y="537" on="0"/>
      </contour>
    </TTGlyph>
    <TTGlyph name="U" xMin="71" yMin="-10" xMax="736" yMax="740">
      <contour>
        <pt x="315" y="-10" on="1"/>
        <pt x="229" y="-10" on="0"/>
        <pt x="115" y="63" on="0"/>
        <pt x="71" y="193" on="0"/>
        <pt x="90" y="281" on="1"/>
        <pt x="188" y="740" on="1"/>
        <pt x="265" y="740" on="1"/>
        <pt x="165" y="273" on="1"/>
        <pt x="145" y="178" on="0"/>
        <pt x="225" y="63" on="0"/>
        <pt x="323" y="63" on="1"/>
        <pt x="417" y="63" on="0"/>
        <pt x="539" y="179" on="0"/>
        <pt x="559" y="269" on="1"/>
        <pt x="659" y="740" on="1"/>
        <pt x="736" y="740" on="1"/>
        <pt x="636" y="269" on="1"/>
        <pt x="618" y="185" on="0"/>
        <pt x="532" y="60" on="0"/>
        <pt x="401" y="-10" on="0"/>
      </contour>
    </TTGlyph>
    <TTGlyph name="Uacute" xMin="71" yMin="-10" xMax="736" yMax="994">
      <contour>
        <pt x="511" y="823" on="1"/>
        <pt x="449" y="823" on="1"/>
        <pt x="535" y="994" on="1"/>
        <pt x="611" y="994" on="1"/>
      </contour>
      <contour>
        <pt x="315" y="-10" on="1"/>
        <pt x="229" y="-10" on="0"/>
        <pt x="115" y="63" on="0"/>
        <pt x="71" y="193" on="0"/>
        <pt x="90" y="281" on="1"/>
        <pt x="188" y="740" on="1"/>
        <pt x="265" y="740" on="1"/>
        <pt x="165" y="273" on="1"/>
        <pt x="145" y="178" on="0"/>
        <pt x="225" y="63" on="0"/>
        <pt x="323" y="63" on="1"/>
        <pt x="417" y="63" on="0"/>
        <pt x="539" y="179" on="0"/>
        <pt x="559" y="269" on="1"/>
        <pt x="659" y="740" on="1"/>
        <pt x="736" y="740" on="1"/>
        <pt x="636" y="269" on="1"/>
        <pt x="618" y="185" on="0"/>
        <pt x="532" y="60" on="0"/>
        <pt x="401" y="-10" on="0"/>
      </contour>
    </TTGlyph>
    <TTGlyph name="Ucircumflex" xMin="71" yMin="-10" xMax="736" yMax="979">
      <contour>
        <pt x="325" y="817" on="1"/>
        <pt x="476" y="979" on="1"/>
        <pt x="543" y="979" on="1"/>
        <pt x="626" y="817" on="1"/>
        <pt x="561" y="817" on="1"/>
        <pt x="504" y="930" on="1"/>
        <pt x="400" y="817" on="1"/>
      </contour>
      <contour>
        <pt x="315" y="-10" on="1"/>
        <pt x="229" y="-10" on="0"/>
        <pt x="115" y="63" on="0"/>
        <pt x="71" y="193" on="0"/>
        <pt x="90" y="281" on="1"/>
        <pt x="188" y="740" on="1"/>
        <pt x="265" y="740" on="1"/>
        <pt x="165" y="273" on="1"/>
        <pt x="145" y="178" on="0"/>
        <pt x="225" y="63" on="0"/>
        <pt x="323" y="63" on="1"/>
        <pt x="417" y="63" on="0"/>
        <pt x="539" y="179" on="0"/>
        <pt x="559" y="269" on="1"/>
        <pt x="659" y="740" on="1"/>
        <pt x="736" y="740" on="1"/>
        <pt x="636" y="269" on="1"/>
        <pt x="618" y="185" on="0"/>
        <pt x="532" y="60" on="0"/>
        <pt x="401" y="-10" on="0"/>
      </contour>
    </TTGlyph>
    <TTGlyph name="Udieresis" xMin="71" yMin="-10" xMax="736" yMax="933">
      <contour>
        <pt x="574" y="827" on="1"/>
        <pt x="551" y="827" on="0"/>
        <pt x="522" y="859" on="0"/>
        <pt x="522" y="880" on="1"/>
        <pt x="522" y="902" on="0"/>
        <pt x="551" y="933" on="0"/>
        <pt x="574" y="933" on="1"/>
        <pt x="597" y="933" on="0"/>
        <pt x="628" y="902" on="0"/>
        <pt x="628" y="880" on="1"/>
        <pt x="628" y="858" on="0"/>
        <pt x="597" y="827" on="0"/>
      </contour>
      <contour>
        <pt x="401" y="827" on="1"/>
        <pt x="378" y="827" on="0"/>
        <pt x="349" y="859" on="0"/>
        <pt x="349" y="880" on="1"/>
        <pt x="349" y="902" on="0"/>
        <pt x="378" y="933" on="0"/>
        <pt x="401" y="933" on="1"/>
        <pt x="424" y="933" on="0"/>
        <pt x="455" y="902" on="0"/>
        <pt x="455" y="880" on="1"/>
        <pt x="455" y="858" on="0"/>
        <pt x="424" y="827" on="0"/>
      </contour>
      <contour>
        <pt x="315" y="-10" on="1"/>
        <pt x="229" y="-10" on="0"/>
        <pt x="115" y="63" on="0"/>
        <pt x="71" y="193" on="0"/>
        <pt x="90" y="281" on="1"/>
        <pt x="188" y="740" on="1"/>
        <pt x="265" y="740" on="1"/>
        <pt x="165" y="273" on="1"/>
        <pt x="145" y="178" on="0"/>
        <pt x="225" y="63" on="0"/>
        <pt x="323" y="63" on="1"/>
        <pt x="417" y="63" on="0"/>
        <pt x="539" y="179" on="0"/>
        <pt x="559" y="269" on="1"/>
        <pt x="659" y="740" on="1"/>
        <pt x="736" y="740" on="1"/>
        <pt x="636" y="269" on="1"/>
        <pt x="618" y="185" on="0"/>
        <pt x="532" y="60" on="0"/>
        <pt x="401" y="-10" on="0"/>
      </contour>
    </TTGlyph>
    <TTGlyph name="Ugrave" xMin="71" yMin="-10" xMax="736" yMax="994">
      <contour>
        <pt x="438" y="823" on="1"/>
        <pt x="362" y="994" on="1"/>
        <pt x="436" y="994" on="1"/>
        <pt x="498" y="823" on="1"/>
      </contour>
      <contour>
        <pt x="315" y="-10" on="1"/>
        <pt x="229" y="-10" on="0"/>
        <pt x="115" y="63" on="0"/>
        <pt x="71" y="193" on="0"/>
        <pt x="90" y="281" on="1"/>
        <pt x="188" y="740" on="1"/>
        <pt x="265" y="740" on="1"/>
        <pt x="165" y="273" on="1"/>
        <pt x="145" y="178" on="0"/>
        <pt x="225" y="63" on="0"/>
        <pt x="323" y="63" on="1"/>
        <pt x="417" y="63" on="0"/>
        <pt x="539" y="179" on="0"/>
        <pt x="559" y="269" on="1"/>
        <pt x="659" y="740" on="1"/>
        <pt x="736" y="740" on="1"/>
        <pt x="636" y="269" on="1"/>
        <pt x="618" y="185" on="0"/>
        <pt x="532" y="60" on="0"/>
        <pt x="401" y="-10" on="0"/>
      </contour>
    </TTGlyph>
    <TTGlyph name="Uhorn" xMin="71" yMin="-10" xMax="861" yMax="837">
      <contour>
        <pt x="315" y="-10" on="1"/>
        <pt x="229" y="-10" on="0"/>
        <pt x="115" y="63" on="0"/>
        <pt x="71" y="193" on="0"/>
        <pt x="90" y="281" on="1"/>
        <pt x="188" y="740" on="1"/>
        <pt x="265" y="740" on="1"/>
        <pt x="165" y="273" on="1"/>
        <pt x="145" y="178" on="0"/>
        <pt x="225" y="63" on="0"/>
        <pt x="323" y="63" on="1"/>
        <pt x="417" y="63" on="0"/>
        <pt x="539" y="179" on="0"/>
        <pt x="559" y="269" on="1"/>
        <pt x="659" y="740" on="1"/>
        <pt x="721" y="740" on="1"/>
        <pt x="748" y="740" on="0"/>
        <pt x="775" y="762" on="0"/>
        <pt x="780" y="787" on="1"/>
        <pt x="790" y="837" on="1"/>
        <pt x="861" y="837" on="1"/>
        <pt x="847" y="776" on="1"/>
        <pt x="829" y="688" on="0"/>
        <pt x="742" y="688" on="1"/>
        <pt x="725" y="688" on="1"/>
        <pt x="636" y="269" on="1"/>
        <pt x="618" y="185" on="0"/>
        <pt x="532" y="60" on="0"/>
        <pt x="401" y="-10" on="0"/>
      </contour>
    </TTGlyph>
    <TTGlyph name="Uhungarumlaut" xMin="71" yMin="-10" xMax="736" yMax="994">
      <contour>
        <pt x="431" y="823" on="1"/>
        <pt x="363" y="823" on="1"/>
        <pt x="463" y="994" on="1"/>
        <pt x="545" y="994" on="1"/>
      </contour>
      <contour>
        <pt x="579" y="823" on="1"/>
        <pt x="510" y="823" on="1"/>
        <pt x="617" y="994" on="1"/>
        <pt x="700" y="994" on="1"/>
      </contour>
      <contour>
        <pt x="315" y="-10" on="1"/>
        <pt x="229" y="-10" on="0"/>
        <pt x="115" y="63" on="0"/>
        <pt x="71" y="193" on="0"/>
        <pt x="90" y="281" on="1"/>
        <pt x="188" y="740" on="1"/>
        <pt x="265" y="740" on="1"/>
        <pt x="165" y="273" on="1"/>
        <pt x="145" y="178" on="0"/>
        <pt x="225" y="63" on="0"/>
        <pt x="323" y="63" on="1"/>
        <pt x="417" y="63" on="0"/>
        <pt x="539" y="179" on="0"/>
        <pt x="559" y="269" on="1"/>
        <pt x="659" y="740" on="1"/>
        <pt x="736" y="740" on="1"/>
        <pt x="636" y="269" on="1"/>
        <pt x="618" y="185" on="0"/>
        <pt x="532" y="60" on="0"/>
        <pt x="401" y="-10" on="0"/>
      </contour>
    </TTGlyph>
    <TTGlyph name="Umacron" xMin="71" yMin="-10" xMax="736" yMax="906">
      <contour>
        <pt x="333" y="848" on="1"/>
        <pt x="346" y="906" on="1"/>
        <pt x="642" y="906" on="1"/>
        <pt x="629" y="848" on="1"/>
      </contour>
      <contour>
        <pt x="315" y="-10" on="1"/>
        <pt x="229" y="-10" on="0"/>
        <pt x="115" y="63" on="0"/>
        <pt x="71" y="193" on="0"/>
        <pt x="90" y="281" on="1"/>
        <pt x="188" y="740" on="1"/>
        <pt x="265" y="740" on="1"/>
        <pt x="165" y="273" on="1"/>
        <pt x="145" y="178" on="0"/>
        <pt x="225" y="63" on="0"/>
        <pt x="323" y="63" on="1"/>
        <pt x="417" y="63" on="0"/>
        <pt x="539" y="179" on="0"/>
        <pt x="559" y="269" on="1"/>
        <pt x="659" y="740" on="1"/>
        <pt x="736" y="740" on="1"/>
        <pt x="636" y="269" on="1"/>
        <pt x="618" y="185" on="0"/>
        <pt x="532" y="60" on="0"/>
        <pt x="401" y="-10" on="0"/>
      </contour>
    </TTGlyph>
    <TTGlyph name="Uogonek" xMin="72" yMin="-167" xMax="736" yMax="740">
      <contour>
        <pt x="311" y="-167" on="1"/>
        <pt x="267" y="-167" on="0"/>
        <pt x="217" y="-128" on="0"/>
        <pt x="217" y="-94" on="1"/>
        <pt x="217" y="-62" on="0"/>
        <pt x="256" y="-20" on="0"/>
        <pt x="277" y="-8" on="1"/>
        <pt x="203" y="0" on="0"/>
        <pt x="108" y="76" on="0"/>
        <pt x="72" y="200" on="0"/>
        <pt x="90" y="281" on="1"/>
        <pt x="188" y="740" on="1"/>
        <pt x="265" y="740" on="1"/>
        <pt x="165" y="273" on="1"/>
        <pt x="145" y="178" on="0"/>
        <pt x="225" y="63" on="0"/>
        <pt x="323" y="63" on="1"/>
        <pt x="417" y="63" on="0"/>
        <pt x="539" y="179" on="0"/>
        <pt x="559" y="269" on="1"/>
        <pt x="659" y="740" on="1"/>
        <pt x="736" y="740" on="1"/>
        <pt x="636" y="269" on="1"/>
        <pt x="610" y="150" on="0"/>
        <pt x="459" y="-1" on="0"/>
        <pt x="342" y="-9" on="1"/>
        <pt x="333" y="-13" on="0"/>
        <pt x="302" y="-32" on="0"/>
        <pt x="277" y="-61" on="0"/>
        <pt x="277" y="-81" on="1"/>
        <pt x="277" y="-118" on="0"/>
        <pt x="328" y="-118" on="1"/>
        <pt x="342" y="-118" on="0"/>
        <pt x="366" y="-113" on="0"/>
        <pt x="366" y="-113" on="1"/>
        <pt x="356" y="-161" on="1"/>
        <pt x="356" y="-161" on="0"/>
        <pt x="331" y="-167" on="0"/>
      </contour>
    </TTGlyph>
    <TTGlyph name="Uring" xMin="71" yMin="-10" xMax="736" yMax="1049">
      <contour>
        <pt x="471" y="816" on="1"/>
        <pt x="439" y="816" on="0"/>
        <pt x="386" y="847" on="0"/>
        <pt x="354" y="900" on="0"/>
        <pt x="354" y="932" on="1"/>
        <pt x="354" y="965" on="0"/>
        <pt x="386" y="1018" on="0"/>
        <pt x="439" y="1049" on="0"/>
        <pt x="471" y="1049" on="1"/>
        <pt x="503" y="1049" on="0"/>
        <pt x="556" y="1018" on="0"/>
        <pt x="588" y="965" on="0"/>
        <pt x="588" y="932" on="1"/>
        <pt x="588" y="900" on="0"/>
        <pt x="556" y="847" on="0"/>
        <pt x="503" y="816" on="0"/>
      </contour>
      <contour>
        <pt x="471" y="871" on="1"/>
        <pt x="497" y="871" on="0"/>
        <pt x="532" y="907" on="0"/>
        <pt x="532" y="932" on="1"/>
        <pt x="532" y="958" on="0"/>
        <pt x="497" y="994" on="0"/>
        <pt x="471" y="994" on="1"/>
        <pt x="446" y="994" on="0"/>
        <pt x="410" y="958" on="0"/>
        <pt x="410" y="932" on="1"/>
        <pt x="410" y="907" on="0"/>
        <pt x="446" y="871" on="0"/>
      </contour>
      <contour>
        <pt x="315" y="-10" on="1"/>
        <pt x="229" y="-10" on="0"/>
        <pt x="115" y="63" on="0"/>
        <pt x="71" y="193" on="0"/>
        <pt x="90" y="281" on="1"/>
        <pt x="188" y="740" on="1"/>
        <pt x="265" y="740" on="1"/>
        <pt x="165" y="273" on="1"/>
        <pt x="145" y="178" on="0"/>
        <pt x="225" y="63" on="0"/>
        <pt x="323" y="63" on="1"/>
        <pt x="417" y="63" on="0"/>
        <pt x="539" y="179" on="0"/>
        <pt x="559" y="269" on="1"/>
        <pt x="659" y="740" on="1"/>
        <pt x="736" y="740" on="1"/>
        <pt x="636" y="269" on="1"/>
        <pt x="618" y="185" on="0"/>
        <pt x="532" y="60" on="0"/>
        <pt x="401" y="-10" on="0"/>
      </contour>
    </TTGlyph>
    <TTGlyph name="Utilde" xMin="71" yMin="-10" xMax="736" yMax="956">
      <contour>
        <pt x="552" y="828" on="1"/>
        <pt x="527" y="828" on="0"/>
        <pt x="494" y="850" on="0"/>
        <pt x="470" y="880" on="0"/>
        <pt x="447" y="902" on="0"/>
        <pt x="432" y="902" on="1"/>
        <pt x="415" y="902" on="0"/>
        <pt x="393" y="865" on="0"/>
        <pt x="388" y="833" on="1"/>
        <pt x="336" y="833" on="1"/>
        <pt x="346" y="888" on="0"/>
        <pt x="391" y="956" on="0"/>
        <pt x="434" y="956" on="1"/>
        <pt x="459" y="956" on="0"/>
        <pt x="493" y="934" on="0"/>
        <pt x="517" y="905" on="0"/>
        <pt x="539" y="883" on="0"/>
        <pt x="553" y="883" on="1"/>
        <pt x="585" y="883" on="0"/>
        <pt x="596" y="951" on="1"/>
        <pt x="648" y="951" on="1"/>
        <pt x="638" y="897" on="0"/>
        <pt x="594" y="828" on="0"/>
      </contour>
      <contour>
        <pt x="315" y="-10" on="1"/>
        <pt x="229" y="-10" on="0"/>
        <pt x="115" y="63" on="0"/>
        <pt x="71" y="193" on="0"/>
        <pt x="90" y="281" on="1"/>
        <pt x="188" y="740" on="1"/>
        <pt x="265" y="740" on="1"/>
        <pt x="165" y="273" on="1"/>
        <pt x="145" y="178" on="0"/>
        <pt x="225" y="63" on="0"/>
        <pt x="323" y="63" on="1"/>
        <pt x="417" y="63" on="0"/>
        <pt x="539" y="179" on="0"/>
        <pt x="559" y="269" on="1"/>
        <pt x="659" y="740" on="1"/>
        <pt x="736" y="740" on="1"/>
        <pt x="636" y="269" on="1"/>
        <pt x="618" y="185" on="0"/>
        <pt x="532" y="60" on="0"/>
        <pt x="401" y="-10" on="0"/>
      </contour>
    </TTGlyph>
    <TTGlyph name="V" xMin="116" yMin="0" xMax="735" yMax="740">
      <contour>
        <pt x="222" y="0" on="1"/>
        <pt x="116" y="740" on="1"/>
        <pt x="192" y="740" on="1"/>
        <pt x="282" y="92" on="1"/>
        <pt x="648" y="740" on="1"/>
        <pt x="735" y="740" on="1"/>
        <pt x="314" y="0" on="1"/>
      </contour>
    </TTGlyph>
    <TTGlyph name="W" xMin="126" yMin="0" xMax="1036" yMax="740">
      <contour>
        <pt x="170" y="0" on="1"/>
        <pt x="126" y="740" on="1"/>
        <pt x="201" y="740" on="1"/>
        <pt x="235" y="112" on="1"/>
        <pt x="541" y="740" on="1"/>
        <pt x="617" y="740" on="1"/>
        <pt x="657" y="113" on="1"/>
        <pt x="953" y="740" on="1"/>
        <pt x="1036" y="740" on="1"/>
        <pt x="681" y="0" on="1"/>
        <pt x="593" y="0" on="1"/>
        <pt x="555" y="615" on="1"/>
        <pt x="256" y="0" on="1"/>
      </contour>
    </TTGlyph>
    <TTGlyph name="Wacute" xMin="111" yMin="0" xMax="1021" yMax="994">
      <contour>
        <pt x="618" y="823" on="1"/>
        <pt x="556" y="823" on="1"/>
        <pt x="642" y="994" on="1"/>
        <pt x="718" y="994" on="1"/>
      </contour>
      <contour>
        <pt x="154" y="0" on="1"/>
        <pt x="111" y="740" on="1"/>
        <pt x="186" y="740" on="1"/>
        <pt x="220" y="112" on="1"/>
        <pt x="525" y="740" on="1"/>
        <pt x="602" y="740" on="1"/>
        <pt x="642" y="113" on="1"/>
        <pt x="938" y="740" on="1"/>
        <pt x="1021" y="740" on="1"/>
        <pt x="665" y="0" on="1"/>
        <pt x="578" y="0" on="1"/>
        <pt x="539" y="615" on="1"/>
        <pt x="241" y="0" on="1"/>
      </contour>
    </TTGlyph>
    <TTGlyph name="Wcircumflex" xMin="111" yMin="0" xMax="1021" yMax="979">
      <contour>
        <pt x="432" y="817" on="1"/>
        <pt x="584" y="979" on="1"/>
        <pt x="650" y="979" on="1"/>
        <pt x="734" y="817" on="1"/>
        <pt x="668" y="817" on="1"/>
        <pt x="612" y="930" on="1"/>
        <pt x="508" y="817" on="1"/>
      </contour>
      <contour>
        <pt x="154" y="0" on="1"/>
        <pt x="111" y="740" on="1"/>
        <pt x="186" y="740" on="1"/>
        <pt x="220" y="112" on="1"/>
        <pt x="525" y="740" on="1"/>
        <pt x="602" y="740" on="1"/>
        <pt x="642" y="113" on="1"/>
        <pt x="938" y="740" on="1"/>
        <pt x="1021" y="740" on="1"/>
        <pt x="665" y="0" on="1"/>
        <pt x="578" y="0" on="1"/>
        <pt x="539" y="615" on="1"/>
        <pt x="241" y="0" on="1"/>
      </contour>
    </TTGlyph>
    <TTGlyph name="Wdieresis" xMin="111" yMin="0" xMax="1021" yMax="933">
      <contour>
        <pt x="682" y="827" on="1"/>
        <pt x="659" y="827" on="0"/>
        <pt x="629" y="859" on="0"/>
        <pt x="629" y="880" on="1"/>
        <pt x="629" y="902" on="0"/>
        <pt x="659" y="933" on="0"/>
        <pt x="682" y="933" on="1"/>
        <pt x="704" y="933" on="0"/>
        <pt x="735" y="902" on="0"/>
        <pt x="735" y="880" on="1"/>
        <pt x="735" y="858" on="0"/>
        <pt x="704" y="827" on="0"/>
      </contour>
      <contour>
        <pt x="509" y="827" on="1"/>
        <pt x="486" y="827" on="0"/>
        <pt x="456" y="859" on="0"/>
        <pt x="456" y="880" on="1"/>
        <pt x="456" y="902" on="0"/>
        <pt x="486" y="933" on="0"/>
        <pt x="509" y="933" on="1"/>
        <pt x="531" y="933" on="0"/>
        <pt x="562" y="902" on="0"/>
        <pt x="562" y="880" on="1"/>
        <pt x="562" y="858" on="0"/>
        <pt x="531" y="827" on="0"/>
      </contour>
      <contour>
        <pt x="154" y="0" on="1"/>
        <pt x="111" y="740" on="1"/>
        <pt x="186" y="740" on="1"/>
        <pt x="220" y="112" on="1"/>
        <pt x="525" y="740" on="1"/>
        <pt x="602" y="740" on="1"/>
        <pt x="642" y="113" on="1"/>
        <pt x="938" y="740" on="1"/>
        <pt x="1021" y="740" on="1"/>
        <pt x="665" y="0" on="1"/>
        <pt x="578" y="0" on="1"/>
        <pt x="539" y="615" on="1"/>
        <pt x="241" y="0" on="1"/>
      </contour>
    </TTGlyph>
    <TTGlyph name="Wgrave" xMin="111" yMin="0" xMax="1021" yMax="994">
      <contour>
        <pt x="545" y="823" on="1"/>
        <pt x="470" y="994" on="1"/>
        <pt x="544" y="994" on="1"/>
        <pt x="605" y="823" on="1"/>
      </contour>
      <contour>
        <pt x="154" y="0" on="1"/>
        <pt x="111" y="740" on="1"/>
        <pt x="186" y="740" on="1"/>
        <pt x="220" y="112" on="1"/>
        <pt x="525" y="740" on="1"/>
        <pt x="602" y="740" on="1"/>
        <pt x="642" y="113" on="1"/>
        <pt x="938" y="740" on="1"/>
        <pt x="1021" y="740" on="1"/>
        <pt x="665" y="0" on="1"/>
        <pt x="578" y="0" on="1"/>
        <pt x="539" y="615" on="1"/>
        <pt x="241" y="0" on="1"/>
      </contour>
    </TTGlyph>
    <TTGlyph name="X" xMin="-10" yMin="0" xMax="747" yMax="740">
      <contour>
        <pt x="-10" y="0" on="1"/>
        <pt x="323" y="383" on="1"/>
        <pt x="164" y="740" on="1"/>
        <pt x="246" y="740" on="1"/>
        <pt x="381" y="431" on="1"/>
        <pt x="647" y="740" on="1"/>
        <pt x="747" y="740" on="1"/>
        <pt x="418" y="362" on="1"/>
        <pt x="579" y="0" on="1"/>
        <pt x="496" y="0" on="1"/>
        <pt x="360" y="313" on="1"/>
        <pt x="90" y="0" on="1"/>
      </contour>
    </TTGlyph>
    <TTGlyph name="Y" xMin="108" yMin="0" xMax="709" yMax="740">
      <contour>
        <pt x="213" y="0" on="1"/>
        <pt x="270" y="269" on="1"/>
        <pt x="108" y="740" on="1"/>
        <pt x="186" y="740" on="1"/>
        <pt x="319" y="348" on="1"/>
        <pt x="616" y="740" on="1"/>
        <pt x="709" y="740" on="1"/>
        <pt x="346" y="267" on="1"/>
        <pt x="290" y="0" on="1"/>
      </contour>
    </TTGlyph>
    <TTGlyph name="Yacute" xMin="102" yMin="0" xMax="703" yMax="994">
      <contour>
        <pt x="449" y="823" on="1"/>
        <pt x="387" y="823" on="1"/>
        <pt x="473" y="994" on="1"/>
        <pt x="549" y="994" on="1"/>
      </contour>
      <contour>
        <pt x="207" y="0" on="1"/>
        <pt x="264" y="269" on="1"/>
        <pt x="102" y="740" on="1"/>
        <pt x="180" y="740" on="1"/>
        <pt x="313" y="348" on="1"/>
        <pt x="610" y="740" on="1"/>
        <pt x="703" y="740" on="1"/>
        <pt x="340" y="267" on="1"/>
        <pt x="284" y="0" on="1"/>
      </contour>
    </TTGlyph>
    <TTGlyph name="Ycircumflex" xMin="102" yMin="0" xMax="703" yMax="979">
      <contour>
        <pt x="263" y="817" on="1"/>
        <pt x="414" y="979" on="1"/>
        <pt x="481" y="979" on="1"/>
        <pt x="564" y="817" on="1"/>
        <pt x="499" y="817" on="1"/>
        <pt x="442" y="930" on="1"/>
        <pt x="338" y="817" on="1"/>
      </contour>
      <contour>
        <pt x="207" y="0" on="1"/>
        <pt x="264" y="269" on="1"/>
        <pt x="102" y="740" on="1"/>
        <pt x="180" y="740" on="1"/>
        <pt x="313" y="348" on="1"/>
        <pt x="610" y="740" on="1"/>
        <pt x="703" y="740" on="1"/>
        <pt x="340" y="267" on="1"/>
        <pt x="284" y="0" on="1"/>
      </contour>
    </TTGlyph>
    <TTGlyph name="Ydieresis" xMin="102" yMin="0" xMax="703" yMax="933">
      <contour>
        <pt x="512" y="827" on="1"/>
        <pt x="489" y="827" on="0"/>
        <pt x="460" y="859" on="0"/>
        <pt x="460" y="880" on="1"/>
        <pt x="460" y="902" on="0"/>
        <pt x="489" y="933" on="0"/>
        <pt x="512" y="933" on="1"/>
        <pt x="535" y="933" on="0"/>
        <pt x="566" y="902" on="0"/>
        <pt x="566" y="880" on="1"/>
        <pt x="566" y="858" on="0"/>
        <pt x="535" y="827" on="0"/>
      </contour>
      <contour>
        <pt x="339" y="827" on="1"/>
        <pt x="316" y="827" on="0"/>
        <pt x="287" y="859" on="0"/>
        <pt x="287" y="880" on="1"/>
        <pt x="287" y="902" on="0"/>
        <pt x="316" y="933" on="0"/>
        <pt x="339" y="933" on="1"/>
        <pt x="362" y="933" on="0"/>
        <pt x="393" y="902" on="0"/>
        <pt x="393" y="880" on="1"/>
        <pt x="393" y="858" on="0"/>
        <pt x="362" y="827" on="0"/>
      </contour>
      <contour>
        <pt x="207" y="0" on="1"/>
        <pt x="264" y="269" on="1"/>
        <pt x="102" y="740" on="1"/>
        <pt x="180" y="740" on="1"/>
        <pt x="313" y="348" on="1"/>
        <pt x="610" y="740" on="1"/>
        <pt x="703" y="740" on="1"/>
        <pt x="340" y="267" on="1"/>
        <pt x="284" y="0" on="1"/>
      </contour>
    </TTGlyph>
    <TTGlyph name="Ygrave" xMin="102" yMin="0" xMax="703" yMax="994">
      <contour>
        <pt x="376" y="823" on="1"/>
        <pt x="300" y="994" on="1"/>
        <pt x="374" y="994" on="1"/>
        <pt x="436" y="823" on="1"/>
      </contour>
      <contour>
        <pt x="207" y="0" on="1"/>
        <pt x="264" y="269" on="1"/>
        <pt x="102" y="740" on="1"/>
        <pt x="180" y="740" on="1"/>
        <pt x="313" y="348" on="1"/>
        <pt x="610" y="740" on="1"/>
        <pt x="703" y="740" on="1"/>
        <pt x="340" y="267" on="1"/>
        <pt x="284" y="0" on="1"/>
      </contour>
    </TTGlyph>
    <TTGlyph name="Z" xMin="-1" yMin="0" xMax="665" yMax="740">
      <contour>
        <pt x="-1" y="0" on="1"/>
        <pt x="12" y="61" on="1"/>
        <pt x="549" y="671" on="1"/>
        <pt x="141" y="671" on="1"/>
        <pt x="156" y="740" on="1"/>
        <pt x="665" y="740" on="1"/>
        <pt x="652" y="679" on="1"/>
        <pt x="114" y="69" on="1"/>
        <pt x="523" y="69" on="1"/>
        <pt x="508" y="0" on="1"/>
      </contour>
    </TTGlyph>
    <TTGlyph name="Zacute" xMin="-1" yMin="0" xMax="665" yMax="994">
      <contour>
        <pt x="460" y="823" on="1"/>
        <pt x="398" y="823" on="1"/>
        <pt x="484" y="994" on="1"/>
        <pt x="560" y="994" on="1"/>
      </contour>
      <contour>
        <pt x="-1" y="0" on="1"/>
        <pt x="12" y="61" on="1"/>
        <pt x="549" y="671" on="1"/>
        <pt x="141" y="671" on="1"/>
        <pt x="156" y="740" on="1"/>
        <pt x="665" y="740" on="1"/>
        <pt x="652" y="679" on="1"/>
        <pt x="114" y="69" on="1"/>
        <pt x="523" y="69" on="1"/>
        <pt x="508" y="0" on="1"/>
      </contour>
    </TTGlyph>
    <TTGlyph name="Zcaron" xMin="-1" yMin="0" xMax="665" yMax="978">
      <contour>
        <pt x="386" y="816" on="1"/>
        <pt x="302" y="978" on="1"/>
        <pt x="367" y="978" on="1"/>
        <pt x="424" y="865" on="1"/>
        <pt x="528" y="978" on="1"/>
        <pt x="604" y="978" on="1"/>
        <pt x="452" y="816" on="1"/>
      </contour>
      <contour>
        <pt x="-1" y="0" on="1"/>
        <pt x="12" y="61" on="1"/>
        <pt x="549" y="671" on="1"/>
        <pt x="141" y="671" on="1"/>
        <pt x="156" y="740" on="1"/>
        <pt x="665" y="740" on="1"/>
        <pt x="652" y="679" on="1"/>
        <pt x="114" y="69" on="1"/>
        <pt x="523" y="69" on="1"/>
        <pt x="508" y="0" on="1"/>
      </contour>
    </TTGlyph>
    <TTGlyph name="Zdotaccent" xMin="-1" yMin="0" xMax="665" yMax="943">
      <contour>
        <pt x="440" y="837" on="1"/>
        <pt x="417" y="837" on="0"/>
        <pt x="387" y="869" on="0"/>
        <pt x="387" y="890" on="1"/>
        <pt x="387" y="912" on="0"/>
        <pt x="417" y="943" on="0"/>
        <pt x="440" y="943" on="1"/>
        <pt x="462" y="943" on="0"/>
        <pt x="493" y="912" on="0"/>
        <pt x="493" y="890" on="1"/>
        <pt x="493" y="868" on="0"/>
        <pt x="462" y="837" on="0"/>
      </contour>
      <contour>
        <pt x="-1" y="0" on="1"/>
        <pt x="12" y="61" on="1"/>
        <pt x="549" y="671" on="1"/>
        <pt x="141" y="671" on="1"/>
        <pt x="156" y="740" on="1"/>
        <pt x="665" y="740" on="1"/>
        <pt x="652" y="679" on="1"/>
        <pt x="114" y="69" on="1"/>
        <pt x="523" y="69" on="1"/>
        <pt x="508" y="0" on="1"/>
      </contour>
    </TTGlyph>
    <TTGlyph name="a" xMin="52" yMin="-10" xMax="608" yMax="540">
      <contour>
        <pt x="330" y="540" on="1"/>
        <pt x="376" y="540" on="0"/>
        <pt x="439" y="513" on="0"/>
        <pt x="479" y="475" on="0"/>
        <pt x="501" y="437" on="0"/>
        <pt x="505" y="426" on="1"/>
        <pt x="510" y="426" on="1"/>
        <pt x="533" y="530" on="1"/>
        <pt x="608" y="530" on="1"/>
        <pt x="495" y="0" on="1"/>
        <pt x="419" y="0" on="1"/>
        <pt x="437" y="83" on="1"/>
        <pt x="432" y="83" on="1"/>
        <pt x="432" y="83" on="0"/>
        <pt x="411" y="55" on="0"/>
        <pt x="368" y="18" on="0"/>
        <pt x="301" y="-10" on="0"/>
        <pt x="255" y="-10" on="1"/>
        <pt x="187" y="-10" on="0"/>
        <pt x="97" y="55" on="0"/>
        <pt x="52" y="161" on="0"/>
        <pt x="52" y="222" on="1"/>
        <pt x="52" y="278" on="0"/>
        <pt x="89" y="391" on="0"/>
        <pt x="160" y="484" on="0"/>
        <pt x="264" y="540" on="0"/>
      </contour>
      <contour>
        <pt x="334" y="475" on="1"/>
        <pt x="285" y="475" on="0"/>
        <pt x="207" y="429" on="0"/>
        <pt x="154" y="355" on="0"/>
        <pt x="126" y="265" on="0"/>
        <pt x="126" y="221" on="1"/>
        <pt x="126" y="177" on="0"/>
        <pt x="156" y="102" on="0"/>
        <pt x="218" y="55" on="0"/>
        <pt x="268" y="55" on="1"/>
        <pt x="316" y="55" on="0"/>
        <pt x="393" y="101" on="0"/>
        <pt x="447" y="176" on="0"/>
        <pt x="475" y="266" on="0"/>
        <pt x="475" y="310" on="1"/>
        <pt x="475" y="354" on="0"/>
        <pt x="445" y="429" on="0"/>
        <pt x="383" y="475" on="0"/>
      </contour>
    </TTGlyph>
    <TTGlyph name="a.ss01" xMin="31" yMin="-10" xMax="508" yMax="540">
      <contour>
        <pt x="359" y="75" on="1"/>
        <pt x="359" y="75" on="0"/>
        <pt x="340" y="49" on="0"/>
        <pt x="299" y="16" on="0"/>
        <pt x="237" y="-10" on="0"/>
        <pt x="193" y="-10" on="1"/>
        <pt x="118" y="-10" on="0"/>
        <pt x="31" y="72" on="0"/>
        <pt x="31" y="135" on="1"/>
        <pt x="31" y="177" on="0"/>
        <pt x="75" y="250" on="0"/>
        <pt x="165" y="296" on="0"/>
        <pt x="236" y="299" on="1"/>
        <pt x="416" y="306" on="1"/>
        <pt x="422" y="335" on="1"/>
        <pt x="429" y="365" on="0"/>
        <pt x="418" y="430" on="0"/>
        <pt x="365" y="476" on="0"/>
        <pt x="309" y="476" on="1"/>
        <pt x="262" y="476" on="0"/>
        <pt x="205" y="444" on="0"/>
        <pt x="176" y="403" on="0"/>
        <pt x="167" y="372" on="0"/>
        <pt x="167" y="372" on="1"/>
        <pt x="93" y="372" on="1"/>
        <pt x="93" y="372" on="0"/>
        <pt x="103" y="406" on="0"/>
        <pt x="129" y="456" on="0"/>
        <pt x="178" y="506" on="0"/>
        <pt x="255" y="540" on="0"/>
        <pt x="311" y="540" on="1"/>
        <pt x="380" y="540" on="0"/>
        <pt x="471" y="483" on="0"/>
        <pt x="508" y="386" on="0"/>
        <pt x="495" y="326" on="1"/>
        <pt x="426" y="0" on="1"/>
        <pt x="351" y="0" on="1"/>
        <pt x="367" y="75" on="1"/>
      </contour>
      <contour>
        <pt x="105" y="140" on="1"/>
        <pt x="105" y="94" on="0"/>
        <pt x="170" y="51" on="0"/>
        <pt x="212" y="51" on="1"/>
        <pt x="258" y="51" on="0"/>
        <pt x="335" y="95" on="0"/>
        <pt x="388" y="172" on="0"/>
        <pt x="398" y="219" on="1"/>
        <pt x="404" y="245" on="1"/>
        <pt x="237" y="238" on="1"/>
        <pt x="174" y="236" on="0"/>
        <pt x="105" y="183" on="0"/>
      </contour>
    </TTGlyph>
    <TTGlyph name="aacute" xMin="54" yMin="-10" xMax="610" yMax="784">
      <contour>
        <pt x="415" y="613" on="1"/>
        <pt x="353" y="613" on="1"/>
        <pt x="440" y="784" on="1"/>
        <pt x="515" y="784" on="1"/>
      </contour>
      <contour>
        <pt x="332" y="540" on="1"/>
        <pt x="377" y="540" on="0"/>
        <pt x="440" y="513" on="0"/>
        <pt x="481" y="475" on="0"/>
        <pt x="502" y="437" on="0"/>
        <pt x="507" y="426" on="1"/>
        <pt x="512" y="426" on="1"/>
        <pt x="534" y="530" on="1"/>
        <pt x="610" y="530" on="1"/>
        <pt x="496" y="0" on="1"/>
        <pt x="421" y="0" on="1"/>
        <pt x="439" y="83" on="1"/>
        <pt x="434" y="83" on="1"/>
        <pt x="434" y="83" on="0"/>
        <pt x="413" y="55" on="0"/>
        <pt x="369" y="18" on="0"/>
        <pt x="303" y="-10" on="0"/>
        <pt x="257" y="-10" on="1"/>
        <pt x="189" y="-10" on="0"/>
        <pt x="99" y="55" on="0"/>
        <pt x="54" y="161" on="0"/>
        <pt x="54" y="222" on="1"/>
        <pt x="54" y="278" on="0"/>
        <pt x="91" y="391" on="0"/>
        <pt x="162" y="484" on="0"/>
        <pt x="265" y="540" on="0"/>
      </contour>
      <contour>
        <pt x="335" y="475" on="1"/>
        <pt x="286" y="475" on="0"/>
        <pt x="209" y="429" on="0"/>
        <pt x="155" y="355" on="0"/>
        <pt x="127" y="265" on="0"/>
        <pt x="127" y="221" on="1"/>
        <pt x="127" y="177" on="0"/>
        <pt x="157" y="102" on="0"/>
        <pt x="220" y="55" on="0"/>
        <pt x="269" y="55" on="1"/>
        <pt x="318" y="55" on="0"/>
        <pt x="395" y="101" on="0"/>
        <pt x="449" y="176" on="0"/>
        <pt x="477" y="266" on="0"/>
        <pt x="477" y="310" on="1"/>
        <pt x="477" y="354" on="0"/>
        <pt x="447" y="429" on="0"/>
        <pt x="385" y="475" on="0"/>
      </contour>
    </TTGlyph>
    <TTGlyph name="aacute.ss01" xMin="30" yMin="-10" xMax="506" yMax="784">
      <contour>
        <pt x="378" y="613" on="1"/>
        <pt x="316" y="613" on="1"/>
        <pt x="402" y="784" on="1"/>
        <pt x="478" y="784" on="1"/>
      </contour>
      <contour>
        <pt x="358" y="75" on="1"/>
        <pt x="358" y="75" on="0"/>
        <pt x="339" y="49" on="0"/>
        <pt x="298" y="16" on="0"/>
        <pt x="235" y="-10" on="0"/>
        <pt x="192" y="-10" on="1"/>
        <pt x="117" y="-10" on="0"/>
        <pt x="30" y="72" on="0"/>
        <pt x="30" y="135" on="1"/>
        <pt x="30" y="177" on="0"/>
        <pt x="73" y="250" on="0"/>
        <pt x="164" y="296" on="0"/>
        <pt x="234" y="299" on="1"/>
        <pt x="415" y="306" on="1"/>
        <pt x="421" y="335" on="1"/>
        <pt x="427" y="365" on="0"/>
        <pt x="417" y="430" on="0"/>
        <pt x="366" y="476" on="0"/>
        <pt x="310" y="476" on="1"/>
        <pt x="262" y="476" on="0"/>
        <pt x="205" y="444" on="0"/>
        <pt x="175" y="403" on="0"/>
        <pt x="165" y="372" on="0"/>
        <pt x="165" y="372" on="1"/>
        <pt x="92" y="372" on="1"/>
        <pt x="92" y="372" on="0"/>
        <pt x="102" y="406" on="0"/>
        <pt x="129" y="456" on="0"/>
        <pt x="178" y="506" on="0"/>
        <pt x="256" y="540" on="0"/>
        <pt x="312" y="540" on="1"/>
        <pt x="380" y="540" on="0"/>
        <pt x="471" y="483" on="0"/>
        <pt x="506" y="386" on="0"/>
        <pt x="494" y="326" on="1"/>
        <pt x="425" y="0" on="1"/>
        <pt x="350" y="0" on="1"/>
        <pt x="366" y="75" on="1"/>
      </contour>
      <contour>
        <pt x="104" y="140" on="1"/>
        <pt x="104" y="94" on="0"/>
        <pt x="169" y="51" on="0"/>
        <pt x="211" y="51" on="1"/>
        <pt x="257" y="51" on="0"/>
        <pt x="334" y="95" on="0"/>
        <pt x="387" y="172" on="0"/>
        <pt x="397" y="219" on="1"/>
        <pt x="402" y="245" on="1"/>
        <pt x="236" y="238" on="1"/>
        <pt x="173" y="236" on="0"/>
        <pt x="104" y="183" on="0"/>
      </contour>
    </TTGlyph>
    <TTGlyph name="abreve" xMin="54" yMin="-10" xMax="610" yMax="752">
      <contour>
        <pt x="391" y="608" on="1"/>
        <pt x="345" y="608" on="0"/>
        <pt x="292" y="637" on="0"/>
        <pt x="266" y="680" on="0"/>
        <pt x="258" y="723" on="0"/>
        <pt x="259" y="752" on="0"/>
        <pt x="259" y="752" on="1"/>
        <pt x="317" y="752" on="1"/>
        <pt x="317" y="752" on="0"/>
        <pt x="315" y="725" on="0"/>
        <pt x="325" y="688" on="0"/>
        <pt x="357" y="660" on="0"/>
        <pt x="391" y="660" on="1"/>
        <pt x="425" y="660" on="0"/>
        <pt x="469" y="688" on="0"/>
        <pt x="494" y="725" on="0"/>
        <pt x="504" y="752" on="0"/>
        <pt x="504" y="752" on="1"/>
        <pt x="562" y="752" on="1"/>
        <pt x="562" y="752" on="0"/>
        <pt x="555" y="723" on="0"/>
        <pt x="535" y="680" on="0"/>
        <pt x="497" y="637" on="0"/>
        <pt x="436" y="608" on="0"/>
      </contour>
      <contour>
        <pt x="332" y="540" on="1"/>
        <pt x="377" y="540" on="0"/>
        <pt x="440" y="513" on="0"/>
        <pt x="481" y="475" on="0"/>
        <pt x="502" y="437" on="0"/>
        <pt x="507" y="426" on="1"/>
        <pt x="512" y="426" on="1"/>
        <pt x="534" y="530" on="1"/>
        <pt x="610" y="530" on="1"/>
        <pt x="496" y="0" on="1"/>
        <pt x="421" y="0" on="1"/>
        <pt x="439" y="83" on="1"/>
        <pt x="434" y="83" on="1"/>
        <pt x="434" y="83" on="0"/>
        <pt x="413" y="55" on="0"/>
        <pt x="369" y="18" on="0"/>
        <pt x="303" y="-10" on="0"/>
        <pt x="257" y="-10" on="1"/>
        <pt x="189" y="-10" on="0"/>
        <pt x="99" y="55" on="0"/>
        <pt x="54" y="161" on="0"/>
        <pt x="54" y="222" on="1"/>
        <pt x="54" y="278" on="0"/>
        <pt x="91" y="391" on="0"/>
        <pt x="162" y="484" on="0"/>
        <pt x="265" y="540" on="0"/>
      </contour>
      <contour>
        <pt x="335" y="475" on="1"/>
        <pt x="286" y="475" on="0"/>
        <pt x="209" y="429" on="0"/>
        <pt x="155" y="355" on="0"/>
        <pt x="127" y="265" on="0"/>
        <pt x="127" y="221" on="1"/>
        <pt x="127" y="177" on="0"/>
        <pt x="157" y="102" on="0"/>
        <pt x="220" y="55" on="0"/>
        <pt x="269" y="55" on="1"/>
        <pt x="318" y="55" on="0"/>
        <pt x="395" y="101" on="0"/>
        <pt x="449" y="176" on="0"/>
        <pt x="477" y="266" on="0"/>
        <pt x="477" y="310" on="1"/>
        <pt x="477" y="354" on="0"/>
        <pt x="447" y="429" on="0"/>
        <pt x="385" y="475" on="0"/>
      </contour>
    </TTGlyph>
    <TTGlyph name="abreve.ss01" xMin="30" yMin="-10" xMax="524" yMax="752">
      <contour>
        <pt x="353" y="608" on="1"/>
        <pt x="308" y="608" on="0"/>
        <pt x="255" y="637" on="0"/>
        <pt x="228" y="680" on="0"/>
        <pt x="221" y="723" on="0"/>
        <pt x="222" y="752" on="0"/>
        <pt x="222" y="752" on="1"/>
        <pt x="280" y="752" on="1"/>
        <pt x="280" y="752" on="0"/>
        <pt x="278" y="725" on="0"/>
        <pt x="287" y="688" on="0"/>
        <pt x="319" y="660" on="0"/>
        <pt x="353" y="660" on="1"/>
        <pt x="388" y="660" on="0"/>
        <pt x="432" y="688" on="0"/>
        <pt x="457" y="725" on="0"/>
        <pt x="466" y="752" on="0"/>
        <pt x="466" y="752" on="1"/>
        <pt x="524" y="752" on="1"/>
        <pt x="524" y="752" on="0"/>
        <pt x="517" y="723" on="0"/>
        <pt x="498" y="680" on="0"/>
        <pt x="460" y="637" on="0"/>
        <pt x="399" y="608" on="0"/>
      </contour>
      <contour>
        <pt x="358" y="75" on="1"/>
        <pt x="358" y="75" on="0"/>
        <pt x="339" y="49" on="0"/>
        <pt x="298" y="16" on="0"/>
        <pt x="235" y="-10" on="0"/>
        <pt x="192" y="-10" on="1"/>
        <pt x="117" y="-10" on="0"/>
        <pt x="30" y="72" on="0"/>
        <pt x="30" y="135" on="1"/>
        <pt x="30" y="177" on="0"/>
        <pt x="73" y="250" on="0"/>
        <pt x="164" y="296" on="0"/>
        <pt x="234" y="299" on="1"/>
        <pt x="415" y="306" on="1"/>
        <pt x="421" y="335" on="1"/>
        <pt x="427" y="365" on="0"/>
        <pt x="417" y="430" on="0"/>
        <pt x="366" y="476" on="0"/>
        <pt x="310" y="476" on="1"/>
        <pt x="262" y="476" on="0"/>
        <pt x="205" y="444" on="0"/>
        <pt x="175" y="403" on="0"/>
        <pt x="165" y="372" on="0"/>
        <pt x="165" y="372" on="1"/>
        <pt x="92" y="372" on="1"/>
        <pt x="92" y="372" on="0"/>
        <pt x="102" y="406" on="0"/>
        <pt x="129" y="456" on="0"/>
        <pt x="178" y="506" on="0"/>
        <pt x="256" y="540" on="0"/>
        <pt x="312" y="540" on="1"/>
        <pt x="380" y="540" on="0"/>
        <pt x="471" y="483" on="0"/>
        <pt x="506" y="386" on="0"/>
        <pt x="494" y="326" on="1"/>
        <pt x="425" y="0" on="1"/>
        <pt x="350" y="0" on="1"/>
        <pt x="366" y="75" on="1"/>
      </contour>
      <contour>
        <pt x="104" y="140" on="1"/>
        <pt x="104" y="94" on="0"/>
        <pt x="169" y="51" on="0"/>
        <pt x="211" y="51" on="1"/>
        <pt x="257" y="51" on="0"/>
        <pt x="334" y="95" on="0"/>
        <pt x="387" y="172" on="0"/>
        <pt x="397" y="219" on="1"/>
        <pt x="402" y="245" on="1"/>
        <pt x="236" y="238" on="1"/>
        <pt x="173" y="236" on="0"/>
        <pt x="104" y="183" on="0"/>
      </contour>
    </TTGlyph>
    <TTGlyph name="acircumflex" xMin="54" yMin="-10" xMax="610" yMax="769">
      <contour>
        <pt x="229" y="607" on="1"/>
        <pt x="381" y="769" on="1"/>
        <pt x="447" y="769" on="1"/>
        <pt x="531" y="607" on="1"/>
        <pt x="466" y="607" on="1"/>
        <pt x="409" y="720" on="1"/>
        <pt x="305" y="607" on="1"/>
      </contour>
      <contour>
        <pt x="332" y="540" on="1"/>
        <pt x="377" y="540" on="0"/>
        <pt x="440" y="513" on="0"/>
        <pt x="481" y="475" on="0"/>
        <pt x="502" y="437" on="0"/>
        <pt x="507" y="426" on="1"/>
        <pt x="512" y="426" on="1"/>
        <pt x="534" y="530" on="1"/>
        <pt x="610" y="530" on="1"/>
        <pt x="496" y="0" on="1"/>
        <pt x="421" y="0" on="1"/>
        <pt x="439" y="83" on="1"/>
        <pt x="434" y="83" on="1"/>
        <pt x="434" y="83" on="0"/>
        <pt x="413" y="55" on="0"/>
        <pt x="369" y="18" on="0"/>
        <pt x="303" y="-10" on="0"/>
        <pt x="257" y="-10" on="1"/>
        <pt x="189" y="-10" on="0"/>
        <pt x="99" y="55" on="0"/>
        <pt x="54" y="161" on="0"/>
        <pt x="54" y="222" on="1"/>
        <pt x="54" y="278" on="0"/>
        <pt x="91" y="391" on="0"/>
        <pt x="162" y="484" on="0"/>
        <pt x="265" y="540" on="0"/>
      </contour>
      <contour>
        <pt x="335" y="475" on="1"/>
        <pt x="286" y="475" on="0"/>
        <pt x="209" y="429" on="0"/>
        <pt x="155" y="355" on="0"/>
        <pt x="127" y="265" on="0"/>
        <pt x="127" y="221" on="1"/>
        <pt x="127" y="177" on="0"/>
        <pt x="157" y="102" on="0"/>
        <pt x="220" y="55" on="0"/>
        <pt x="269" y="55" on="1"/>
        <pt x="318" y="55" on="0"/>
        <pt x="395" y="101" on="0"/>
        <pt x="449" y="176" on="0"/>
        <pt x="477" y="266" on="0"/>
        <pt x="477" y="310" on="1"/>
        <pt x="477" y="354" on="0"/>
        <pt x="447" y="429" on="0"/>
        <pt x="385" y="475" on="0"/>
      </contour>
    </TTGlyph>
    <TTGlyph name="acircumflex.ss01" xMin="30" yMin="-10" xMax="506" yMax="769">
      <contour>
        <pt x="192" y="607" on="1"/>
        <pt x="344" y="769" on="1"/>
        <pt x="410" y="769" on="1"/>
        <pt x="494" y="607" on="1"/>
        <pt x="428" y="607" on="1"/>
        <pt x="372" y="720" on="1"/>
        <pt x="268" y="607" on="1"/>
      </contour>
      <contour>
        <pt x="358" y="75" on="1"/>
        <pt x="358" y="75" on="0"/>
        <pt x="339" y="49" on="0"/>
        <pt x="298" y="16" on="0"/>
        <pt x="235" y="-10" on="0"/>
        <pt x="192" y="-10" on="1"/>
        <pt x="117" y="-10" on="0"/>
        <pt x="30" y="72" on="0"/>
        <pt x="30" y="135" on="1"/>
        <pt x="30" y="177" on="0"/>
        <pt x="73" y="250" on="0"/>
        <pt x="164" y="296" on="0"/>
        <pt x="234" y="299" on="1"/>
        <pt x="415" y="306" on="1"/>
        <pt x="421" y="335" on="1"/>
        <pt x="427" y="365" on="0"/>
        <pt x="417" y="430" on="0"/>
        <pt x="366" y="476" on="0"/>
        <pt x="310" y="476" on="1"/>
        <pt x="262" y="476" on="0"/>
        <pt x="205" y="444" on="0"/>
        <pt x="175" y="403" on="0"/>
        <pt x="165" y="372" on="0"/>
        <pt x="165" y="372" on="1"/>
        <pt x="92" y="372" on="1"/>
        <pt x="92" y="372" on="0"/>
        <pt x="102" y="406" on="0"/>
        <pt x="129" y="456" on="0"/>
        <pt x="178" y="506" on="0"/>
        <pt x="256" y="540" on="0"/>
        <pt x="312" y="540" on="1"/>
        <pt x="380" y="540" on="0"/>
        <pt x="471" y="483" on="0"/>
        <pt x="506" y="386" on="0"/>
        <pt x="494" y="326" on="1"/>
        <pt x="425" y="0" on="1"/>
        <pt x="350" y="0" on="1"/>
        <pt x="366" y="75" on="1"/>
      </contour>
      <contour>
        <pt x="104" y="140" on="1"/>
        <pt x="104" y="94" on="0"/>
        <pt x="169" y="51" on="0"/>
        <pt x="211" y="51" on="1"/>
        <pt x="257" y="51" on="0"/>
        <pt x="334" y="95" on="0"/>
        <pt x="387" y="172" on="0"/>
        <pt x="397" y="219" on="1"/>
        <pt x="402" y="245" on="1"/>
        <pt x="236" y="238" on="1"/>
        <pt x="173" y="236" on="0"/>
        <pt x="104" y="183" on="0"/>
      </contour>
    </TTGlyph>
    <TTGlyph name="acute" xMin="100" yMin="613" xMax="262" yMax="784">
      <contour>
        <pt x="162" y="613" on="1"/>
        <pt x="100" y="613" on="1"/>
        <pt x="187" y="784" on="1"/>
        <pt x="262" y="784" on="1"/>
      </contour>
    </TTGlyph>
    <TTGlyph name="acutecomb" xMin="130" yMin="613" xMax="292" yMax="784">
      <contour>
        <pt x="192" y="613" on="1"/>
        <pt x="130" y="613" on="1"/>
        <pt x="217" y="784" on="1"/>
        <pt x="292" y="784" on="1"/>
      </contour>
    </TTGlyph>
    <TTGlyph name="adieresis" xMin="54" yMin="-10" xMax="610" yMax="723">
      <contour>
        <pt x="479" y="617" on="1"/>
        <pt x="456" y="617" on="0"/>
        <pt x="426" y="649" on="0"/>
        <pt x="426" y="670" on="1"/>
        <pt x="426" y="692" on="0"/>
        <pt x="456" y="723" on="0"/>
        <pt x="479" y="723" on="1"/>
        <pt x="502" y="723" on="0"/>
        <pt x="533" y="692" on="0"/>
        <pt x="533" y="670" on="1"/>
        <pt x="533" y="648" on="0"/>
        <pt x="502" y="617" on="0"/>
      </contour>
      <contour>
        <pt x="306" y="617" on="1"/>
        <pt x="283" y="617" on="0"/>
        <pt x="253" y="649" on="0"/>
        <pt x="253" y="670" on="1"/>
        <pt x="253" y="692" on="0"/>
        <pt x="283" y="723" on="0"/>
        <pt x="306" y="723" on="1"/>
        <pt x="329" y="723" on="0"/>
        <pt x="360" y="692" on="0"/>
        <pt x="360" y="670" on="1"/>
        <pt x="360" y="648" on="0"/>
        <pt x="329" y="617" on="0"/>
      </contour>
      <contour>
        <pt x="332" y="540" on="1"/>
        <pt x="377" y="540" on="0"/>
        <pt x="440" y="513" on="0"/>
        <pt x="481" y="475" on="0"/>
        <pt x="502" y="437" on="0"/>
        <pt x="507" y="426" on="1"/>
        <pt x="512" y="426" on="1"/>
        <pt x="534" y="530" on="1"/>
        <pt x="610" y="530" on="1"/>
        <pt x="496" y="0" on="1"/>
        <pt x="421" y="0" on="1"/>
        <pt x="439" y="83" on="1"/>
        <pt x="434" y="83" on="1"/>
        <pt x="434" y="83" on="0"/>
        <pt x="413" y="55" on="0"/>
        <pt x="369" y="18" on="0"/>
        <pt x="303" y="-10" on="0"/>
        <pt x="257" y="-10" on="1"/>
        <pt x="189" y="-10" on="0"/>
        <pt x="99" y="55" on="0"/>
        <pt x="54" y="161" on="0"/>
        <pt x="54" y="222" on="1"/>
        <pt x="54" y="278" on="0"/>
        <pt x="91" y="391" on="0"/>
        <pt x="162" y="484" on="0"/>
        <pt x="265" y="540" on="0"/>
      </contour>
      <contour>
        <pt x="335" y="475" on="1"/>
        <pt x="286" y="475" on="0"/>
        <pt x="209" y="429" on="0"/>
        <pt x="155" y="355" on="0"/>
        <pt x="127" y="265" on="0"/>
        <pt x="127" y="221" on="1"/>
        <pt x="127" y="177" on="0"/>
        <pt x="157" y="102" on="0"/>
        <pt x="220" y="55" on="0"/>
        <pt x="269" y="55" on="1"/>
        <pt x="318" y="55" on="0"/>
        <pt x="395" y="101" on="0"/>
        <pt x="449" y="176" on="0"/>
        <pt x="477" y="266" on="0"/>
        <pt x="477" y="310" on="1"/>
        <pt x="477" y="354" on="0"/>
        <pt x="447" y="429" on="0"/>
        <pt x="385" y="475" on="0"/>
      </contour>
    </TTGlyph>
    <TTGlyph name="adieresis.ss01" xMin="30" yMin="-10" xMax="506" yMax="723">
      <contour>
        <pt x="442" y="617" on="1"/>
        <pt x="419" y="617" on="0"/>
        <pt x="389" y="649" on="0"/>
        <pt x="389" y="670" on="1"/>
        <pt x="389" y="692" on="0"/>
        <pt x="419" y="723" on="0"/>
        <pt x="442" y="723" on="1"/>
        <pt x="464" y="723" on="0"/>
        <pt x="495" y="692" on="0"/>
        <pt x="495" y="670" on="1"/>
        <pt x="495" y="648" on="0"/>
        <pt x="464" y="617" on="0"/>
      </contour>
      <contour>
        <pt x="269" y="617" on="1"/>
        <pt x="246" y="617" on="0"/>
        <pt x="216" y="649" on="0"/>
        <pt x="216" y="670" on="1"/>
        <pt x="216" y="692" on="0"/>
        <pt x="246" y="723" on="0"/>
        <pt x="269" y="723" on="1"/>
        <pt x="291" y="723" on="0"/>
        <pt x="322" y="692" on="0"/>
        <pt x="322" y="670" on="1"/>
        <pt x="322" y="648" on="0"/>
        <pt x="291" y="617" on="0"/>
      </contour>
      <contour>
        <pt x="358" y="75" on="1"/>
        <pt x="358" y="75" on="0"/>
        <pt x="339" y="49" on="0"/>
        <pt x="298" y="16" on="0"/>
        <pt x="235" y="-10" on="0"/>
        <pt x="192" y="-10" on="1"/>
        <pt x="117" y="-10" on="0"/>
        <pt x="30" y="72" on="0"/>
        <pt x="30" y="135" on="1"/>
        <pt x="30" y="177" on="0"/>
        <pt x="73" y="250" on="0"/>
        <pt x="164" y="296" on="0"/>
        <pt x="234" y="299" on="1"/>
        <pt x="415" y="306" on="1"/>
        <pt x="421" y="335" on="1"/>
        <pt x="427" y="365" on="0"/>
        <pt x="417" y="430" on="0"/>
        <pt x="366" y="476" on="0"/>
        <pt x="310" y="476" on="1"/>
        <pt x="262" y="476" on="0"/>
        <pt x="205" y="444" on="0"/>
        <pt x="175" y="403" on="0"/>
        <pt x="165" y="372" on="0"/>
        <pt x="165" y="372" on="1"/>
        <pt x="92" y="372" on="1"/>
        <pt x="92" y="372" on="0"/>
        <pt x="102" y="406" on="0"/>
        <pt x="129" y="456" on="0"/>
        <pt x="178" y="506" on="0"/>
        <pt x="256" y="540" on="0"/>
        <pt x="312" y="540" on="1"/>
        <pt x="380" y="540" on="0"/>
        <pt x="471" y="483" on="0"/>
        <pt x="506" y="386" on="0"/>
        <pt x="494" y="326" on="1"/>
        <pt x="425" y="0" on="1"/>
        <pt x="350" y="0" on="1"/>
        <pt x="366" y="75" on="1"/>
      </contour>
      <contour>
        <pt x="104" y="140" on="1"/>
        <pt x="104" y="94" on="0"/>
        <pt x="169" y="51" on="0"/>
        <pt x="211" y="51" on="1"/>
        <pt x="257" y="51" on="0"/>
        <pt x="334" y="95" on="0"/>
        <pt x="387" y="172" on="0"/>
        <pt x="397" y="219" on="1"/>
        <pt x="402" y="245" on="1"/>
        <pt x="236" y="238" on="1"/>
        <pt x="173" y="236" on="0"/>
        <pt x="104" y="183" on="0"/>
      </contour>
    </TTGlyph>
    <TTGlyph name="ae" xMin="31" yMin="-10" xMax="896" yMax="540">
      <contour>
        <pt x="199" y="-10" on="1"/>
        <pt x="120" y="-10" on="0"/>
        <pt x="31" y="72" on="0"/>
        <pt x="31" y="135" on="1"/>
        <pt x="31" y="178" on="0"/>
        <pt x="75" y="250" on="0"/>
        <pt x="165" y="296" on="0"/>
        <pt x="236" y="299" on="1"/>
        <pt x="416" y="306" on="1"/>
        <pt x="422" y="335" on="1"/>
        <pt x="429" y="368" on="0"/>
        <pt x="417" y="433" on="0"/>
        <pt x="365" y="476" on="0"/>
        <pt x="311" y="476" on="1"/>
        <pt x="264" y="476" on="0"/>
        <pt x="206" y="444" on="0"/>
        <pt x="177" y="403" on="0"/>
        <pt x="167" y="372" on="0"/>
        <pt x="167" y="372" on="1"/>
        <pt x="93" y="372" on="1"/>
        <pt x="93" y="372" on="0"/>
        <pt x="103" y="406" on="0"/>
        <pt x="130" y="456" on="0"/>
        <pt x="179" y="506" on="0"/>
        <pt x="257" y="540" on="0"/>
        <pt x="313" y="540" on="1"/>
        <pt x="378" y="540" on="0"/>
        <pt x="464" y="485" on="0"/>
        <pt x="482" y="433" on="1"/>
        <pt x="486" y="433" on="1"/>
        <pt x="523" y="482" on="0"/>
        <pt x="628" y="540" on="0"/>
        <pt x="693" y="540" on="1"/>
        <pt x="758" y="540" on="0"/>
        <pt x="842" y="489" on="0"/>
        <pt x="887" y="406" on="0"/>
        <pt x="896" y="307" on="0"/>
        <pt x="884" y="258" on="1"/>
        <pt x="881" y="244" on="1"/>
        <pt x="480" y="244" on="1"/>
        <pt x="477" y="193" on="0"/>
        <pt x="506" y="107" on="0"/>
        <pt x="573" y="55" on="0"/>
        <pt x="628" y="55" on="1"/>
        <pt x="673" y="55" on="0"/>
        <pt x="734" y="86" on="0"/>
        <pt x="770" y="127" on="0"/>
        <pt x="786" y="157" on="0"/>
        <pt x="786" y="157" on="1"/>
        <pt x="858" y="157" on="1"/>
        <pt x="858" y="157" on="0"/>
        <pt x="844" y="124" on="0"/>
        <pt x="811" y="74" on="0"/>
        <pt x="757" y="24" on="0"/>
        <pt x="677" y="-10" on="0"/>
        <pt x="622" y="-10" on="1"/>
        <pt x="539" y="-10" on="0"/>
        <pt x="440" y="70" on="0"/>
        <pt x="421" y="131" on="1"/>
        <pt x="416" y="131" on="1"/>
        <pt x="416" y="131" on="0"/>
        <pt x="402" y="102" on="0"/>
        <pt x="371" y="60" on="0"/>
        <pt x="321" y="18" on="0"/>
        <pt x="248" y="-10" on="0"/>
      </contour>
      <contour>
        <pt x="492" y="304" on="1"/>
        <pt x="819" y="304" on="1"/>
        <pt x="826" y="347" on="0"/>
        <pt x="805" y="425" on="0"/>
        <pt x="742" y="475" on="0"/>
        <pt x="688" y="475" on="1"/>
        <pt x="638" y="475" on="0"/>
        <pt x="560" y="428" on="0"/>
        <pt x="505" y="350" on="0"/>
      </contour>
      <contour>
        <pt x="212" y="51" on="1"/>
        <pt x="259" y="51" on="0"/>
        <pt x="336" y="96" on="0"/>
        <pt x="388" y="173" on="0"/>
        <pt x="398" y="219" on="1"/>
        <pt x="404" y="245" on="1"/>
        <pt x="237" y="238" on="1"/>
        <pt x="174" y="236" on="0"/>
        <pt x="105" y="183" on="0"/>
        <pt x="105" y="140" on="1"/>
        <pt x="105" y="94" on="0"/>
        <pt x="170" y="51" on="0"/>
      </contour>
    </TTGlyph>
    <TTGlyph name="agrave" xMin="54" yMin="-10" xMax="610" yMax="784">
      <contour>
        <pt x="342" y="613" on="1"/>
        <pt x="267" y="784" on="1"/>
        <pt x="341" y="784" on="1"/>
        <pt x="403" y="613" on="1"/>
      </contour>
      <contour>
        <pt x="332" y="540" on="1"/>
        <pt x="377" y="540" on="0"/>
        <pt x="440" y="513" on="0"/>
        <pt x="481" y="475" on="0"/>
        <pt x="502" y="437" on="0"/>
        <pt x="507" y="426" on="1"/>
        <pt x="512" y="426" on="1"/>
        <pt x="534" y="530" on="1"/>
        <pt x="610" y="530" on="1"/>
        <pt x="496" y="0" on="1"/>
        <pt x="421" y="0" on="1"/>
        <pt x="439" y="83" on="1"/>
        <pt x="434" y="83" on="1"/>
        <pt x="434" y="83" on="0"/>
        <pt x="413" y="55" on="0"/>
        <pt x="369" y="18" on="0"/>
        <pt x="303" y="-10" on="0"/>
        <pt x="257" y="-10" on="1"/>
        <pt x="189" y="-10" on="0"/>
        <pt x="99" y="55" on="0"/>
        <pt x="54" y="161" on="0"/>
        <pt x="54" y="222" on="1"/>
        <pt x="54" y="278" on="0"/>
        <pt x="91" y="391" on="0"/>
        <pt x="162" y="484" on="0"/>
        <pt x="265" y="540" on="0"/>
      </contour>
      <contour>
        <pt x="335" y="475" on="1"/>
        <pt x="286" y="475" on="0"/>
        <pt x="209" y="429" on="0"/>
        <pt x="155" y="355" on="0"/>
        <pt x="127" y="265" on="0"/>
        <pt x="127" y="221" on="1"/>
        <pt x="127" y="177" on="0"/>
        <pt x="157" y="102" on="0"/>
        <pt x="220" y="55" on="0"/>
        <pt x="269" y="55" on="1"/>
        <pt x="318" y="55" on="0"/>
        <pt x="395" y="101" on="0"/>
        <pt x="449" y="176" on="0"/>
        <pt x="477" y="266" on="0"/>
        <pt x="477" y="310" on="1"/>
        <pt x="477" y="354" on="0"/>
        <pt x="447" y="429" on="0"/>
        <pt x="385" y="475" on="0"/>
      </contour>
    </TTGlyph>
    <TTGlyph name="agrave.ss01" xMin="30" yMin="-10" xMax="506" yMax="784">
      <contour>
        <pt x="305" y="613" on="1"/>
        <pt x="230" y="784" on="1"/>
        <pt x="304" y="784" on="1"/>
        <pt x="365" y="613" on="1"/>
      </contour>
      <contour>
        <pt x="358" y="75" on="1"/>
        <pt x="358" y="75" on="0"/>
        <pt x="339" y="49" on="0"/>
        <pt x="298" y="16" on="0"/>
        <pt x="235" y="-10" on="0"/>
        <pt x="192" y="-10" on="1"/>
        <pt x="117" y="-10" on="0"/>
        <pt x="30" y="72" on="0"/>
        <pt x="30" y="135" on="1"/>
        <pt x="30" y="177" on="0"/>
        <pt x="73" y="250" on="0"/>
        <pt x="164" y="296" on="0"/>
        <pt x="234" y="299" on="1"/>
        <pt x="415" y="306" on="1"/>
        <pt x="421" y="335" on="1"/>
        <pt x="427" y="365" on="0"/>
        <pt x="417" y="430" on="0"/>
        <pt x="366" y="476" on="0"/>
        <pt x="310" y="476" on="1"/>
        <pt x="262" y="476" on="0"/>
        <pt x="205" y="444" on="0"/>
        <pt x="175" y="403" on="0"/>
        <pt x="165" y="372" on="0"/>
        <pt x="165" y="372" on="1"/>
        <pt x="92" y="372" on="1"/>
        <pt x="92" y="372" on="0"/>
        <pt x="102" y="406" on="0"/>
        <pt x="129" y="456" on="0"/>
        <pt x="178" y="506" on="0"/>
        <pt x="256" y="540" on="0"/>
        <pt x="312" y="540" on="1"/>
        <pt x="380" y="540" on="0"/>
        <pt x="471" y="483" on="0"/>
        <pt x="506" y="386" on="0"/>
        <pt x="494" y="326" on="1"/>
        <pt x="425" y="0" on="1"/>
        <pt x="350" y="0" on="1"/>
        <pt x="366" y="75" on="1"/>
      </contour>
      <contour>
        <pt x="104" y="140" on="1"/>
        <pt x="104" y="94" on="0"/>
        <pt x="169" y="51" on="0"/>
        <pt x="211" y="51" on="1"/>
        <pt x="257" y="51" on="0"/>
        <pt x="334" y="95" on="0"/>
        <pt x="387" y="172" on="0"/>
        <pt x="397" y="219" on="1"/>
        <pt x="402" y="245" on="1"/>
        <pt x="236" y="238" on="1"/>
        <pt x="173" y="236" on="0"/>
        <pt x="104" y="183" on="0"/>
      </contour>
    </TTGlyph>
    <TTGlyph name="amacron" xMin="54" yMin="-10" xMax="610" yMax="696">
      <contour>
        <pt x="238" y="638" on="1"/>
        <pt x="251" y="696" on="1"/>
        <pt x="547" y="696" on="1"/>
        <pt x="534" y="638" on="1"/>
      </contour>
      <contour>
        <pt x="332" y="540" on="1"/>
        <pt x="377" y="540" on="0"/>
        <pt x="440" y="513" on="0"/>
        <pt x="481" y="475" on="0"/>
        <pt x="502" y="437" on="0"/>
        <pt x="507" y="426" on="1"/>
        <pt x="512" y="426" on="1"/>
        <pt x="534" y="530" on="1"/>
        <pt x="610" y="530" on="1"/>
        <pt x="496" y="0" on="1"/>
        <pt x="421" y="0" on="1"/>
        <pt x="439" y="83" on="1"/>
        <pt x="434" y="83" on="1"/>
        <pt x="434" y="83" on="0"/>
        <pt x="413" y="55" on="0"/>
        <pt x="369" y="18" on="0"/>
        <pt x="303" y="-10" on="0"/>
        <pt x="257" y="-10" on="1"/>
        <pt x="189" y="-10" on="0"/>
        <pt x="99" y="55" on="0"/>
        <pt x="54" y="161" on="0"/>
        <pt x="54" y="222" on="1"/>
        <pt x="54" y="278" on="0"/>
        <pt x="91" y="391" on="0"/>
        <pt x="162" y="484" on="0"/>
        <pt x="265" y="540" on="0"/>
      </contour>
      <contour>
        <pt x="335" y="475" on="1"/>
        <pt x="286" y="475" on="0"/>
        <pt x="209" y="429" on="0"/>
        <pt x="155" y="355" on="0"/>
        <pt x="127" y="265" on="0"/>
        <pt x="127" y="221" on="1"/>
        <pt x="127" y="177" on="0"/>
        <pt x="157" y="102" on="0"/>
        <pt x="220" y="55" on="0"/>
        <pt x="269" y="55" on="1"/>
        <pt x="318" y="55" on="0"/>
        <pt x="395" y="101" on="0"/>
        <pt x="449" y="176" on="0"/>
        <pt x="477" y="266" on="0"/>
        <pt x="477" y="310" on="1"/>
        <pt x="477" y="354" on="0"/>
        <pt x="447" y="429" on="0"/>
        <pt x="385" y="475" on="0"/>
      </contour>
    </TTGlyph>
    <TTGlyph name="amacron.ss01" xMin="30" yMin="-10" xMax="509" yMax="696">
      <contour>
        <pt x="201" y="638" on="1"/>
        <pt x="213" y="696" on="1"/>
        <pt x="509" y="696" on="1"/>
        <pt x="497" y="638" on="1"/>
      </contour>
      <contour>
        <pt x="358" y="75" on="1"/>
        <pt x="358" y="75" on="0"/>
        <pt x="339" y="49" on="0"/>
        <pt x="298" y="16" on="0"/>
        <pt x="235" y="-10" on="0"/>
        <pt x="192" y="-10" on="1"/>
        <pt x="117" y="-10" on="0"/>
        <pt x="30" y="72" on="0"/>
        <pt x="30" y="135" on="1"/>
        <pt x="30" y="177" on="0"/>
        <pt x="73" y="250" on="0"/>
        <pt x="164" y="296" on="0"/>
        <pt x="234" y="299" on="1"/>
        <pt x="415" y="306" on="1"/>
        <pt x="421" y="335" on="1"/>
        <pt x="427" y="365" on="0"/>
        <pt x="417" y="430" on="0"/>
        <pt x="366" y="476" on="0"/>
        <pt x="310" y="476" on="1"/>
        <pt x="262" y="476" on="0"/>
        <pt x="205" y="444" on="0"/>
        <pt x="175" y="403" on="0"/>
        <pt x="165" y="372" on="0"/>
        <pt x="165" y="372" on="1"/>
        <pt x="92" y="372" on="1"/>
        <pt x="92" y="372" on="0"/>
        <pt x="102" y="406" on="0"/>
        <pt x="129" y="456" on="0"/>
        <pt x="178" y="506" on="0"/>
        <pt x="256" y="540" on="0"/>
        <pt x="312" y="540" on="1"/>
        <pt x="380" y="540" on="0"/>
        <pt x="471" y="483" on="0"/>
        <pt x="506" y="386" on="0"/>
        <pt x="494" y="326" on="1"/>
        <pt x="425" y="0" on="1"/>
        <pt x="350" y="0" on="1"/>
        <pt x="366" y="75" on="1"/>
      </contour>
      <contour>
        <pt x="104" y="140" on="1"/>
        <pt x="104" y="94" on="0"/>
        <pt x="169" y="51" on="0"/>
        <pt x="211" y="51" on="1"/>
        <pt x="257" y="51" on="0"/>
        <pt x="334" y="95" on="0"/>
        <pt x="387" y="172" on="0"/>
        <pt x="397" y="219" on="1"/>
        <pt x="402" y="245" on="1"/>
        <pt x="236" y="238" on="1"/>
        <pt x="173" y="236" on="0"/>
        <pt x="104" y="183" on="0"/>
      </contour>
    </TTGlyph>
    <TTGlyph name="ampersand" xMin="11" yMin="-10" xMax="608" yMax="751">
      <contour>
        <pt x="239" y="-10" on="1"/>
        <pt x="172" y="-10" on="0"/>
        <pt x="69" y="41" on="0"/>
        <pt x="11" y="131" on="0"/>
        <pt x="11" y="189" on="1"/>
        <pt x="11" y="250" on="0"/>
        <pt x="71" y="339" on="0"/>
        <pt x="166" y="400" on="0"/>
        <pt x="218" y="422" on="1"/>
        <pt x="193" y="462" on="0"/>
        <pt x="164" y="537" on="0"/>
        <pt x="164" y="577" on="1"/>
        <pt x="164" y="634" on="0"/>
        <pt x="215" y="711" on="0"/>
        <pt x="295" y="751" on="0"/>
        <pt x="339" y="751" on="1"/>
        <pt x="381" y="751" on="0"/>
        <pt x="457" y="716" on="0"/>
        <pt x="506" y="648" on="0"/>
        <pt x="506" y="600" on="1"/>
        <pt x="506" y="558" on="0"/>
        <pt x="470" y="494" on="0"/>
        <pt x="413" y="445" on="0"/>
        <pt x="346" y="411" on="0"/>
        <pt x="314" y="398" on="1"/>
        <pt x="318" y="393" on="0"/>
        <pt x="325" y="383" on="0"/>
        <pt x="329" y="377" on="1"/>
        <pt x="461" y="190" on="1"/>
        <pt x="488" y="235" on="0"/>
        <pt x="528" y="353" on="0"/>
        <pt x="540" y="428" on="1"/>
        <pt x="608" y="428" on="1"/>
        <pt x="593" y="333" on="0"/>
        <pt x="538" y="187" on="0"/>
        <pt x="500" y="134" on="1"/>
        <pt x="595" y="0" on="1"/>
        <pt x="507" y="0" on="1"/>
        <pt x="453" y="78" on="1"/>
        <pt x="407" y="33" on="0"/>
        <pt x="298" y="-10" on="0"/>
      </contour>
      <contour>
        <pt x="231" y="579" on="1"/>
        <pt x="231" y="547" on="0"/>
        <pt x="259" y="483" on="0"/>
        <pt x="282" y="446" on="1"/>
        <pt x="290" y="449" on="1"/>
        <pt x="309" y="456" on="0"/>
        <pt x="359" y="479" on="0"/>
        <pt x="408" y="515" on="0"/>
        <pt x="440" y="564" on="0"/>
        <pt x="440" y="597" on="1"/>
        <pt x="440" y="643" on="0"/>
        <pt x="378" y="690" on="0"/>
        <pt x="340" y="690" on="1"/>
        <pt x="313" y="690" on="0"/>
        <pt x="263" y="666" on="0"/>
        <pt x="231" y="617" on="0"/>
      </contour>
      <contour>
        <pt x="83" y="197" on="1"/>
        <pt x="83" y="134" on="0"/>
        <pt x="174" y="54" on="0"/>
        <pt x="248" y="54" on="1"/>
        <pt x="346" y="54" on="0"/>
        <pt x="417" y="131" on="1"/>
        <pt x="287" y="318" on="1"/>
        <pt x="277" y="333" on="0"/>
        <pt x="258" y="360" on="0"/>
        <pt x="249" y="373" on="1"/>
        <pt x="210" y="358" on="0"/>
        <pt x="134" y="314" on="0"/>
        <pt x="83" y="246" on="0"/>
      </contour>
    </TTGlyph>
    <TTGlyph name="aogonek" xMin="54" yMin="-161" xMax="610" yMax="540">
      <contour>
        <pt x="459" y="-161" on="1"/>
        <pt x="415" y="-161" on="0"/>
        <pt x="365" y="-121" on="0"/>
        <pt x="365" y="-88" on="1"/>
        <pt x="365" y="-55" on="0"/>
        <pt x="407" y="-12" on="0"/>
        <pt x="428" y="0" on="1"/>
        <pt x="421" y="0" on="1"/>
        <pt x="439" y="83" on="1"/>
        <pt x="434" y="83" on="1"/>
        <pt x="434" y="83" on="0"/>
        <pt x="413" y="55" on="0"/>
        <pt x="369" y="18" on="0"/>
        <pt x="303" y="-10" on="0"/>
        <pt x="257" y="-10" on="1"/>
        <pt x="189" y="-10" on="0"/>
        <pt x="99" y="55" on="0"/>
        <pt x="54" y="161" on="0"/>
        <pt x="54" y="222" on="1"/>
        <pt x="54" y="278" on="0"/>
        <pt x="91" y="391" on="0"/>
        <pt x="162" y="484" on="0"/>
        <pt x="265" y="540" on="0"/>
        <pt x="332" y="540" on="1"/>
        <pt x="377" y="540" on="0"/>
        <pt x="440" y="513" on="0"/>
        <pt x="481" y="475" on="0"/>
        <pt x="502" y="437" on="0"/>
        <pt x="507" y="426" on="1"/>
        <pt x="512" y="426" on="1"/>
        <pt x="534" y="530" on="1"/>
        <pt x="610" y="530" on="1"/>
        <pt x="496" y="0" on="1"/>
        <pt x="496" y="0" on="0"/>
        <pt x="475" y="-9" on="0"/>
        <pt x="446" y="-28" on="0"/>
        <pt x="425" y="-56" on="0"/>
        <pt x="425" y="-75" on="1"/>
        <pt x="425" y="-112" on="0"/>
        <pt x="476" y="-112" on="1"/>
        <pt x="490" y="-112" on="0"/>
        <pt x="514" y="-107" on="0"/>
        <pt x="514" y="-107" on="1"/>
        <pt x="504" y="-155" on="1"/>
        <pt x="504" y="-155" on="0"/>
        <pt x="479" y="-161" on="0"/>
      </contour>
      <contour>
        <pt x="335" y="475" on="1"/>
        <pt x="286" y="475" on="0"/>
        <pt x="209" y="429" on="0"/>
        <pt x="155" y="355" on="0"/>
        <pt x="127" y="265" on="0"/>
        <pt x="127" y="221" on="1"/>
        <pt x="127" y="177" on="0"/>
        <pt x="157" y="102" on="0"/>
        <pt x="220" y="55" on="0"/>
        <pt x="269" y="55" on="1"/>
        <pt x="318" y="55" on="0"/>
        <pt x="395" y="101" on="0"/>
        <pt x="449" y="176" on="0"/>
        <pt x="477" y="266" on="0"/>
        <pt x="477" y="310" on="1"/>
        <pt x="477" y="354" on="0"/>
        <pt x="447" y="429" on="0"/>
        <pt x="385" y="475" on="0"/>
      </contour>
    </TTGlyph>
    <TTGlyph name="aogonek.ss01" xMin="30" yMin="-161" xMax="506" yMax="540">
      <contour>
        <pt x="387" y="-161" on="1"/>
        <pt x="343" y="-161" on="0"/>
        <pt x="294" y="-121" on="0"/>
        <pt x="294" y="-88" on="1"/>
        <pt x="294" y="-55" on="0"/>
        <pt x="335" y="-12" on="0"/>
        <pt x="357" y="0" on="1"/>
        <pt x="350" y="0" on="1"/>
        <pt x="366" y="75" on="1"/>
        <pt x="358" y="75" on="1"/>
        <pt x="358" y="75" on="0"/>
        <pt x="339" y="49" on="0"/>
        <pt x="298" y="16" on="0"/>
        <pt x="235" y="-10" on="0"/>
        <pt x="192" y="-10" on="1"/>
        <pt x="117" y="-10" on="0"/>
        <pt x="30" y="72" on="0"/>
        <pt x="30" y="135" on="1"/>
        <pt x="30" y="177" on="0"/>
        <pt x="73" y="250" on="0"/>
        <pt x="164" y="296" on="0"/>
        <pt x="234" y="299" on="1"/>
        <pt x="415" y="306" on="1"/>
        <pt x="421" y="335" on="1"/>
        <pt x="427" y="365" on="0"/>
        <pt x="417" y="430" on="0"/>
        <pt x="366" y="476" on="0"/>
        <pt x="310" y="476" on="1"/>
        <pt x="262" y="476" on="0"/>
        <pt x="205" y="444" on="0"/>
        <pt x="175" y="403" on="0"/>
        <pt x="165" y="372" on="0"/>
        <pt x="165" y="372" on="1"/>
        <pt x="92" y="372" on="1"/>
        <pt x="92" y="372" on="0"/>
        <pt x="102" y="406" on="0"/>
        <pt x="129" y="456" on="0"/>
        <pt x="178" y="506" on="0"/>
        <pt x="256" y="540" on="0"/>
        <pt x="312" y="540" on="1"/>
        <pt x="380" y="540" on="0"/>
        <pt x="471" y="483" on="0"/>
        <pt x="506" y="386" on="0"/>
        <pt x="494" y="326" on="1"/>
        <pt x="425" y="0" on="1"/>
        <pt x="425" y="0" on="0"/>
        <pt x="403" y="-9" on="0"/>
        <pt x="375" y="-28" on="0"/>
        <pt x="353" y="-56" on="0"/>
        <pt x="353" y="-75" on="1"/>
        <pt x="353" y="-112" on="0"/>
        <pt x="404" y="-112" on="1"/>
        <pt x="418" y="-112" on="0"/>
        <pt x="442" y="-107" on="0"/>
        <pt x="442" y="-107" on="1"/>
        <pt x="432" y="-155" on="1"/>
        <pt x="432" y="-155" on="0"/>
        <pt x="407" y="-161" on="0"/>
      </contour>
      <contour>
        <pt x="104" y="140" on="1"/>
        <pt x="104" y="94" on="0"/>
        <pt x="169" y="51" on="0"/>
        <pt x="211" y="51" on="1"/>
        <pt x="257" y="51" on="0"/>
        <pt x="334" y="95" on="0"/>
        <pt x="387" y="172" on="0"/>
        <pt x="397" y="219" on="1"/>
        <pt x="402" y="245" on="1"/>
        <pt x="236" y="238" on="1"/>
        <pt x="173" y="236" on="0"/>
        <pt x="104" y="183" on="0"/>
      </contour>
    </TTGlyph>
    <TTGlyph name="approxequal" xMin="124" yMin="163" xMax="428" yMax="493">
      <contour>
        <pt x="335" y="368" on="1"/>
        <pt x="310" y="368" on="0"/>
        <pt x="278" y="391" on="0"/>
        <pt x="254" y="421" on="0"/>
        <pt x="231" y="444" on="0"/>
        <pt x="216" y="444" on="1"/>
        <pt x="199" y="444" on="0"/>
        <pt x="177" y="406" on="0"/>
        <pt x="171" y="374" on="1"/>
        <pt x="124" y="374" on="1"/>
        <pt x="133" y="423" on="0"/>
        <pt x="175" y="493" on="0"/>
        <pt x="218" y="493" on="1"/>
        <pt x="243" y="493" on="0"/>
        <pt x="276" y="470" on="0"/>
        <pt x="300" y="440" on="0"/>
        <pt x="322" y="418" on="0"/>
        <pt x="336" y="418" on="1"/>
        <pt x="354" y="418" on="0"/>
        <pt x="375" y="455" on="0"/>
        <pt x="380" y="488" on="1"/>
        <pt x="428" y="488" on="1"/>
        <pt x="418" y="440" on="0"/>
        <pt x="377" y="368" on="0"/>
      </contour>
      <contour>
        <pt x="335" y="163" on="1"/>
        <pt x="310" y="163" on="0"/>
        <pt x="278" y="186" on="0"/>
        <pt x="254" y="216" on="0"/>
        <pt x="231" y="239" on="0"/>
        <pt x="216" y="239" on="1"/>
        <pt x="199" y="239" on="0"/>
        <pt x="177" y="201" on="0"/>
        <pt x="171" y="169" on="1"/>
        <pt x="124" y="169" on="1"/>
        <pt x="133" y="218" on="0"/>
        <pt x="175" y="288" on="0"/>
        <pt x="218" y="288" on="1"/>
        <pt x="243" y="288" on="0"/>
        <pt x="276" y="265" on="0"/>
        <pt x="300" y="235" on="0"/>
        <pt x="322" y="213" on="0"/>
        <pt x="336" y="213" on="1"/>
        <pt x="354" y="213" on="0"/>
        <pt x="375" y="250" on="0"/>
        <pt x="380" y="283" on="1"/>
        <pt x="428" y="283" on="1"/>
        <pt x="418" y="235" on="0"/>
        <pt x="377" y="163" on="0"/>
      </contour>
    </TTGlyph>
    <TTGlyph name="aring" xMin="54" yMin="-10" xMax="610" yMax="839">
      <contour>
        <pt x="376" y="606" on="1"/>
        <pt x="344" y="606" on="0"/>
        <pt x="291" y="637" on="0"/>
        <pt x="259" y="690" on="0"/>
        <pt x="259" y="722" on="1"/>
        <pt x="259" y="755" on="0"/>
        <pt x="291" y="808" on="0"/>
        <pt x="344" y="839" on="0"/>
        <pt x="376" y="839" on="1"/>
        <pt x="408" y="839" on="0"/>
        <pt x="461" y="808" on="0"/>
        <pt x="492" y="755" on="0"/>
        <pt x="492" y="722" on="1"/>
        <pt x="492" y="690" on="0"/>
        <pt x="461" y="637" on="0"/>
        <pt x="408" y="606" on="0"/>
      </contour>
      <contour>
        <pt x="376" y="661" on="1"/>
        <pt x="401" y="661" on="0"/>
        <pt x="437" y="697" on="0"/>
        <pt x="437" y="722" on="1"/>
        <pt x="437" y="748" on="0"/>
        <pt x="401" y="784" on="0"/>
        <pt x="376" y="784" on="1"/>
        <pt x="350" y="784" on="0"/>
        <pt x="314" y="748" on="0"/>
        <pt x="314" y="722" on="1"/>
        <pt x="314" y="697" on="0"/>
        <pt x="350" y="661" on="0"/>
      </contour>
      <contour>
        <pt x="332" y="540" on="1"/>
        <pt x="377" y="540" on="0"/>
        <pt x="440" y="513" on="0"/>
        <pt x="481" y="475" on="0"/>
        <pt x="502" y="437" on="0"/>
        <pt x="507" y="426" on="1"/>
        <pt x="512" y="426" on="1"/>
        <pt x="534" y="530" on="1"/>
        <pt x="610" y="530" on="1"/>
        <pt x="496" y="0" on="1"/>
        <pt x="421" y="0" on="1"/>
        <pt x="439" y="83" on="1"/>
        <pt x="434" y="83" on="1"/>
        <pt x="434" y="83" on="0"/>
        <pt x="413" y="55" on="0"/>
        <pt x="369" y="18" on="0"/>
        <pt x="303" y="-10" on="0"/>
        <pt x="257" y="-10" on="1"/>
        <pt x="189" y="-10" on="0"/>
        <pt x="99" y="55" on="0"/>
        <pt x="54" y="161" on="0"/>
        <pt x="54" y="222" on="1"/>
        <pt x="54" y="278" on="0"/>
        <pt x="91" y="391" on="0"/>
        <pt x="162" y="484" on="0"/>
        <pt x="265" y="540" on="0"/>
      </contour>
      <contour>
        <pt x="335" y="475" on="1"/>
        <pt x="286" y="475" on="0"/>
        <pt x="209" y="429" on="0"/>
        <pt x="155" y="355" on="0"/>
        <pt x="127" y="265" on="0"/>
        <pt x="127" y="221" on="1"/>
        <pt x="127" y="177" on="0"/>
        <pt x="157" y="102" on="0"/>
        <pt x="220" y="55" on="0"/>
        <pt x="269" y="55" on="1"/>
        <pt x="318" y="55" on="0"/>
        <pt x="395" y="101" on="0"/>
        <pt x="449" y="176" on="0"/>
        <pt x="477" y="266" on="0"/>
        <pt x="477" y="310" on="1"/>
        <pt x="477" y="354" on="0"/>
        <pt x="447" y="429" on="0"/>
        <pt x="385" y="475" on="0"/>
      </contour>
    </TTGlyph>
    <TTGlyph name="aring.ss01" xMin="30" yMin="-10" xMax="506" yMax="839">
      <contour>
        <pt x="339" y="606" on="1"/>
        <pt x="306" y="606" on="0"/>
        <pt x="253" y="637" on="0"/>
        <pt x="222" y="690" on="0"/>
        <pt x="222" y="722" on="1"/>
        <pt x="222" y="755" on="0"/>
        <pt x="253" y="808" on="0"/>
        <pt x="306" y="839" on="0"/>
        <pt x="339" y="839" on="1"/>
        <pt x="371" y="839" on="0"/>
        <pt x="424" y="808" on="0"/>
        <pt x="455" y="755" on="0"/>
        <pt x="455" y="722" on="1"/>
        <pt x="455" y="690" on="0"/>
        <pt x="424" y="637" on="0"/>
        <pt x="371" y="606" on="0"/>
      </contour>
      <contour>
        <pt x="339" y="661" on="1"/>
        <pt x="364" y="661" on="0"/>
        <pt x="400" y="697" on="0"/>
        <pt x="400" y="722" on="1"/>
        <pt x="400" y="748" on="0"/>
        <pt x="364" y="784" on="0"/>
        <pt x="339" y="784" on="1"/>
        <pt x="313" y="784" on="0"/>
        <pt x="277" y="748" on="0"/>
        <pt x="277" y="722" on="1"/>
        <pt x="277" y="697" on="0"/>
        <pt x="313" y="661" on="0"/>
      </contour>
      <contour>
        <pt x="358" y="75" on="1"/>
        <pt x="358" y="75" on="0"/>
        <pt x="339" y="49" on="0"/>
        <pt x="298" y="16" on="0"/>
        <pt x="235" y="-10" on="0"/>
        <pt x="192" y="-10" on="1"/>
        <pt x="117" y="-10" on="0"/>
        <pt x="30" y="72" on="0"/>
        <pt x="30" y="135" on="1"/>
        <pt x="30" y="177" on="0"/>
        <pt x="73" y="250" on="0"/>
        <pt x="164" y="296" on="0"/>
        <pt x="234" y="299" on="1"/>
        <pt x="415" y="306" on="1"/>
        <pt x="421" y="335" on="1"/>
        <pt x="427" y="365" on="0"/>
        <pt x="417" y="430" on="0"/>
        <pt x="366" y="476" on="0"/>
        <pt x="310" y="476" on="1"/>
        <pt x="262" y="476" on="0"/>
        <pt x="205" y="444" on="0"/>
        <pt x="175" y="403" on="0"/>
        <pt x="165" y="372" on="0"/>
        <pt x="165" y="372" on="1"/>
        <pt x="92" y="372" on="1"/>
        <pt x="92" y="372" on="0"/>
        <pt x="102" y="406" on="0"/>
        <pt x="129" y="456" on="0"/>
        <pt x="178" y="506" on="0"/>
        <pt x="256" y="540" on="0"/>
        <pt x="312" y="540" on="1"/>
        <pt x="380" y="540" on="0"/>
        <pt x="471" y="483" on="0"/>
        <pt x="506" y="386" on="0"/>
        <pt x="494" y="326" on="1"/>
        <pt x="425" y="0" on="1"/>
        <pt x="350" y="0" on="1"/>
        <pt x="366" y="75" on="1"/>
      </contour>
      <contour>
        <pt x="104" y="140" on="1"/>
        <pt x="104" y="94" on="0"/>
        <pt x="169" y="51" on="0"/>
        <pt x="211" y="51" on="1"/>
        <pt x="257" y="51" on="0"/>
        <pt x="334" y="95" on="0"/>
        <pt x="387" y="172" on="0"/>
        <pt x="397" y="219" on="1"/>
        <pt x="402" y="245" on="1"/>
        <pt x="236" y="238" on="1"/>
        <pt x="173" y="236" on="0"/>
        <pt x="104" y="183" on="0"/>
      </contour>
    </TTGlyph>
    <TTGlyph name="asciicircum" xMin="167" yMin="578" xMax="469" yMax="740">
      <contour>
        <pt x="167" y="578" on="1"/>
        <pt x="319" y="740" on="1"/>
        <pt x="385" y="740" on="1"/>
        <pt x="469" y="578" on="1"/>
        <pt x="403" y="578" on="1"/>
        <pt x="347" y="691" on="1"/>
        <pt x="243" y="578" on="1"/>
      </contour>
    </TTGlyph>
    <TTGlyph name="asciitilde" xMin="99" yMin="319" xMax="403" yMax="444">
      <contour>
        <pt x="310" y="319" on="1"/>
        <pt x="285" y="319" on="0"/>
        <pt x="253" y="342" on="0"/>
        <pt x="229" y="372" on="0"/>
        <pt x="207" y="395" on="0"/>
        <pt x="192" y="395" on="1"/>
        <pt x="174" y="395" on="0"/>
        <pt x="152" y="357" on="0"/>
        <pt x="147" y="325" on="1"/>
        <pt x="99" y="325" on="1"/>
        <pt x="108" y="374" on="0"/>
        <pt x="151" y="444" on="0"/>
        <pt x="193" y="444" on="1"/>
        <pt x="219" y="444" on="0"/>
        <pt x="251" y="421" on="0"/>
        <pt x="275" y="391" on="0"/>
        <pt x="297" y="369" on="0"/>
        <pt x="312" y="369" on="1"/>
        <pt x="329" y="369" on="0"/>
        <pt x="350" y="406" on="0"/>
        <pt x="355" y="439" on="1"/>
        <pt x="403" y="439" on="1"/>
        <pt x="394" y="391" on="0"/>
        <pt x="353" y="319" on="0"/>
      </contour>
    </TTGlyph>
    <TTGlyph name="asterisk" xMin="108" yMin="351" xMax="518" yMax="740">
      <contour>
        <pt x="218" y="351" on="1"/>
        <pt x="167" y="387" on="1"/>
        <pt x="265" y="519" on="1"/>
        <pt x="108" y="569" on="1"/>
        <pt x="127" y="628" on="1"/>
        <pt x="283" y="576" on="1"/>
        <pt x="282" y="740" on="1"/>
        <pt x="344" y="740" on="1"/>
        <pt x="343" y="576" on="1"/>
        <pt x="499" y="628" on="1"/>
        <pt x="518" y="569" on="1"/>
        <pt x="362" y="519" on="1"/>
        <pt x="459" y="387" on="1"/>
        <pt x="409" y="351" on="1"/>
        <pt x="313" y="484" on="1"/>
      </contour>
    </TTGlyph>
    <TTGlyph name="at" xMin="55" yMin="-110" xMax="912" yMax="750">
      <contour>
        <pt x="460" y="-110" on="1"/>
        <pt x="356" y="-110" on="0"/>
        <pt x="204" y="-45" on="0"/>
        <pt x="104" y="66" on="0"/>
        <pt x="55" y="207" on="0"/>
        <pt x="55" y="282" on="1"/>
        <pt x="55" y="367" on="0"/>
        <pt x="115" y="533" on="0"/>
        <pt x="232" y="669" on="0"/>
        <pt x="404" y="750" on="0"/>
        <pt x="517" y="750" on="1"/>
        <pt x="621" y="750" on="0"/>
        <pt x="770" y="685" on="0"/>
        <pt x="866" y="576" on="0"/>
        <pt x="912" y="443" on="0"/>
        <pt x="912" y="376" on="1"/>
        <pt x="912" y="321" on="0"/>
        <pt x="884" y="221" on="0"/>
        <pt x="830" y="141" on="0"/>
        <pt x="755" y="95" on="0"/>
        <pt x="708" y="95" on="1"/>
        <pt x="667" y="95" on="0"/>
        <pt x="618" y="124" on="0"/>
        <pt x="595" y="163" on="0"/>
        <pt x="589" y="192" on="0"/>
        <pt x="589" y="192" on="1"/>
        <pt x="584" y="192" on="1"/>
        <pt x="584" y="192" on="0"/>
        <pt x="566" y="163" on="0"/>
        <pt x="527" y="124" on="0"/>
        <pt x="468" y="95" on="0"/>
        <pt x="426" y="95" on="1"/>
        <pt x="373" y="95" on="0"/>
        <pt x="303" y="147" on="0"/>
        <pt x="269" y="230" on="0"/>
        <pt x="269" y="278" on="1"/>
        <pt x="269" y="324" on="0"/>
        <pt x="298" y="415" on="0"/>
        <pt x="352" y="490" on="0"/>
        <pt x="430" y="535" on="0"/>
        <pt x="480" y="535" on="1"/>
        <pt x="519" y="535" on="0"/>
        <pt x="570" y="509" on="0"/>
        <pt x="600" y="474" on="0"/>
        <pt x="612" y="447" on="0"/>
        <pt x="612" y="447" on="1"/>
        <pt x="616" y="447" on="1"/>
        <pt x="634" y="527" on="1"/>
        <pt x="703" y="527" on="1"/>
        <pt x="659" y="324" on="1"/>
        <pt x="651" y="282" on="0"/>
        <pt x="647" y="204" on="0"/>
        <pt x="675" y="155" on="0"/>
        <pt x="711" y="155" on="1"/>
        <pt x="750" y="155" on="0"/>
        <pt x="810" y="217" on="0"/>
        <pt x="844" y="317" on="0"/>
        <pt x="844" y="375" on="1"/>
        <pt x="844" y="431" on="0"/>
        <pt x="807" y="542" on="0"/>
        <pt x="728" y="632" on="0"/>
        <pt x="604" y="686" on="0"/>
        <pt x="517" y="686" on="1"/>
        <pt x="420" y="686" on="0"/>
        <pt x="272" y="616" on="0"/>
        <pt x="173" y="499" on="0"/>
        <pt x="123" y="356" on="0"/>
        <pt x="123" y="284" on="1"/>
        <pt x="123" y="220" on="0"/>
        <pt x="164" y="101" on="0"/>
        <pt x="247" y="8" on="0"/>
        <pt x="373" y="-46" on="0"/>
        <pt x="458" y="-46" on="1"/>
        <pt x="510" y="-46" on="0"/>
        <pt x="600" y="-29" on="0"/>
        <pt x="667" y="-7" on="0"/>
        <pt x="704" y="10" on="0"/>
        <pt x="704" y="10" on="1"/>
        <pt x="727" y="-48" on="1"/>
        <pt x="727" y="-48" on="0"/>
        <pt x="688" y="-67" on="0"/>
        <pt x="618" y="-91" on="0"/>
        <pt x="520" y="-110" on="0"/>
      </contour>
      <contour>
        <pt x="441" y="154" on="1"/>
        <pt x="488" y="154" on="0"/>
        <pt x="555" y="213" on="0"/>
        <pt x="591" y="303" on="0"/>
        <pt x="591" y="348" on="1"/>
        <pt x="591" y="382" on="0"/>
        <pt x="569" y="440" on="0"/>
        <pt x="523" y="476" on="0"/>
        <pt x="486" y="476" on="1"/>
        <pt x="439" y="476" on="0"/>
        <pt x="372" y="417" on="0"/>
        <pt x="337" y="328" on="0"/>
        <pt x="337" y="283" on="1"/>
        <pt x="337" y="231" on="0"/>
        <pt x="387" y="154" on="0"/>
      </contour>
    </TTGlyph>
    <TTGlyph name="atilde" xMin="54" yMin="-10" xMax="610" yMax="746">
      <contour>
        <pt x="456" y="618" on="1"/>
        <pt x="432" y="618" on="0"/>
        <pt x="399" y="640" on="0"/>
        <pt x="374" y="670" on="0"/>
        <pt x="351" y="692" on="0"/>
        <pt x="337" y="692" on="1"/>
        <pt x="320" y="692" on="0"/>
        <pt x="298" y="655" on="0"/>
        <pt x="292" y="623" on="1"/>
        <pt x="241" y="623" on="1"/>
        <pt x="251" y="678" on="0"/>
        <pt x="296" y="746" on="0"/>
        <pt x="338" y="746" on="1"/>
        <pt x="364" y="746" on="0"/>
        <pt x="397" y="724" on="0"/>
        <pt x="421" y="695" on="0"/>
        <pt x="444" y="673" on="0"/>
        <pt x="458" y="673" on="1"/>
        <pt x="490" y="673" on="0"/>
        <pt x="501" y="741" on="1"/>
        <pt x="553" y="741" on="1"/>
        <pt x="542" y="687" on="0"/>
        <pt x="498" y="618" on="0"/>
      </contour>
      <contour>
        <pt x="332" y="540" on="1"/>
        <pt x="377" y="540" on="0"/>
        <pt x="440" y="513" on="0"/>
        <pt x="481" y="475" on="0"/>
        <pt x="502" y="437" on="0"/>
        <pt x="507" y="426" on="1"/>
        <pt x="512" y="426" on="1"/>
        <pt x="534" y="530" on="1"/>
        <pt x="610" y="530" on="1"/>
        <pt x="496" y="0" on="1"/>
        <pt x="421" y="0" on="1"/>
        <pt x="439" y="83" on="1"/>
        <pt x="434" y="83" on="1"/>
        <pt x="434" y="83" on="0"/>
        <pt x="413" y="55" on="0"/>
        <pt x="369" y="18" on="0"/>
        <pt x="303" y="-10" on="0"/>
        <pt x="257" y="-10" on="1"/>
        <pt x="189" y="-10" on="0"/>
        <pt x="99" y="55" on="0"/>
        <pt x="54" y="161" on="0"/>
        <pt x="54" y="222" on="1"/>
        <pt x="54" y="278" on="0"/>
        <pt x="91" y="391" on="0"/>
        <pt x="162" y="484" on="0"/>
        <pt x="265" y="540" on="0"/>
      </contour>
      <contour>
        <pt x="335" y="475" on="1"/>
        <pt x="286" y="475" on="0"/>
        <pt x="209" y="429" on="0"/>
        <pt x="155" y="355" on="0"/>
        <pt x="127" y="265" on="0"/>
        <pt x="127" y="221" on="1"/>
        <pt x="127" y="177" on="0"/>
        <pt x="157" y="102" on="0"/>
        <pt x="220" y="55" on="0"/>
        <pt x="269" y="55" on="1"/>
        <pt x="318" y="55" on="0"/>
        <pt x="395" y="101" on="0"/>
        <pt x="449" y="176" on="0"/>
        <pt x="477" y="266" on="0"/>
        <pt x="477" y="310" on="1"/>
        <pt x="477" y="354" on="0"/>
        <pt x="447" y="429" on="0"/>
        <pt x="385" y="475" on="0"/>
      </contour>
    </TTGlyph>
    <TTGlyph name="atilde.ss01" xMin="30" yMin="-10" xMax="515" yMax="746">
      <contour>
        <pt x="419" y="618" on="1"/>
        <pt x="394" y="618" on="0"/>
        <pt x="361" y="640" on="0"/>
        <pt x="337" y="670" on="0"/>
        <pt x="314" y="692" on="0"/>
        <pt x="299" y="692" on="1"/>
        <pt x="282" y="692" on="0"/>
        <pt x="260" y="655" on="0"/>
        <pt x="255" y="623" on="1"/>
        <pt x="203" y="623" on="1"/>
        <pt x="214" y="678" on="0"/>
        <pt x="258" y="746" on="0"/>
        <pt x="301" y="746" on="1"/>
        <pt x="327" y="746" on="0"/>
        <pt x="360" y="724" on="0"/>
        <pt x="384" y="695" on="0"/>
        <pt x="406" y="673" on="0"/>
        <pt x="421" y="673" on="1"/>
        <pt x="452" y="673" on="0"/>
        <pt x="464" y="741" on="1"/>
        <pt x="515" y="741" on="1"/>
        <pt x="505" y="687" on="0"/>
        <pt x="461" y="618" on="0"/>
      </contour>
      <contour>
        <pt x="358" y="75" on="1"/>
        <pt x="358" y="75" on="0"/>
        <pt x="339" y="49" on="0"/>
        <pt x="298" y="16" on="0"/>
        <pt x="235" y="-10" on="0"/>
        <pt x="192" y="-10" on="1"/>
        <pt x="117" y="-10" on="0"/>
        <pt x="30" y="72" on="0"/>
        <pt x="30" y="135" on="1"/>
        <pt x="30" y="177" on="0"/>
        <pt x="73" y="250" on="0"/>
        <pt x="164" y="296" on="0"/>
        <pt x="234" y="299" on="1"/>
        <pt x="415" y="306" on="1"/>
        <pt x="421" y="335" on="1"/>
        <pt x="427" y="365" on="0"/>
        <pt x="417" y="430" on="0"/>
        <pt x="366" y="476" on="0"/>
        <pt x="310" y="476" on="1"/>
        <pt x="262" y="476" on="0"/>
        <pt x="205" y="444" on="0"/>
        <pt x="175" y="403" on="0"/>
        <pt x="165" y="372" on="0"/>
        <pt x="165" y="372" on="1"/>
        <pt x="92" y="372" on="1"/>
        <pt x="92" y="372" on="0"/>
        <pt x="102" y="406" on="0"/>
        <pt x="129" y="456" on="0"/>
        <pt x="178" y="506" on="0"/>
        <pt x="256" y="540" on="0"/>
        <pt x="312" y="540" on="1"/>
        <pt x="380" y="540" on="0"/>
        <pt x="471" y="483" on="0"/>
        <pt x="506" y="386" on="0"/>
        <pt x="494" y="326" on="1"/>
        <pt x="425" y="0" on="1"/>
        <pt x="350" y="0" on="1"/>
        <pt x="366" y="75" on="1"/>
      </contour>
      <contour>
        <pt x="104" y="140" on="1"/>
        <pt x="104" y="94" on="0"/>
        <pt x="169" y="51" on="0"/>
        <pt x="211" y="51" on="1"/>
        <pt x="257" y="51" on="0"/>
        <pt x="334" y="95" on="0"/>
        <pt x="387" y="172" on="0"/>
        <pt x="397" y="219" on="1"/>
        <pt x="402" y="245" on="1"/>
        <pt x="236" y="238" on="1"/>
        <pt x="173" y="236" on="0"/>
        <pt x="104" y="183" on="0"/>
      </contour>
    </TTGlyph>
    <TTGlyph name="b" xMin="31" yMin="-10" xMax="587" yMax="760">
      <contour>
        <pt x="309" y="-10" on="1"/>
        <pt x="263" y="-10" on="0"/>
        <pt x="200" y="17" on="0"/>
        <pt x="160" y="55" on="0"/>
        <pt x="138" y="93" on="0"/>
        <pt x="134" y="104" on="1"/>
        <pt x="129" y="104" on="1"/>
        <pt x="106" y="0" on="1"/>
        <pt x="31" y="0" on="1"/>
        <pt x="194" y="760" on="1"/>
        <pt x="270" y="760" on="1"/>
        <pt x="202" y="447" on="1"/>
        <pt x="207" y="447" on="1"/>
        <pt x="207" y="447" on="0"/>
        <pt x="228" y="475" on="0"/>
        <pt x="271" y="512" on="0"/>
        <pt x="338" y="540" on="0"/>
        <pt x="384" y="540" on="1"/>
        <pt x="452" y="540" on="0"/>
        <pt x="542" y="475" on="0"/>
        <pt x="587" y="369" on="0"/>
        <pt x="587" y="308" on="1"/>
        <pt x="587" y="252" on="0"/>
        <pt x="550" y="139" on="0"/>
        <pt x="479" y="46" on="0"/>
        <pt x="375" y="-10" on="0"/>
      </contour>
      <contour>
        <pt x="305" y="55" on="1"/>
        <pt x="354" y="55" on="0"/>
        <pt x="432" y="101" on="0"/>
        <pt x="485" y="175" on="0"/>
        <pt x="513" y="265" on="0"/>
        <pt x="513" y="309" on="1"/>
        <pt x="513" y="353" on="0"/>
        <pt x="483" y="428" on="0"/>
        <pt x="421" y="475" on="0"/>
        <pt x="371" y="475" on="1"/>
        <pt x="323" y="475" on="0"/>
        <pt x="246" y="429" on="0"/>
        <pt x="192" y="354" on="0"/>
        <pt x="164" y="264" on="0"/>
        <pt x="164" y="220" on="1"/>
        <pt x="164" y="176" on="0"/>
        <pt x="194" y="101" on="0"/>
        <pt x="256" y="55" on="0"/>
      </contour>
    </TTGlyph>
    <TTGlyph name="backslash" xMin="134" yMin="-140" xMax="345" yMax="822">
      <contour>
        <pt x="345" y="-140" on="1"/>
        <pt x="276" y="-140" on="1"/>
        <pt x="134" y="822" on="1"/>
        <pt x="203" y="822" on="1"/>
      </contour>
    </TTGlyph>
    <TTGlyph name="bar" xMin="63" yMin="-222" xMax="382" yMax="950">
      <contour>
        <pt x="63" y="-222" on="1"/>
        <pt x="312" y="950" on="1"/>
        <pt x="382" y="950" on="1"/>
        <pt x="133" y="-222" on="1"/>
      </contour>
    </TTGlyph>
    <TTGlyph name="braceleft" xMin="47" yMin="-194" xMax="506" yMax="831">
      <contour>
        <pt x="192" y="-194" on="1"/>
        <pt x="120" y="-194" on="0"/>
        <pt x="63" y="-111" on="0"/>
        <pt x="75" y="-52" on="1"/>
        <pt x="133" y="219" on="1"/>
        <pt x="140" y="251" on="0"/>
        <pt x="115" y="286" on="0"/>
        <pt x="80" y="286" on="1"/>
        <pt x="47" y="286" on="1"/>
        <pt x="60" y="351" on="1"/>
        <pt x="94" y="351" on="1"/>
        <pt x="161" y="351" on="0"/>
        <pt x="176" y="421" on="1"/>
        <pt x="234" y="694" on="1"/>
        <pt x="248" y="760" on="0"/>
        <pt x="330" y="831" on="0"/>
        <pt x="393" y="831" on="1"/>
        <pt x="506" y="831" on="1"/>
        <pt x="491" y="765" on="1"/>
        <pt x="393" y="765" on="1"/>
        <pt x="356" y="765" on="0"/>
        <pt x="317" y="729" on="0"/>
        <pt x="309" y="692" on="1"/>
        <pt x="252" y="421" on="1"/>
        <pt x="243" y="383" on="0"/>
        <pt x="209" y="334" on="0"/>
        <pt x="171" y="320" on="1"/>
        <pt x="170" y="317" on="1"/>
        <pt x="204" y="303" on="0"/>
        <pt x="215" y="247" on="0"/>
        <pt x="207" y="210" on="1"/>
        <pt x="149" y="-60" on="1"/>
        <pt x="142" y="-94" on="0"/>
        <pt x="172" y="-127" on="0"/>
        <pt x="202" y="-127" on="1"/>
        <pt x="301" y="-127" on="1"/>
        <pt x="288" y="-194" on="1"/>
      </contour>
    </TTGlyph>
</ttFont>
